<svg width="343" height="59" viewBox="0 0 343 59" fill="none" xmlns="http://www.w3.org/2000/svg">
<path fill-rule="evenodd" clip-rule="evenodd" d="M78.5758 48.7998H75.6758V57.3998H76.2758V54.0998H78.5758C80.0758 54.0998 81.2758 52.9998 81.2758 51.4998C81.2758 49.9998 80.1758 48.7998 78.5758 48.7998ZM78.5758 53.4998H76.2758V49.3998H78.5758C79.7758 49.3998 80.5758 50.2998 80.5758 51.3998C80.5758 52.6998 79.7758 53.4998 78.5758 53.4998ZM86.7758 57.4998C89.2758 57.4998 91.1758 55.4998 91.1758 53.0998C91.1758 50.6998 89.2758 48.6998 86.7758 48.6998C84.2758 48.6998 82.3758 50.6998 82.3758 53.0998C82.2758 55.5998 84.2758 57.4998 86.7758 57.4998ZM86.7758 56.8998C84.6758 56.8998 82.9758 55.1998 82.9758 53.0998C82.9758 50.9998 84.6758 49.2998 86.7758 49.2998C88.8758 49.2998 90.5758 50.9998 90.5758 53.0998C90.4758 55.1998 88.8758 56.8998 86.7758 56.8998ZM96.7758 57.4998C98.3758 57.4998 99.7758 56.6998 100.476 55.3998L99.8758 55.0998C99.2758 56.1998 98.0758 56.8998 96.7758 56.8998C94.5758 56.8998 92.9758 55.1998 92.9758 53.0998C92.9758 50.9998 94.5758 49.2998 96.7758 49.2998C98.0758 49.2998 99.2758 49.9998 99.8758 51.0998L100.476 50.7998C99.7758 49.5998 98.3758 48.6998 96.7758 48.6998C94.1758 48.6998 92.2758 50.6998 92.2758 53.0998C92.2758 55.5998 94.1758 57.4998 96.7758 57.4998ZM105.976 57.4998C107.576 57.4998 108.976 56.6998 109.676 55.3998L109.076 55.0998C108.476 56.1998 107.276 56.8998 105.976 56.8998C103.776 56.8998 102.176 55.1998 102.176 53.0998C102.176 50.9998 103.776 49.2998 105.976 49.2998C107.276 49.2998 108.476 49.9998 109.076 51.0998L109.676 50.7998C108.976 49.5998 107.576 48.6998 105.976 48.6998C103.376 48.6998 101.476 50.6998 101.476 53.0998C101.476 55.5998 103.376 57.4998 105.976 57.4998ZM116.776 57.3998H117.376V48.7998H116.776L111.776 56.1998V48.7998H111.176V57.3998H111.776L116.876 49.9998V57.3998H116.776ZM121.176 47.7998H124.276V47.2998H121.176V47.7998ZM125.176 57.3998H125.776V48.7998H125.176L120.176 56.1998V48.7998H119.576V57.3998H120.176L125.276 49.9998V57.3998H125.176ZM131.876 57.4998C133.476 57.4998 134.876 56.6998 135.576 55.3998L134.976 55.0998C134.376 56.1998 133.176 56.8998 131.876 56.8998C129.676 56.8998 128.076 55.1998 128.076 53.0998C128.076 50.9998 129.676 49.2998 131.876 49.2998C133.176 49.2998 134.376 49.9998 134.976 51.0998L135.576 50.7998C134.876 49.5998 133.476 48.6998 131.876 48.6998C129.276 48.6998 127.476 50.6998 127.476 53.0998C127.476 55.5998 129.276 57.4998 131.876 57.4998ZM142.976 57.3998L138.476 52.9998L142.776 48.7998H141.976L137.776 52.7998V48.7998H137.176V57.3998H137.776V53.1998L142.076 57.3998H142.976ZM147.276 57.4998C144.776 57.4998 142.876 55.4998 142.876 53.0998C142.876 50.6998 144.776 48.6998 147.276 48.6998C149.776 48.6998 151.676 50.6998 151.676 53.0998C151.776 55.5998 149.776 57.4998 147.276 57.4998ZM147.276 56.8998C149.376 56.8998 151.076 55.1998 151.076 53.0998C151.076 50.9998 149.376 49.2998 147.276 49.2998C145.176 49.2998 143.476 50.9998 143.476 53.0998C143.576 55.1998 145.176 56.8998 147.276 56.8998ZM153.976 56.7998V53.3998H157.876V52.7998H153.976V49.4998H158.176V48.8998H153.276V57.4998H158.176V56.8998H153.976V56.7998ZM169.276 48.7998H163.176V57.3998H163.776V49.4998H168.576V57.3998H169.276V48.7998ZM174.276 48.7998H171.376V57.3998H171.976V54.0998H174.276C175.776 54.0998 176.976 52.9998 176.976 51.4998C176.976 49.9998 175.876 48.7998 174.276 48.7998ZM174.276 53.4998H171.976V49.3998H174.276C175.476 49.3998 176.276 50.2998 176.276 51.3998C176.276 52.6998 175.476 53.4998 174.276 53.4998ZM182.376 57.4998C184.876 57.4998 186.776 55.4998 186.776 53.0998C186.776 50.6998 184.876 48.6998 182.376 48.6998C179.876 48.6998 177.976 50.6998 177.976 53.0998C177.976 55.5998 179.976 57.4998 182.376 57.4998ZM182.376 56.8998C180.276 56.8998 178.576 55.1998 178.576 53.0998C178.576 50.9998 180.276 49.2998 182.376 49.2998C184.476 49.2998 186.176 50.9998 186.176 53.0998C186.176 55.1998 184.576 56.8998 182.376 56.8998ZM194.076 57.3998H194.676V48.7998H194.076L189.076 56.1998V48.7998H188.476V57.3998H189.076L194.176 49.9998V57.3998H194.076ZM200.576 52.9998C201.376 52.5998 201.876 51.8998 201.876 51.0998C201.876 49.7998 200.776 48.7998 199.276 48.7998C197.776 48.7998 196.976 49.4998 196.576 50.4998L197.076 50.7998C197.376 49.9998 198.076 49.3998 199.276 49.3998C200.476 49.3998 201.276 50.0998 201.276 51.0998C201.276 52.0998 200.576 52.7998 199.276 52.7998H198.576V53.3998H199.576C200.876 53.3998 201.576 54.1998 201.576 55.1998C201.576 56.1998 200.776 56.9998 199.376 56.9998C197.876 56.9998 197.176 56.2998 196.976 55.3998L196.376 55.6998C196.776 56.6998 197.676 57.5998 199.276 57.5998C201.076 57.5998 202.176 56.5998 202.176 55.1998C202.176 54.0998 201.576 53.2998 200.576 52.9998ZM208.276 52.9998C208.976 52.5998 209.376 51.9998 209.376 51.0998C209.376 49.8998 208.376 48.8998 207.176 48.8998H203.776V57.4998H207.476C208.776 57.4998 209.776 56.4998 209.776 55.1998C209.676 54.0998 209.076 53.2998 208.276 52.9998ZM207.076 49.3998C207.976 49.3998 208.676 50.0998 208.676 50.9998C208.676 51.8998 207.976 52.5998 207.076 52.5998H204.276V49.2998H207.076V49.3998ZM207.376 56.7998H204.376V53.3998H207.376C208.276 53.3998 209.076 54.1998 209.076 55.0998C209.076 55.9998 208.276 56.7998 207.376 56.7998ZM215.176 57.4998C217.676 57.4998 219.576 55.4998 219.576 53.0998C219.576 50.6998 217.676 48.6998 215.176 48.6998C212.676 48.6998 210.776 50.6998 210.776 53.0998C210.776 55.5998 212.776 57.4998 215.176 57.4998ZM215.176 56.8998C213.076 56.8998 211.376 55.1998 211.376 53.0998C211.376 50.9998 213.076 49.2998 215.176 49.2998C217.276 49.2998 218.976 50.9998 218.976 53.0998C218.976 55.1998 217.376 56.8998 215.176 56.8998ZM226.876 56.7998V48.8998H221.576V53.7998C221.576 55.4998 221.176 56.2998 220.676 56.8998H219.976V58.9998H220.676V57.3998H227.076V58.9998H227.776V56.6998H226.876V56.7998ZM222.276 53.6998V49.3998H226.276V56.6998H221.576C221.976 56.1998 222.276 55.2998 222.276 53.6998ZM233.176 57.4998C234.776 57.4998 236.176 56.6998 236.876 55.3998L236.276 55.0998C235.676 56.1998 234.476 56.8998 233.176 56.8998C230.876 56.8998 229.376 55.1998 229.376 53.0998C229.376 50.9998 230.976 49.2998 233.176 49.2998C234.476 49.2998 235.676 49.9998 236.276 51.0998L236.876 50.7998C236.176 49.5998 234.776 48.6998 233.176 48.6998C230.576 48.6998 228.676 50.6998 228.676 53.0998C228.776 55.5998 230.576 57.4998 233.176 57.4998ZM243.576 48.7998H237.576V49.3998H240.276V57.2998H240.976V49.3998H243.676V48.7998H243.576ZM249.476 52.9998C250.176 52.5998 250.576 51.9998 250.576 51.0998C250.576 49.8998 249.576 48.8998 248.376 48.8998H244.976V57.4998H248.676C249.976 57.4998 250.976 56.4998 250.976 55.1998C250.876 54.0998 250.276 53.2998 249.476 52.9998ZM248.276 49.3998C249.176 49.3998 249.876 50.0998 249.876 50.9998C249.876 51.8998 249.176 52.5998 248.276 52.5998H245.476V49.2998H248.276V49.3998ZM248.576 56.7998H245.576V53.3998H248.576C249.476 53.3998 250.276 54.1998 250.276 55.0998C250.276 55.9998 249.476 56.7998 248.576 56.7998ZM271.676 48.7998H265.576V57.3998H266.176V49.4998H270.976V57.3998H271.676V48.7998ZM274.476 56.7998V53.3998H278.376V52.7998H274.476V49.4998H278.676V48.8998H273.776V57.4998H278.676V56.8998H274.476V56.7998ZM285.976 48.7998V52.6998H280.976V48.7998H280.376V57.3998H280.976V53.2998H285.976V57.3998H286.576V48.7998H285.976ZM292.676 57.4998C295.176 57.4998 297.076 55.4998 297.076 53.0998C297.076 50.6998 295.176 48.6998 292.676 48.6998C290.176 48.6998 288.276 50.6998 288.276 53.0998C288.276 55.5998 290.176 57.4998 292.676 57.4998ZM292.676 56.8998C290.576 56.8998 288.876 55.1998 288.876 53.0998C288.876 50.9998 290.576 49.2998 292.676 49.2998C294.776 49.2998 296.476 50.9998 296.476 53.0998C296.476 55.1998 294.776 56.8998 292.676 56.8998ZM302.676 57.4998C304.276 57.4998 305.676 56.6998 306.376 55.3998L305.776 55.0998C305.176 56.1998 303.976 56.8998 302.676 56.8998C300.476 56.8998 298.876 55.1998 298.876 53.0998C298.876 50.9998 300.476 49.2998 302.676 49.2998C303.976 49.2998 305.176 49.9998 305.776 51.0998L306.376 50.7998C305.676 49.5998 304.276 48.6998 302.676 48.6998C300.076 48.6998 298.176 50.6998 298.176 53.0998C298.276 55.5998 300.076 57.4998 302.676 57.4998ZM313.076 48.7998H307.076V49.3998H309.776V57.2998H310.476V49.3998H313.176V48.7998H313.076ZM315.076 56.7998V53.3998H318.976V52.7998H315.076V49.4998H319.276V48.8998H314.376V57.4998H319.276V56.8998H315.076V56.7998ZM326.676 57.3998L322.176 52.9998L326.476 48.7998H325.576L321.376 52.7998V48.7998H320.776V57.3998H321.376V53.1998L325.676 57.3998H326.676ZM327.076 57.3998C328.676 57.4998 329.576 56.5998 329.576 53.7998V49.4998H333.676V57.3998H334.376V48.7998H328.976V53.6998C328.976 56.1998 328.276 56.8998 327.176 56.7998V57.3998H327.076ZM342.176 57.3998H342.876L339.576 48.7998H338.876L335.576 57.3998H336.276L337.076 55.1998H341.376L342.176 57.3998ZM337.276 54.5998L339.176 49.5998L341.076 54.5998H337.276ZM256.776 57.5998C259.276 57.5998 261.176 55.5998 261.176 53.1998C261.176 50.6998 259.176 48.7998 256.776 48.7998C254.276 48.7998 252.376 50.7998 252.376 53.1998C252.276 55.5998 254.276 57.5998 256.776 57.5998ZM256.776 56.8998C254.676 56.8998 252.976 55.1998 252.976 53.0998C252.976 50.9998 254.676 49.2998 256.776 49.2998C258.876 49.2998 260.576 50.9998 260.576 53.0998C260.576 55.1998 258.876 56.8998 256.776 56.8998Z" fill="#4E565A"/>
<path fill-rule="evenodd" clip-rule="evenodd" d="M179.375 27.2996C173.975 27.2996 169.675 23.2996 169.675 17.3996C169.675 11.3996 173.975 7.49962 179.375 7.49962C184.775 7.49962 189.075 11.4996 189.075 17.3996C189.075 23.2996 184.775 27.2996 179.375 27.2996ZM179.375 34.6996C188.975 34.6996 196.675 27.1996 196.675 17.3996C196.675 7.59962 188.875 0.0996212 179.375 0.0996212C169.775 -0.000378832 161.975 7.49962 161.975 17.2996C161.975 27.1996 169.775 34.6996 179.375 34.6996ZM143.775 7.79962H149.475C151.575 7.79962 153.275 9.69962 153.275 12.0996C153.275 14.4996 151.575 16.3996 149.475 16.3996H143.775V7.79962ZM153.675 33.9996H161.875L154.775 21.7996C158.475 19.8996 160.875 16.1996 160.875 12.0996C160.875 5.79962 155.775 0.699621 149.475 0.699621H136.175V33.9996H143.775V22.9996H147.375L153.675 33.9996ZM116.775 27.2996C111.375 27.2996 107.075 23.2996 107.075 17.3996C107.075 11.3996 111.375 7.49962 116.775 7.49962C122.175 7.49962 126.475 11.4996 126.475 17.3996C126.475 23.2996 122.175 27.2996 116.775 27.2996ZM116.775 34.6996C126.375 34.6996 134.075 27.1996 134.075 17.3996C134.075 7.59962 126.275 0.0996212 116.775 0.0996212C107.175 0.0996212 99.4746 7.59962 99.4746 17.3996C99.3746 27.1996 107.175 34.6996 116.775 34.6996ZM87.1746 16.3996H82.1746V7.79962H87.1746C89.4746 7.79962 91.2746 9.69962 91.2746 12.0996C91.1746 14.4996 89.4746 16.3996 87.1746 16.3996ZM87.1746 0.699621H74.4746V33.9996H82.0746V23.4996H87.0746C93.6746 23.4996 98.7746 18.3996 98.7746 12.0996C98.7746 5.79962 93.6746 0.699621 87.1746 0.699621Z" fill="#4E565A"/>
<path fill-rule="evenodd" clip-rule="evenodd" d="M329.274 34.7C336.474 34.7 341.674 30.9 341.674 24.5C341.674 17.4 335.974 15.7 330.974 14.2C325.774 12.6 324.974 11.6 324.974 10.1C324.974 8.8 326.174 7.6 328.574 7.6C331.574 7.6 333.174 9.1 334.374 11.5L340.774 7.7C338.274 2.6 333.974 0 328.574 0C322.774 0 317.374 3.7 317.374 10.1C317.374 16.5 322.274 18.9 327.174 20.3C332.174 21.7 334.074 22.5 334.074 24.5C334.074 25.8 333.174 27.2 329.574 27.2C325.774 27.2 323.774 25.3 322.574 22.6L315.974 26.4C317.774 31.4 322.274 34.7 329.274 34.7ZM302.374 34.7C309.574 34.7 314.774 30.9 314.774 24.5C314.774 17.4 309.074 15.7 304.074 14.2C298.874 12.6 298.074 11.6 298.074 10.1C298.074 8.8 299.274 7.6 301.674 7.6C304.674 7.6 306.274 9.1 307.474 11.5L313.874 7.7C311.474 2.8 307.174 0.2 301.674 0.2C295.874 0.2 290.474 3.9 290.474 10.3C290.474 16.7 295.374 19.1 300.274 20.5C305.274 21.9 307.174 22.7 307.174 24.7C307.174 26 306.274 27.4 302.674 27.4C298.874 27.4 296.874 25.5 295.674 22.8L289.074 26.6C290.874 31.4 295.374 34.7 302.374 34.7ZM269.974 21.6L273.974 9.4L277.874 21.6H269.974ZM281.774 34L280.074 28.8H267.674L265.974 34H257.674L268.974 0.6H278.674L290.174 34H281.774ZM244.374 26.7V0.7H236.774V34H256.274V26.7H244.374ZM234.074 15.4H217.374V22.1H226.274C225.074 25.3 222.174 27.2 217.774 27.2C211.274 27.2 207.274 23.1 207.274 17.4C207.274 11.5 211.474 7.4 217.074 7.4C220.874 7.4 223.874 9.1 225.174 11.3L231.674 7.6C228.874 3.1 223.474 0 217.074 0C207.274 0 199.574 7.7 199.574 17.4C199.574 27 207.074 34.7 217.574 34.7C226.874 34.7 233.974 28.5 233.974 18.3V15.4H234.074Z" fill="#5BA43A"/>
<path fill-rule="evenodd" clip-rule="evenodd" d="M32.3754 38.6998L44.8754 45.8998C45.0754 45.4998 45.1754 44.9998 44.8754 44.5998C44.7754 44.4998 44.6754 44.3998 44.5754 44.2998C44.7754 44.1998 44.9754 43.9998 45.1754 43.6998C45.4754 43.0998 45.1754 42.3998 44.5754 42.0998C44.8754 41.9998 45.1754 41.7998 45.3754 41.3998C45.5754 40.7998 45.3754 40.0998 44.7754 39.8998C44.1754 39.6998 43.4754 39.8998 43.2754 40.4998C43.0754 41.0998 43.2754 41.6998 43.7754 41.9998C43.4754 42.0998 43.0754 42.2998 42.9754 42.6998C42.7754 43.1998 42.8754 43.7998 43.2754 44.0998C43.2754 44.0998 43.1754 44.0998 43.1754 44.1998C43.0754 44.2998 42.9754 44.2998 42.8754 44.3998C43.0754 43.8998 42.9754 43.3998 42.6754 42.9998C42.8754 42.8998 42.9754 42.6998 43.0754 42.4998C43.3754 41.8998 43.1754 41.2998 42.6754 40.8998C42.9754 40.7998 43.1754 40.4998 43.3754 40.1998C43.5754 39.5998 43.2754 38.8998 42.6754 38.5998H42.5754C42.9754 38.4998 43.3754 38.2998 43.4754 37.7998C43.6754 37.1998 43.3754 36.5998 42.7754 36.3998C42.1754 36.1998 41.5754 36.4998 41.3754 37.0998C41.1754 37.6998 41.4754 38.2998 42.0754 38.4998C41.6754 38.4998 41.3754 38.6998 41.1754 39.0998C41.1754 39.0998 41.1754 39.0998 41.1754 38.9998C41.3754 38.3998 41.0754 37.6998 40.5754 37.4998C40.9754 37.3998 41.2754 37.0998 41.3754 36.6998C41.5754 36.0998 41.1754 35.3998 40.5754 35.1998C40.0754 35.0998 39.6754 35.1998 39.3754 35.4998C39.4754 34.8998 39.1754 34.2998 38.5754 34.0998C38.9754 33.9998 39.3754 33.6998 39.4754 33.1998C39.5754 32.5998 39.1754 31.8998 38.5754 31.7998C38.1754 31.6998 37.7754 31.7998 37.4754 32.0998C37.4754 31.4998 37.0754 30.8998 36.4754 30.7998C36.4754 30.7998 36.4754 30.7998 36.3754 30.7998C36.7754 30.7998 37.0754 30.5998 37.2754 30.2998C37.1754 30.8998 37.5754 31.4998 38.1754 31.5998C38.7754 31.6998 39.3754 31.2998 39.4754 30.6998C39.5754 30.0998 39.1754 29.4998 38.5754 29.3998C38.1754 29.2998 37.6754 29.4998 37.4754 29.7998V29.6998C37.5754 28.9998 37.0754 28.3998 36.4754 28.2998C36.1754 28.1998 35.7754 28.2998 35.5754 28.4998C35.5754 27.8998 35.0754 27.3998 34.3754 27.2998C34.0754 27.2998 33.7754 27.2998 33.5754 27.4998C33.4754 26.9998 33.0754 26.6998 32.5754 26.5998C32.6754 26.5998 32.8754 26.4998 32.9754 26.3998L33.0754 26.2998C33.1754 26.7998 33.6754 27.1998 34.1754 27.1998C34.5754 27.1998 34.8754 27.0998 35.1754 26.7998C35.1754 27.3998 35.5754 27.8998 36.1754 27.9998C36.7754 28.0998 37.3754 27.5998 37.4754 26.9998C37.5754 26.3998 37.0754 25.7998 36.4754 25.6998C36.0754 25.6998 35.7754 25.7998 35.4754 25.9998C35.4754 25.2998 34.9754 24.6998 34.3754 24.6998C34.0754 24.6998 33.8754 24.7998 33.5754 24.8998C33.5754 24.7998 33.4754 24.5998 33.3754 24.4998C33.1754 24.0998 32.6754 23.8998 32.2754 23.7998L32.3754 38.6998ZM32.3754 38.6998L48.1754 46.6998L32.3754 38.6998ZM48.1754 46.6998C48.1754 46.6998 48.0754 46.5998 48.1754 46.6998C47.5754 46.3998 47.2754 45.6998 47.5754 45.1998C47.8754 44.6998 48.4754 44.3998 49.0754 44.6998C49.5754 44.9998 49.8754 45.5998 49.5754 46.1998C49.3754 46.4998 49.0754 46.6998 48.7754 46.7998L48.1754 46.6998ZM46.6754 45.4998C46.8754 45.5998 46.9754 45.6998 47.0754 45.8998C47.2754 46.2998 47.2754 46.7998 47.0754 47.1998L44.9754 45.8998C45.0754 45.6998 45.2754 45.4998 45.4754 45.3998C45.5754 45.3998 45.6754 45.2998 45.7754 45.2998C45.2754 44.9998 45.1754 44.3998 45.3754 43.7998C45.6754 43.1998 46.3754 42.9998 46.9754 43.2998C47.5754 43.5998 47.7754 44.2998 47.4754 44.8998C47.2754 45.1998 46.9754 45.3998 46.6754 45.4998ZM47.2754 47.2998C47.3754 47.0998 47.5754 46.9998 47.6754 46.7998C48.2754 46.4998 48.9754 46.6998 49.2754 47.1998C49.4754 47.5998 49.4754 47.9998 49.2754 48.3998L47.2754 47.2998ZM33.2754 20.8998C33.2754 20.8998 33.2754 20.9998 33.2754 20.8998C33.2754 21.5998 33.6754 22.0998 34.2754 22.1998C34.8754 22.1998 35.3754 21.7998 35.4754 21.1998C35.4754 20.5998 35.0754 20.0998 34.4754 19.9998C34.0754 19.9998 33.7754 20.0998 33.5754 20.3998C33.4754 20.5998 33.3754 20.6998 33.2754 20.8998ZM32.3754 21.3998V18.9998C32.7754 18.9998 33.1754 19.1998 33.3754 19.5998C33.6754 20.1998 33.4754 20.8998 32.9754 21.1998C32.7754 21.2998 32.5754 21.3998 32.3754 21.3998ZM33.1754 23.6998C33.0754 23.7998 33.0754 23.7998 32.9754 23.8998C32.7754 23.9998 32.5754 24.0998 32.3754 24.0998V21.5998C32.7754 21.5998 33.1754 21.7998 33.4754 22.1998C33.5754 22.3998 33.6754 22.5998 33.6754 22.7998C33.8754 22.5998 34.1754 22.4998 34.4754 22.4998C35.0754 22.4998 35.5754 23.0998 35.5754 23.6998C35.5754 24.2998 34.9754 24.7998 34.3754 24.7998C33.6754 24.7998 33.2754 24.2998 33.1754 23.6998ZM33.1754 21.8998C32.9754 21.6998 32.6754 21.5998 32.3754 21.5998C32.6754 21.5998 32.9754 21.6998 33.1754 21.8998ZM50.8754 48.0998C50.9754 48.0998 51.0754 48.1998 51.1754 48.1998C51.2754 48.1998 51.2754 48.2998 51.3754 48.2998C51.5754 48.4998 51.7754 48.7998 51.7754 49.1998C51.7754 49.3998 51.6754 49.4998 51.6754 49.6998L49.7754 48.5998C49.7754 48.5998 49.7754 48.4998 49.8754 48.4998C49.9754 48.0998 50.4754 47.9998 50.8754 48.0998ZM58.1754 52.4998C58.4754 52.7998 58.4754 53.1998 58.2754 53.5998L56.6754 52.6998C56.9754 52.1998 57.4754 52.0998 57.9754 52.3998C57.9754 52.2998 58.0754 52.3998 58.1754 52.4998ZM56.1754 49.8998C55.9754 50.3998 55.3754 50.4998 54.8754 50.2998C54.3754 50.0998 54.2754 49.4998 54.4754 48.9998C54.6754 48.4998 55.2754 48.3998 55.7754 48.5998C56.2754 48.8998 56.4754 49.4998 56.1754 49.8998ZM54.0754 46.2998C53.8754 46.7998 53.2754 46.9998 52.8754 46.6998C52.3754 46.4998 52.1754 45.8998 52.4754 45.4998C52.6754 44.9998 53.2754 44.7998 53.6754 45.0998C54.1754 45.1998 54.3754 45.7998 54.0754 46.2998ZM51.5754 41.3998C52.0754 41.5998 52.2754 42.0998 52.0754 42.5998C51.8754 43.0998 51.3754 43.2998 50.8754 43.0998C50.3754 42.8998 50.1754 42.3998 50.3754 41.8998C50.5754 41.3998 51.0754 41.1998 51.5754 41.3998ZM48.7754 39.4998C48.2754 39.2998 48.0754 38.7998 48.2754 38.2998C48.4754 37.7998 48.9754 37.5998 49.4754 37.7998C49.9754 37.9998 50.1754 38.4998 49.9754 38.9998C49.7754 39.3998 49.2754 39.5998 48.7754 39.4998ZM46.1754 34.6998C46.3754 34.1998 46.8754 33.9998 47.2754 34.0998C47.7754 34.2998 47.9754 34.7998 47.8754 35.1998C47.6754 35.6998 47.1754 35.8998 46.7754 35.7998C46.2754 35.6998 45.9754 35.1998 46.1754 34.6998ZM44.0754 31.0998C44.1754 30.5998 44.6754 30.2998 45.1754 30.4998C45.6754 30.5998 45.9754 31.0998 45.7754 31.5998C45.6754 32.0998 45.1754 32.3998 44.6754 32.1998C44.1754 32.0998 43.8754 31.5998 44.0754 31.0998ZM41.9754 27.5998C42.0754 27.0998 42.5754 26.7998 43.0754 26.8998C43.5754 26.9998 43.8754 27.4998 43.7754 27.9998C43.6754 28.4998 43.1754 28.7998 42.6754 28.6998C42.1754 28.4998 41.7754 27.9998 41.9754 27.5998ZM39.8754 23.9998C39.9754 23.4998 40.4754 23.1998 40.9754 23.2998C41.4754 23.3998 41.7754 23.8998 41.6754 24.3998C41.5754 24.8998 41.0754 25.1998 40.5754 25.0998C40.0754 24.8998 39.7754 24.4998 39.8754 23.9998ZM37.7754 20.3998C37.8754 19.8998 38.2754 19.4998 38.7754 19.5998C39.2754 19.6998 39.6754 20.0998 39.5754 20.5998C39.4754 21.0998 39.0754 21.4998 38.5754 21.3998C37.9754 21.3998 37.6754 20.8998 37.7754 20.3998ZM35.5754 16.7998C35.5754 16.2998 36.0754 15.8998 36.5754 15.9998C37.0754 15.9998 37.4754 16.4998 37.3754 16.9998C37.3754 17.4998 36.8754 17.8998 36.3754 17.7998C35.9754 17.7998 35.5754 17.2998 35.5754 16.7998ZM33.4754 13.1998C33.4754 12.6998 33.9754 12.2998 34.4754 12.2998C34.9754 12.2998 35.3754 12.7998 35.3754 13.2998C35.3754 13.7998 34.8754 14.1998 34.3754 14.1998C33.8754 14.1998 33.4754 13.6998 33.4754 13.1998ZM32.3754 8.6998C32.8754 8.6998 33.2754 9.0998 33.2754 9.5998C33.2754 9.7998 33.1754 9.9998 33.0754 10.1998C32.8754 10.3998 32.6754 10.4998 32.3754 10.4998V8.6998ZM60.3754 53.7998C60.6754 54.0998 60.6754 54.4998 60.4754 54.7998L58.9754 53.9998C59.1754 53.5998 59.7754 53.3998 60.1754 53.6998C60.2754 53.6998 60.2754 53.7998 60.3754 53.7998ZM58.3754 51.1998C58.1754 51.5998 57.5754 51.7998 57.1754 51.5998C56.7754 51.3998 56.5754 50.7998 56.7754 50.3998C56.9754 49.9998 57.5754 49.7998 57.9754 49.9998C58.4754 50.1998 58.6754 50.7998 58.3754 51.1998ZM56.2754 47.4998C56.0754 47.8998 55.5754 48.0998 55.0754 47.8998C54.6754 47.6998 54.4754 47.1998 54.6754 46.6998C54.8754 46.2998 55.3754 46.0998 55.8754 46.2998C56.3754 46.4998 56.4754 47.0998 56.2754 47.4998ZM54.1754 43.7998C53.9754 44.1998 53.4754 44.3998 53.0754 44.2998C52.6754 44.0998 52.4754 43.5998 52.5754 43.1998C52.7754 42.7998 53.2754 42.5998 53.6754 42.6998C54.1754 42.8998 54.3754 43.3998 54.1754 43.7998ZM51.5754 38.9998C51.9754 39.1998 52.2754 39.6998 52.0754 40.0998C51.8754 40.4998 51.3754 40.7998 50.9754 40.5998C50.5754 40.3998 50.2754 39.8998 50.4754 39.4998C50.6754 39.0998 51.1754 38.8998 51.5754 38.9998ZM48.9754 36.9998C48.5754 36.7998 48.2754 36.3998 48.4754 35.8998C48.6754 35.4998 49.0754 35.1998 49.5754 35.3998C49.9754 35.5998 50.2754 35.9998 50.0754 36.4998C49.8754 36.8998 49.3754 37.0998 48.9754 36.9998ZM46.2754 32.2998C46.3754 31.7998 46.8754 31.5998 47.3754 31.6998C47.8754 31.7998 48.0754 32.2998 47.9754 32.7998C47.8754 33.2998 47.3754 33.4998 46.8754 33.3998C46.3754 33.1998 46.1754 32.7998 46.2754 32.2998ZM44.1754 28.6998C44.2754 28.1998 44.7754 27.9998 45.1754 28.0998C45.6754 28.1998 45.8754 28.6998 45.7754 29.0998C45.6754 29.5998 45.1754 29.7998 44.7754 29.6998C44.3754 29.5998 44.0754 29.0998 44.1754 28.6998ZM42.0754 25.0998C42.1754 24.5998 42.5754 24.2998 43.0754 24.3998C43.5754 24.4998 43.8754 24.8998 43.7754 25.3998C43.6754 25.8998 43.2754 26.1998 42.7754 26.0998C42.2754 25.9998 41.9754 25.4998 42.0754 25.0998ZM39.9754 21.4998C40.0754 20.9998 40.4754 20.6998 40.9754 20.7998C41.4754 20.8998 41.7754 21.2998 41.6754 21.7998C41.5754 22.2998 41.1754 22.5998 40.6754 22.4998C40.1754 22.3998 39.8754 21.8998 39.9754 21.4998ZM37.7754 17.8998C37.8754 17.3998 38.2754 17.0998 38.7754 17.0998C39.2754 17.1998 39.5754 17.5998 39.5754 18.0998C39.4754 18.5998 39.0754 18.8998 38.5754 18.8998C38.0754 18.7998 37.7754 18.2998 37.7754 17.8998ZM35.6754 14.1998C35.6754 13.6998 36.1754 13.3998 36.5754 13.3998C37.0754 13.3998 37.3754 13.8998 37.3754 14.2998C37.3754 14.7998 36.8754 15.0998 36.4754 15.0998C36.0754 15.0998 35.6754 14.6998 35.6754 14.1998ZM33.5754 10.5998C33.5754 10.0998 33.9754 9.6998 34.4754 9.7998C34.9754 9.7998 35.3754 10.1998 35.2754 10.6998C35.2754 11.1998 34.8754 11.5998 34.3754 11.4998C33.9754 11.4998 33.5754 11.0998 33.5754 10.5998ZM32.3754 6.0998C32.5754 6.0998 32.6754 6.1998 32.8754 6.2998C33.0754 6.4998 33.2754 6.6998 33.2754 6.9998C33.2754 7.4998 32.8754 7.89981 32.3754 7.89981V6.0998ZM62.4754 55.2998C62.6754 55.4998 62.6754 55.7998 62.5754 56.0998L61.3754 55.3998C61.5754 55.0998 61.9754 54.9998 62.2754 55.1998C62.3754 55.1998 62.4754 55.1998 62.4754 55.2998ZM60.4754 52.3998C60.2754 52.6998 59.8754 52.7998 59.5754 52.6998C59.2754 52.4998 59.1754 52.0998 59.2754 51.7998C59.4754 51.4998 59.8754 51.3998 60.1754 51.4998C60.4754 51.6998 60.6754 52.0998 60.4754 52.3998ZM58.3754 48.6998C58.1754 48.9998 57.8754 49.1998 57.4754 48.9998C57.1754 48.7998 56.9754 48.4998 57.1754 48.0998C57.3754 47.7998 57.6754 47.5998 58.0754 47.7998C58.3754 47.9998 58.4754 48.3998 58.3754 48.6998ZM56.2754 44.9998C56.1754 45.2998 55.7754 45.4998 55.3754 45.2998C55.0754 45.1998 54.8754 44.7998 55.0754 44.3998C55.1754 44.0998 55.5754 43.8998 55.9754 44.0998C56.2754 44.2998 56.3754 44.6998 56.2754 44.9998ZM53.7754 40.4998C54.0754 40.5998 54.2754 40.9998 54.1754 41.2998C54.0754 41.5998 53.6754 41.7998 53.3754 41.6998C53.0754 41.5998 52.8754 41.1998 52.9754 40.8998C53.0754 40.4998 53.4754 40.2998 53.7754 40.4998ZM51.1754 37.9998C50.8754 37.8998 50.6754 37.4998 50.7754 37.1998C50.8754 36.8998 51.2754 36.6998 51.5754 36.7998C51.8754 36.8998 52.0754 37.2998 51.9754 37.5998C51.8754 37.8998 51.5754 38.0998 51.1754 37.9998ZM48.6754 33.4998C48.7754 33.1998 49.1754 32.9998 49.4754 33.0998C49.7754 33.1998 49.9754 33.5998 49.8754 33.8998C49.7754 34.1998 49.3754 34.3998 49.0754 34.2998C48.7754 34.1998 48.5754 33.8998 48.6754 33.4998ZM46.5754 29.8998C46.6754 29.5998 46.9754 29.3998 47.3754 29.3998C47.6754 29.4998 47.8754 29.7998 47.8754 30.1998C47.7754 30.4998 47.4754 30.6998 47.0754 30.6998C46.6754 30.5998 46.4754 30.1998 46.5754 29.8998ZM44.4754 26.1998C44.5754 25.8998 44.8754 25.5998 45.2754 25.6998C45.5754 25.7998 45.8754 26.0998 45.7754 26.4998C45.6754 26.7998 45.3754 27.0998 44.9754 26.9998C44.5754 26.8998 44.3754 26.5998 44.4754 26.1998ZM42.3754 22.5998C42.4754 22.2998 42.7754 21.9998 43.0754 22.0998C43.3754 22.1998 43.6754 22.4998 43.5754 22.7998C43.4754 23.0998 43.1754 23.3998 42.8754 23.2998C42.4754 23.2998 42.2754 22.8998 42.3754 22.5998ZM40.1754 18.9998C40.2754 18.5998 40.5754 18.3998 40.8754 18.4998C41.2754 18.5998 41.4754 18.8998 41.3754 19.1998C41.2754 19.5998 40.9754 19.7998 40.6754 19.6998C40.3754 19.5998 40.1754 19.2998 40.1754 18.9998ZM38.0754 15.2998C38.0754 14.8998 38.4754 14.6998 38.7754 14.6998C39.1754 14.6998 39.3754 15.0998 39.3754 15.3998C39.3754 15.7998 38.9754 15.9998 38.6754 15.9998C38.2754 15.9998 38.0754 15.6998 38.0754 15.2998ZM35.9754 11.6998C35.9754 11.2998 36.2754 11.0998 36.6754 11.0998C37.0754 11.0998 37.2754 11.3998 37.2754 11.7998C37.2754 12.1998 36.9754 12.3998 36.5754 12.3998C36.1754 12.2998 35.8754 11.9998 35.9754 11.6998ZM33.8754 7.9998C33.8754 7.5998 34.1754 7.39981 34.5754 7.39981C34.9754 7.39981 35.1754 7.6998 35.1754 8.0998C35.1754 8.4998 34.8754 8.6998 34.4754 8.6998C34.0754 8.6998 33.7754 8.3998 33.8754 7.9998ZM32.3754 3.6998C32.7754 3.6998 32.9754 3.9998 32.9754 4.3998C32.9754 4.4998 32.9754 4.69981 32.8754 4.7998C32.7754 4.8998 32.5754 4.9998 32.3754 4.9998V3.6998ZM64.6754 57.2998L63.8754 56.8998C63.9754 56.6998 64.2754 56.5998 64.4754 56.6998C64.5754 56.6998 64.5754 56.7998 64.6754 56.7998C64.7754 56.9998 64.7754 57.0998 64.6754 57.2998ZM62.5754 53.5998C62.4754 53.7998 62.1754 53.8998 61.9754 53.7998C61.7754 53.6998 61.6754 53.3998 61.7754 53.1998C61.8754 52.9998 62.1754 52.8998 62.3754 52.9998C62.5754 53.0998 62.6754 53.3998 62.5754 53.5998ZM60.4754 49.8998C60.3754 50.0998 60.0754 50.1998 59.8754 50.0998C59.6754 49.9998 59.5754 49.6998 59.6754 49.4998C59.7754 49.2998 60.0754 49.1998 60.2754 49.2998C60.4754 49.3998 60.5754 49.6998 60.4754 49.8998ZM58.2754 46.1998C58.1754 46.3998 57.8754 46.4998 57.6754 46.3998C57.4754 46.2998 57.3754 45.9998 57.4754 45.7998C57.5754 45.5998 57.8754 45.4998 58.0754 45.5998C58.2754 45.6998 58.3754 45.8998 58.2754 46.1998ZM56.1754 42.4998C56.0754 42.6998 55.8754 42.7998 55.5754 42.6998C55.3754 42.5998 55.2754 42.3998 55.3754 42.0998C55.4754 41.8998 55.6754 41.7998 55.9754 41.8998C56.1754 41.9998 56.2754 42.1998 56.1754 42.4998ZM53.4754 38.9998C53.2754 38.8998 53.1754 38.6998 53.1754 38.4998C53.2754 38.2998 53.4754 38.1998 53.6754 38.1998C53.8754 38.2998 53.9754 38.4998 53.9754 38.6998C53.9754 38.9998 53.7754 39.0998 53.4754 38.9998ZM51.3754 35.2998C51.1754 35.1998 51.0754 34.9998 51.0754 34.7998C51.1754 34.5998 51.3754 34.4998 51.5754 34.4998C51.7754 34.5998 51.8754 34.7998 51.8754 34.9998C51.8754 35.2998 51.5754 35.3998 51.3754 35.2998ZM48.9754 31.0998C49.0754 30.8998 49.2754 30.6998 49.4754 30.7998C49.6754 30.8998 49.8754 31.0998 49.7754 31.2998C49.6754 31.4998 49.4754 31.6998 49.2754 31.5998C49.0754 31.5998 48.9754 31.2998 48.9754 31.0998ZM46.8754 27.4998C46.9754 27.2998 47.1754 27.0998 47.3754 27.1998C47.5754 27.2998 47.7754 27.4998 47.6754 27.6998C47.5754 27.8998 47.3754 28.0998 47.1754 27.9998C46.9754 27.8998 46.7754 27.6998 46.8754 27.4998ZM44.7754 23.7998C44.7754 23.5998 45.0754 23.3998 45.2754 23.4998C45.4754 23.4998 45.6754 23.7998 45.5754 23.9998C45.5754 24.1998 45.2754 24.3998 45.0754 24.2998C44.7754 24.1998 44.6754 23.9998 44.7754 23.7998ZM42.5754 20.0998C42.5754 19.8998 42.8754 19.6998 43.0754 19.7998C43.2754 19.7998 43.4754 20.0998 43.3754 20.2998C43.3754 20.4998 43.0754 20.6998 42.8754 20.5998C42.6754 20.5998 42.5754 20.2998 42.5754 20.0998ZM40.4754 16.3998C40.4754 16.1998 40.6754 15.9998 40.9754 15.9998C41.1754 15.9998 41.3754 16.1998 41.3754 16.4998C41.3754 16.6998 41.1754 16.8998 40.8754 16.8998C40.5754 16.8998 40.4754 16.6998 40.4754 16.3998ZM38.2754 12.7998C38.2754 12.5998 38.4754 12.3998 38.7754 12.3998C38.9754 12.3998 39.1754 12.5998 39.1754 12.8998C39.1754 13.0998 38.9754 13.2998 38.6754 13.2998C38.4754 13.1998 38.2754 12.9998 38.2754 12.7998ZM36.1754 9.0998C36.1754 8.89981 36.3754 8.6998 36.6754 8.6998C36.8754 8.6998 37.0754 8.8998 37.0754 9.1998C37.0754 9.3998 36.8754 9.5998 36.5754 9.5998C36.3754 9.4998 36.1754 9.2998 36.1754 9.0998ZM34.0754 5.39981C34.0754 5.19981 34.2754 4.9998 34.5754 4.9998C34.7754 4.9998 34.9754 5.19981 34.9754 5.39981C34.9754 5.5998 34.7754 5.7998 34.4754 5.7998C34.2754 5.8998 34.0754 5.69981 34.0754 5.39981ZM32.3754 1.2998C32.4754 1.2998 32.6754 1.3998 32.7754 1.4998C32.7754 1.5998 32.8754 1.5998 32.8754 1.6998C32.8754 1.8998 32.6754 2.0998 32.4754 2.0998V1.2998H32.3754ZM53.3754 49.4998C53.8754 49.7998 54.0754 50.3998 53.7754 50.8998V50.9998L51.9754 49.9998C52.1754 49.6998 52.4754 49.4998 52.7754 49.4998C52.9754 49.3998 53.1754 49.3998 53.3754 49.4998ZM51.7754 47.3998C52.0754 46.8998 51.8754 46.2998 51.2754 45.9998C50.7754 45.6998 50.1754 45.8998 49.8754 46.4998C49.5754 46.9998 49.7754 47.5998 50.3754 47.8998C50.8754 48.0998 51.4754 47.8998 51.7754 47.3998ZM49.7754 43.7998C49.5754 44.2998 48.9754 44.5998 48.3754 44.2998C47.8754 44.0998 47.5754 43.4998 47.8754 42.8998C48.0754 42.3998 48.6754 42.0998 49.2754 42.3998C49.7754 42.5998 49.9754 43.2998 49.7754 43.7998ZM47.0754 38.7998C47.5754 38.9998 47.8754 39.5998 47.6754 40.0998C47.4754 40.5998 46.8754 40.8998 46.3754 40.6998C45.8754 40.4998 45.5754 39.8998 45.7754 39.3998C45.9754 38.8998 46.5754 38.5998 47.0754 38.7998ZM44.3754 37.1998C43.8754 36.9998 43.5754 36.3998 43.6754 35.8998C43.8754 35.3998 44.4754 35.0998 44.9754 35.1998C45.4754 35.3998 45.7754 35.9998 45.6754 36.4998C45.4754 37.0998 44.8754 37.3998 44.3754 37.1998ZM41.6754 32.3998C41.7754 31.8998 42.3754 31.4998 42.9754 31.6998C43.4754 31.7998 43.8754 32.3998 43.6754 32.9998C43.5754 33.4998 42.9754 33.8998 42.3754 33.6998C41.7754 33.4998 41.4754 32.9998 41.6754 32.3998ZM39.5754 28.8998C39.6754 28.2998 40.2754 27.9998 40.7754 28.0998C41.3754 28.1998 41.6754 28.7998 41.5754 29.2998C41.4754 29.8998 40.8754 30.1998 40.3754 30.0998C39.7754 29.9998 39.4754 29.4998 39.5754 28.8998ZM39.5754 25.6998C39.4754 26.2998 38.9754 26.5998 38.3754 26.5998C37.7754 26.4998 37.4754 25.9998 37.4754 25.3998C37.5754 24.7998 38.0754 24.4998 38.6754 24.4998C39.2754 24.6998 39.6754 25.1998 39.5754 25.6998ZM36.3754 23.0998C35.7754 22.9998 35.3754 22.4998 35.4754 21.9998C35.5754 21.3998 36.0754 20.9998 36.5754 21.0998C37.1754 21.1998 37.5754 21.6998 37.4754 22.1998C37.4754 22.6998 36.9754 23.0998 36.3754 23.0998ZM34.3754 19.4998C34.9754 19.4998 35.4754 19.0998 35.4754 18.4998C35.4754 17.8998 35.0754 17.3998 34.4754 17.3998C33.8754 17.3998 33.3754 17.7998 33.3754 18.3998C33.3754 18.9998 33.7754 19.4998 34.3754 19.4998ZM32.3754 13.8998C32.8754 13.8998 33.2754 14.1998 33.3754 14.5998C33.3754 14.6998 33.3754 14.7998 33.3754 14.8998C33.3754 15.4998 32.8754 15.9998 32.3754 15.9998V13.8998ZM41.4754 34.2998C41.2754 34.8998 40.6754 35.2998 40.0754 35.0998C39.4754 34.8998 39.0754 34.2998 39.2754 33.6998C39.4754 33.0998 40.0754 32.6998 40.6754 32.8998C41.2754 33.0998 41.5754 33.6998 41.4754 34.2998ZM46.9754 41.0998C47.5754 41.2998 47.7754 41.9998 47.5754 42.4998C47.3754 43.0998 46.6754 43.2998 46.1754 43.0998C45.5754 42.8998 45.3754 42.1998 45.5754 41.6998C45.7754 41.0998 46.4754 40.8998 46.9754 41.0998ZM43.4754 38.1998C43.6754 37.5998 44.2754 37.2998 44.8754 37.5998C45.4754 37.7998 45.7754 38.3998 45.4754 38.9998C45.2754 39.5998 44.6754 39.8998 44.0754 39.5998C43.5754 39.3998 43.2754 38.7998 43.4754 38.1998ZM43.5754 35.3998C43.3754 35.9998 42.7754 36.2998 42.2754 36.0998C41.6754 35.8998 41.3754 35.2998 41.5754 34.7998C41.7754 34.1998 42.3754 33.8998 42.8754 34.0998C43.3754 34.1998 43.6754 34.7998 43.5754 35.3998ZM39.3754 31.2998C39.4754 30.6998 40.0754 30.3998 40.6754 30.4998C41.2754 30.5998 41.5754 31.1998 41.4754 31.7998C41.3754 32.3998 40.7754 32.6998 40.1754 32.5998C39.6754 32.4998 39.2754 31.8998 39.3754 31.2998ZM37.3754 27.8998C37.4754 27.2998 38.0754 26.8998 38.6754 26.9998C39.2754 27.0998 39.6754 27.6998 39.5754 28.2998C39.4754 28.8998 38.8754 29.2998 38.2754 29.1998C37.6754 28.9998 37.2754 28.4998 37.3754 27.8998ZM37.4754 24.6998C37.3754 25.2998 36.8754 25.6998 36.2754 25.6998C35.6754 25.5998 35.2754 25.0998 35.2754 24.4998C35.3754 23.8998 35.8754 23.4998 36.4754 23.4998C37.1754 23.5998 37.5754 24.0998 37.4754 24.6998ZM54.2754 51.2998C54.5754 50.7998 55.1754 50.5998 55.6754 50.8998C55.7754 50.9998 55.8754 50.9998 55.8754 51.0998C56.1754 51.3998 56.2754 51.8998 55.9754 52.2998L54.2754 51.2998ZM53.9754 48.5998C53.6754 49.0998 53.1754 49.2998 52.6754 48.9998C52.1754 48.6998 51.9754 48.1998 52.2754 47.6998C52.5754 47.1998 53.0754 46.9998 53.5754 47.2998C54.0754 47.5998 54.2754 48.1998 53.9754 48.5998ZM51.8754 44.9998C51.6754 45.4998 51.0754 45.6998 50.5754 45.4998C50.0754 45.2998 49.8754 44.6998 50.0754 44.1998C50.2754 43.6998 50.8754 43.4998 51.3754 43.6998C51.9754 43.8998 52.1754 44.4998 51.8754 44.9998ZM49.2754 40.0998C49.7754 40.2998 49.9754 40.8998 49.7754 41.3998C49.5754 41.8998 48.9754 42.0998 48.4754 41.8998C47.9754 41.6998 47.7754 41.0998 47.9754 40.5998C48.2754 40.0998 48.7754 39.8998 49.2754 40.0998ZM46.5754 38.2998C47.0754 38.4998 47.6754 38.1998 47.7754 37.6998C47.9754 37.1998 47.6754 36.5998 47.1754 36.4998C46.6754 36.2998 46.0754 36.5998 45.9754 37.0998C45.7754 37.5998 46.0754 38.1998 46.5754 38.2998ZM43.8754 33.5998C44.0754 33.0998 44.5754 32.7998 45.0754 32.8998C45.5754 33.0998 45.8754 33.5998 45.7754 34.0998C45.5754 34.5998 45.0754 34.8998 44.5754 34.7998C43.9754 34.5998 43.7754 34.0998 43.8754 33.5998ZM41.7754 29.9998C41.8754 29.4998 42.3754 29.1998 42.9754 29.2998C43.4754 29.3998 43.7754 29.8998 43.6754 30.4998C43.5754 30.9998 43.0754 31.2998 42.4754 31.1998C41.9754 31.0998 41.6754 30.4998 41.7754 29.9998ZM39.6754 26.4998C39.7754 25.9998 40.2754 25.5998 40.7754 25.6998C41.2754 25.7998 41.6754 26.2998 41.5754 26.7998C41.4754 27.2998 40.9754 27.6998 40.4754 27.5998C39.9754 27.4998 39.5754 26.9998 39.6754 26.4998ZM37.5754 22.8998C37.4754 23.3998 37.8754 23.8998 38.3754 23.9998C38.8754 24.0998 39.3754 23.6998 39.4754 23.1998C39.5754 22.6998 39.1754 22.1998 38.6754 22.0998C38.1754 21.9998 37.6754 22.3998 37.5754 22.8998ZM35.5754 19.3998C35.6754 18.8998 36.0754 18.4998 36.6754 18.4998C37.1754 18.5998 37.5754 18.9998 37.5754 19.5998C37.4754 20.0998 37.0754 20.4998 36.4754 20.4998C35.8754 20.3998 35.4754 19.8998 35.5754 19.3998ZM34.3754 16.8998C34.8754 16.8998 35.3754 16.4998 35.3754 15.9998C35.3754 15.4998 34.9754 14.9998 34.4754 14.9998C33.9754 14.9998 33.4754 15.3998 33.4754 15.8998C33.3754 16.3998 33.8754 16.7998 34.3754 16.8998ZM32.3754 11.2998C32.8754 11.2998 33.3754 11.7998 33.3754 12.2998C33.3754 12.3998 33.3754 12.5998 33.2754 12.6998C33.0754 12.9998 32.7754 13.2998 32.3754 13.2998V11.2998ZM33.4754 17.4998C33.4754 17.6998 33.4754 17.7998 33.3754 17.8998C33.1754 18.2998 32.7754 18.5998 32.3754 18.5998V16.3998C32.9754 16.3998 33.4754 16.8998 33.4754 17.4998ZM32.3754 38.6998L47.1754 48.3998L32.3754 38.6998ZM45.4754 47.6998C45.5754 47.9998 45.4754 48.2998 45.2754 48.5998C44.8754 49.0998 44.1754 49.2998 43.6754 48.8998C43.1754 48.4998 42.9754 47.7998 43.3754 47.2998C43.6754 46.7998 44.3754 46.6998 44.8754 46.8998C44.8754 46.7998 44.8754 46.6998 44.8754 46.5998C44.8754 46.3998 44.9754 46.0998 45.0754 45.9998L47.1754 47.1998C46.9754 47.5998 46.5754 47.7998 46.0754 47.7998C45.7754 47.7998 45.5754 47.7998 45.4754 47.6998ZM47.2754 47.2998C47.1754 47.4998 47.0754 47.6998 47.0754 47.8998C47.0754 48.5998 47.5754 49.0998 48.2754 49.0998C48.6754 49.0998 49.0754 48.8998 49.2754 48.4998L47.2754 47.2998Z" fill="#5BA43A"/>
<path fill-rule="evenodd" clip-rule="evenodd" d="M17.3754 47.2998C17.4754 47.4998 17.4754 47.6998 17.4754 47.8998C17.4754 48.5998 16.9754 49.0998 16.2754 49.0998C15.8754 49.0998 15.4754 48.8998 15.2754 48.4998L17.3754 47.2998Z" fill="#4DA448"/>
<path fill-rule="evenodd" clip-rule="evenodd" d="M19.8742 46.8004C20.3742 46.6004 20.9742 46.7004 21.3742 47.2004C21.7742 47.7004 21.5742 48.5004 21.0742 48.8004C20.5742 49.2004 19.7742 49.0004 19.4742 48.5004C19.2742 48.2004 19.2742 47.9004 19.2742 47.6004C19.0742 47.7004 18.8742 47.7004 18.6742 47.7004C18.1742 47.7004 17.7742 47.5004 17.5742 47.1004L19.6742 45.9004C19.7742 46.1004 19.8742 46.3004 19.8742 46.5004C19.8742 46.7004 19.8742 46.7004 19.8742 46.8004Z" fill="#4DA448"/>
<path fill-rule="evenodd" clip-rule="evenodd" d="M18.2758 47.7002C17.9758 47.6002 17.7758 47.4002 17.6758 47.2002C17.7758 47.4002 17.9758 47.6002 18.2758 47.7002Z" fill="#4DA448"/>
<path d="M32.3754 48.9998C32.9829 48.9998 33.4754 48.5073 33.4754 47.8998C33.4754 47.2923 32.9829 46.7998 32.3754 46.7998C31.7679 46.7998 31.2754 47.2923 31.2754 47.8998C31.2754 48.5073 31.7679 48.9998 32.3754 48.9998Z" fill="#4DA448"/>
<path fill-rule="evenodd" clip-rule="evenodd" d="M22.175 44.8998C22.275 45.0998 22.275 45.2998 22.175 45.3998V45.2998C22.275 45.0998 22.175 44.9998 22.175 44.8998ZM32.375 38.6998V24.1998C31.875 24.1998 31.475 24.3998 31.175 24.8998C31.075 24.9998 31.075 25.1998 30.975 25.2998C30.775 25.1998 30.475 25.0998 30.175 25.0998C29.475 25.0998 28.975 25.6998 29.075 26.3998C28.875 26.0998 28.475 25.9998 28.075 26.0998C27.475 26.1998 26.975 26.7998 27.075 27.3998C27.175 27.9998 27.775 28.4998 28.375 28.3998C28.975 28.2998 29.375 27.7998 29.375 27.1998C29.575 27.4998 29.975 27.5998 30.375 27.5998C30.875 27.5998 31.375 27.1998 31.475 26.6998L31.575 26.7998C31.675 26.8998 31.875 26.8998 31.975 26.9998C31.475 27.0998 31.075 27.4998 30.975 27.8998C30.775 27.7998 30.475 27.6998 30.175 27.6998C29.575 27.7998 29.075 28.2998 28.975 28.8998C28.675 28.6998 28.375 28.5998 28.075 28.6998C27.375 28.7998 26.975 29.3998 27.075 30.0998V30.1998C26.775 29.8998 26.375 29.6998 25.975 29.7998C25.375 29.8998 24.975 30.4998 25.075 31.0998C25.175 31.6998 25.775 32.0998 26.375 31.9998C26.975 31.8998 27.375 31.2998 27.275 30.6998C27.475 30.9998 27.875 31.1998 28.175 31.1998C28.175 31.1998 28.175 31.1998 28.075 31.1998C27.475 31.2998 26.975 31.8998 27.075 32.4998C26.775 32.1998 26.375 32.0998 25.975 32.1998C25.375 32.2998 24.975 32.9998 25.075 33.5998C25.175 34.0998 25.575 34.3998 25.975 34.4998C25.375 34.6998 25.075 35.2998 25.175 35.8998C24.875 35.5998 24.375 35.3998 23.975 35.5998C23.375 35.7998 22.975 36.4998 23.175 37.0998C23.275 37.4998 23.575 37.7998 23.975 37.8998C23.375 38.1998 23.175 38.7998 23.375 39.3998C23.375 39.3998 23.375 39.3998 23.375 39.4998C23.175 39.1998 22.875 38.9998 22.475 38.8998C23.075 38.6998 23.375 37.9998 23.175 37.4998C22.975 36.8998 22.275 36.5998 21.775 36.7998C21.175 36.9998 20.875 37.6998 21.075 38.1998C21.175 38.5998 21.575 38.8998 21.975 38.9998H21.875C21.275 39.1998 20.975 39.8998 21.175 40.5998C21.275 40.8998 21.575 41.1998 21.875 41.2998C21.375 41.5998 21.175 42.2998 21.475 42.8998C21.575 43.0998 21.775 43.2998 21.875 43.3998C21.575 43.7998 21.475 44.2998 21.675 44.7998C21.575 44.6998 21.475 44.5998 21.375 44.5998C21.375 44.5998 21.275 44.5998 21.275 44.4998C21.675 44.0998 21.775 43.5998 21.575 43.0998C21.375 42.7998 21.075 42.4998 20.775 42.3998C21.275 42.0998 21.575 41.4998 21.275 40.8998C21.075 40.2998 20.375 39.9998 19.775 40.2998C19.175 40.4998 18.875 41.1998 19.175 41.7998C19.275 42.0998 19.575 42.3998 19.975 42.4998C19.375 42.7998 19.075 43.4998 19.375 44.0998C19.475 44.3998 19.675 44.4998 19.975 44.6998C19.875 44.7998 19.775 44.8998 19.675 44.9998C19.475 45.3998 19.475 45.8998 19.675 46.2998L32.375 38.6998ZM32.675 26.6998C32.975 26.7998 33.275 26.8998 33.575 27.1998V27.3998C33.275 27.0998 32.975 26.7998 32.675 26.6998C32.775 26.6998 32.875 26.5998 33.075 26.4998L33.175 26.3998C32.975 26.5998 32.875 26.6998 32.675 26.6998ZM16.575 46.6998C17.175 46.3998 17.475 45.6998 17.175 45.1998C16.875 44.6998 16.275 44.3998 15.675 44.6998C15.175 44.9998 14.875 45.5998 15.175 46.1998C15.375 46.4998 15.675 46.6998 15.975 46.7998L16.575 46.6998ZM17.975 45.4998C17.675 45.3998 17.475 45.1998 17.275 44.8998C16.975 44.2998 17.275 43.5998 17.775 43.2998C18.375 42.9998 19.075 43.1998 19.375 43.7998C19.675 44.2998 19.475 44.9998 18.975 45.2998C19.075 45.2998 19.175 45.3998 19.275 45.3998C19.775 45.6998 19.975 46.1998 19.875 46.7998C19.875 46.6998 19.875 46.5998 19.875 46.4998C19.875 46.2998 19.775 46.0998 19.675 45.8998L17.575 47.0998C17.375 46.6998 17.275 46.1998 17.575 45.7998C17.675 45.6998 17.875 45.5998 17.975 45.4998ZM17.475 48.2998C17.375 48.3998 17.275 48.5998 17.175 48.6998C17.375 48.4998 17.475 48.1998 17.475 47.8998C17.475 47.6998 17.375 47.4998 17.375 47.2998L15.375 48.4998C15.175 48.0998 15.175 47.6998 15.375 47.2998C15.675 46.6998 16.375 46.4998 16.975 46.8998C17.475 47.0998 17.675 47.7998 17.475 48.2998ZM31.375 20.8998C31.375 20.9998 31.375 20.9998 31.375 20.8998C31.375 21.5998 30.975 22.0998 30.375 22.1998C29.775 22.1998 29.275 21.7998 29.175 21.1998C29.175 20.5998 29.575 20.0998 30.175 19.9998C30.575 19.9998 30.875 20.0998 31.075 20.3998C31.175 20.5998 31.275 20.7998 31.375 20.8998ZM33.275 20.8998C33.375 20.7998 33.375 20.6998 33.475 20.5998C33.375 20.7998 33.175 21.0998 32.975 21.1998C32.775 21.2998 32.575 21.3998 32.375 21.3998V19.0998C31.975 19.0998 31.575 19.2998 31.275 19.6998C30.975 20.2998 31.175 20.9998 31.675 21.2998C32.275 21.4998 32.975 21.3998 33.275 20.8998ZM31.575 21.8998C31.775 21.6998 32.075 21.5998 32.375 21.5998V24.0998C32.575 24.0998 32.775 23.9998 32.975 23.8998C33.075 23.8998 33.175 23.7998 33.175 23.6998C32.775 24.0998 32.175 24.1998 31.675 23.8998C31.575 23.8998 31.475 23.7998 31.475 23.6998C31.475 24.2998 30.975 24.6998 30.375 24.7998C29.775 24.7998 29.175 24.3998 29.175 23.6998C29.175 23.0998 29.575 22.4998 30.275 22.4998C30.575 22.4998 30.875 22.5998 31.075 22.7998C31.075 22.5998 31.175 22.3998 31.275 22.1998C31.475 21.7998 31.975 21.5998 32.375 21.5998C32.075 21.5998 31.775 21.6998 31.575 21.8998ZM13.875 48.0998C13.775 48.0998 13.675 48.1998 13.575 48.1998C13.475 48.1998 13.475 48.2998 13.375 48.2998C13.175 48.4998 12.975 48.7998 12.975 49.1998C12.975 49.3998 13.075 49.4998 13.075 49.6998L14.975 48.5998C15.175 48.8998 15.175 49.2998 14.975 49.6998C15.175 49.3998 15.175 48.8998 14.975 48.5998C14.975 48.5998 14.975 48.4998 14.875 48.4998C14.775 48.1998 14.275 47.9998 13.875 48.0998ZM6.575 52.4998C6.275 52.7998 6.275 53.1998 6.475 53.5998L8.075 52.6998C8.175 52.9998 8.275 53.1998 8.175 53.4998C8.175 53.4998 8.175 53.5998 8.075 53.5998C8.175 53.4998 8.175 53.3998 8.175 53.2998C8.175 53.0998 8.175 52.8998 8.075 52.6998C7.775 52.1998 7.275 52.0998 6.775 52.3998C6.675 52.3998 6.675 52.3998 6.575 52.4998ZM8.575 49.8998C8.775 50.3998 9.375 50.4998 9.875 50.2998C10.375 50.0998 10.475 49.4998 10.275 48.9998C10.075 48.4998 9.475 48.3998 8.975 48.5998C8.475 48.8998 8.275 49.4998 8.575 49.8998ZM10.575 46.2998C10.775 46.7998 11.375 46.9998 11.775 46.6998C12.275 46.4998 12.475 45.8998 12.175 45.4998C11.975 44.9998 11.375 44.7998 10.975 45.0998C10.575 45.2998 10.375 45.7998 10.575 46.2998ZM13.175 41.3998C12.675 41.5998 12.475 42.0998 12.675 42.5998C12.875 43.0998 13.375 43.2998 13.875 43.0998C14.375 42.8998 14.575 42.3998 14.375 41.8998C14.175 41.3998 13.675 41.1998 13.175 41.3998ZM15.975 39.4998C16.475 39.2998 16.675 38.7998 16.475 38.2998C16.275 37.7998 15.775 37.5998 15.275 37.7998C14.775 37.9998 14.575 38.4998 14.775 38.9998C14.975 39.3998 15.475 39.6998 15.975 39.4998ZM18.575 34.6998C18.375 34.1998 17.875 33.9998 17.475 34.0998C16.975 34.2998 16.775 34.7998 16.875 35.1998C17.075 35.6998 17.575 35.8998 17.975 35.7998C18.475 35.6998 18.775 35.1998 18.575 34.6998ZM20.675 31.1998C20.775 31.6998 20.475 32.1998 20.075 32.2998C19.575 32.3998 19.075 32.0998 18.975 31.6998C18.875 31.1998 19.175 30.6998 19.575 30.5998C20.075 30.3998 20.575 30.6998 20.675 31.1998ZM22.775 27.5998C22.875 28.0998 22.575 28.5998 22.075 28.6998C21.575 28.7998 21.075 28.4998 20.975 27.9998C20.875 27.4998 21.175 26.9998 21.675 26.8998C22.175 26.7998 22.675 27.0998 22.775 27.5998ZM24.875 23.9998C24.975 24.4998 24.675 24.9998 24.175 25.0998C23.675 25.1998 23.175 24.8998 23.075 24.3998C22.975 23.8998 23.275 23.3998 23.775 23.2998C24.375 23.1998 24.775 23.4998 24.875 23.9998ZM26.975 20.3998C26.875 19.8998 26.475 19.4998 25.975 19.5998C25.475 19.6998 25.075 20.0998 25.175 20.5998C25.275 21.0998 25.675 21.4998 26.175 21.3998C26.675 21.3998 27.075 20.8998 26.975 20.3998ZM29.075 16.7998C29.075 16.2998 28.575 15.8998 28.075 15.9998C27.575 15.9998 27.175 16.4998 27.275 16.9998C27.275 17.4998 27.775 17.8998 28.275 17.7998C28.775 17.7998 29.175 17.2998 29.075 16.7998ZM31.175 13.2998C31.175 12.7998 30.675 12.3998 30.175 12.3998C29.675 12.3998 29.275 12.8998 29.275 13.3998C29.275 13.8998 29.775 14.2998 30.275 14.2998C30.775 14.1998 31.175 13.7998 31.175 13.2998ZM32.375 10.5998C32.775 10.5998 33.075 10.3998 33.175 10.0998C33.175 10.0998 33.175 10.1998 33.075 10.1998C32.875 10.4998 32.675 10.5998 32.375 10.5998V8.6998C31.875 8.6998 31.475 9.0998 31.475 9.5998C31.475 9.7998 31.575 9.9998 31.675 10.1998C31.775 10.4998 32.075 10.5998 32.375 10.5998ZM4.375 53.7998C4.075 54.0998 4.075 54.4998 4.275 54.7998L5.775 53.9998C5.875 54.2998 5.875 54.5998 5.775 54.7998C5.975 54.4998 5.975 54.1998 5.775 53.8998C5.575 53.4998 4.975 53.2998 4.575 53.5998C4.475 53.6998 4.375 53.7998 4.375 53.7998ZM6.275 51.1998C6.475 51.5998 7.075 51.7998 7.475 51.5998C7.875 51.3998 8.075 50.7998 7.875 50.3998C7.675 49.9998 7.075 49.7998 6.675 49.9998C6.275 50.1998 6.075 50.7998 6.275 51.1998ZM8.375 47.4998C8.575 47.8998 9.075 48.0998 9.575 47.8998C9.975 47.6998 10.175 47.1998 9.975 46.6998C9.775 46.2998 9.275 46.0998 8.775 46.2998C8.375 46.5998 8.175 47.0998 8.375 47.4998ZM10.475 43.7998C10.675 44.1998 11.175 44.3998 11.575 44.2998C11.975 44.0998 12.175 43.5998 12.075 43.1998C11.875 42.7998 11.375 42.5998 10.975 42.6998C10.475 42.8998 10.275 43.3998 10.475 43.7998ZM13.075 39.0998C12.675 39.2998 12.375 39.7998 12.575 40.1998C12.775 40.5998 13.275 40.8998 13.675 40.6998C14.075 40.4998 14.375 39.9998 14.175 39.5998C14.075 39.0998 13.575 38.8998 13.075 39.0998ZM15.775 36.9998C16.175 36.7998 16.475 36.3998 16.275 35.8998C16.075 35.4998 15.675 35.1998 15.175 35.3998C14.775 35.5998 14.475 35.9998 14.675 36.4998C14.875 36.8998 15.375 37.1998 15.775 36.9998ZM18.475 32.2998C18.375 31.7998 17.875 31.5998 17.375 31.6998C16.875 31.7998 16.675 32.2998 16.775 32.7998C16.875 33.2998 17.375 33.4998 17.875 33.3998C18.275 33.2998 18.575 32.7998 18.475 32.2998ZM20.575 28.6998C20.675 29.1998 20.375 29.5998 19.975 29.6998C19.475 29.7998 19.075 29.4998 18.975 29.0998C18.875 28.5998 19.175 28.1998 19.575 28.0998C19.975 27.9998 20.475 28.2998 20.575 28.6998ZM22.675 25.0998C22.775 25.5998 22.475 25.9998 21.975 26.0998C21.475 26.1998 21.075 25.8998 20.975 25.3998C20.875 24.8998 21.175 24.4998 21.675 24.3998C22.075 24.2998 22.575 24.5998 22.675 25.0998ZM24.775 21.4998C24.675 20.9998 24.275 20.6998 23.775 20.7998C23.275 20.8998 22.975 21.2998 23.075 21.7998C23.175 22.2998 23.575 22.5998 24.075 22.4998C24.575 22.3998 24.875 21.9998 24.775 21.4998ZM26.875 17.8998C26.775 17.3998 26.375 17.0998 25.875 17.0998C25.375 17.1998 25.075 17.5998 25.075 18.0998C25.175 18.5998 25.575 18.8998 26.075 18.8998C26.575 18.7998 26.975 18.3998 26.875 17.8998ZM28.975 14.2998C28.975 13.7998 28.475 13.4998 28.075 13.4998C27.575 13.4998 27.275 13.9998 27.275 14.3998C27.275 14.8998 27.775 15.1998 28.175 15.1998C28.675 15.1998 29.075 14.6998 28.975 14.2998ZM31.075 10.6998C31.075 10.1998 30.675 9.7998 30.175 9.8998C29.675 9.8998 29.275 10.2998 29.375 10.7998C29.375 11.2998 29.775 11.6998 30.275 11.5998C30.775 11.4998 31.175 11.0998 31.075 10.6998ZM32.375 6.1998C32.175 6.1998 31.975 6.29981 31.875 6.39981C31.675 6.5998 31.475 6.7998 31.475 7.0998C31.475 7.5998 31.875 7.9998 32.375 7.9998C32.675 7.9998 32.975 7.7998 33.175 7.5998C32.975 7.7998 32.775 7.9998 32.475 7.9998L32.375 6.1998ZM2.175 55.2998C1.975 55.4998 1.975 55.7998 2.075 56.0998L3.175 55.3998C3.275 55.5998 3.275 55.7998 3.175 55.9998C3.175 55.8998 3.275 55.8998 3.275 55.7998C3.275 55.5998 3.275 55.4998 3.175 55.2998C2.975 54.9998 2.575 54.8998 2.275 55.0998C2.275 55.1998 2.275 55.2998 2.175 55.2998ZM4.275 52.3998C4.475 52.6998 4.875 52.7998 5.175 52.6998C5.475 52.4998 5.575 52.0998 5.475 51.7998C5.275 51.4998 4.875 51.3998 4.575 51.4998C4.175 51.6998 4.075 52.0998 4.275 52.3998ZM6.375 48.6998C6.475 48.9998 6.875 49.1998 7.175 48.9998C7.475 48.7998 7.675 48.4998 7.475 48.0998C7.275 47.7998 6.975 47.5998 6.575 47.7998C6.375 47.9998 6.175 48.3998 6.375 48.6998ZM8.475 44.9998C8.575 45.2998 8.975 45.4998 9.375 45.2998C9.675 45.1998 9.875 44.7998 9.675 44.3998C9.575 44.0998 9.175 43.8998 8.775 44.0998C8.475 44.2998 8.275 44.6998 8.475 44.9998ZM10.975 40.4998C10.675 40.5998 10.475 40.9998 10.575 41.2998C10.675 41.5998 11.075 41.7998 11.375 41.6998C11.675 41.5998 11.875 41.1998 11.775 40.8998C11.675 40.4998 11.275 40.3998 10.975 40.4998ZM13.475 37.9998C13.775 37.8998 13.975 37.4998 13.875 37.1998C13.775 36.8998 13.375 36.6998 13.075 36.7998C12.775 36.8998 12.575 37.2998 12.675 37.5998C12.775 37.9998 13.175 38.0998 13.475 37.9998ZM15.975 33.5998C15.875 33.2998 15.475 33.0998 15.175 33.1998C14.875 33.2998 14.675 33.6998 14.775 33.9998C14.875 34.2998 15.275 34.4998 15.575 34.3998C15.975 34.2998 16.075 33.8998 15.975 33.5998ZM18.175 29.8998C18.075 29.5998 17.775 29.3998 17.375 29.3998C17.075 29.4998 16.875 29.7998 16.875 30.1998C16.975 30.4998 17.275 30.6998 17.675 30.6998C18.075 30.5998 18.275 30.2998 18.175 29.8998ZM20.275 26.2998C20.375 26.5998 20.175 26.9998 19.775 27.0998C19.475 27.1998 19.075 26.9998 18.975 26.5998C18.875 26.2998 19.075 25.8998 19.475 25.7998C19.875 25.6998 20.175 25.8998 20.275 26.2998ZM22.375 22.5998C22.275 22.2998 21.975 21.9998 21.675 22.0998C21.375 22.1998 21.075 22.4998 21.175 22.7998C21.275 23.0998 21.575 23.3998 21.875 23.2998C22.275 23.2998 22.475 22.9998 22.375 22.5998ZM24.475 18.9998C24.375 18.5998 24.075 18.3998 23.775 18.4998C23.375 18.5998 23.175 18.8998 23.275 19.1998C23.375 19.5998 23.675 19.7998 23.975 19.6998C24.275 19.6998 24.575 19.2998 24.475 18.9998ZM26.675 15.2998C26.675 14.8998 26.275 14.6998 25.975 14.6998C25.575 14.6998 25.375 15.0998 25.375 15.3998C25.375 15.7998 25.775 15.9998 26.075 15.9998C26.375 15.9998 26.675 15.6998 26.675 15.2998ZM28.775 11.6998C28.775 11.2998 28.475 11.0998 28.075 11.0998C27.675 11.0998 27.475 11.3998 27.475 11.7998C27.475 12.1998 27.775 12.3998 28.175 12.3998C28.475 12.3998 28.775 12.0998 28.775 11.6998ZM30.875 8.0998C30.875 7.6998 30.575 7.4998 30.175 7.4998C29.775 7.4998 29.575 7.7998 29.575 8.1998C29.575 8.5998 29.875 8.7998 30.275 8.7998C30.575 8.6998 30.875 8.39981 30.875 8.0998ZM32.375 5.0998C32.575 5.0998 32.875 4.9998 32.975 4.7998C32.775 4.8998 32.575 4.9998 32.375 5.0998V3.7998C31.975 3.7998 31.675 4.0998 31.675 4.4998C31.675 4.5998 31.675 4.7998 31.775 4.8998C31.875 4.9998 32.075 5.0998 32.375 5.0998ZM0.075 57.2998L0.875 56.8998C0.975 56.9998 0.975 57.1998 0.875 57.2998C0.975 57.1998 0.975 56.9998 0.875 56.7998C0.775 56.5998 0.475 56.4998 0.275 56.5998C0.175 56.5998 0.175 56.6998 0.075 56.6998C-0.025 56.9998 -0.025 57.1998 0.075 57.2998ZM2.175 53.5998C2.275 53.7998 2.575 53.8998 2.775 53.7998C2.975 53.6998 3.075 53.3998 2.975 53.1998C2.775 52.9998 2.575 52.8998 2.375 52.9998C2.175 53.0998 2.075 53.3998 2.175 53.5998ZM4.275 49.8998C4.375 50.0998 4.675 50.1998 4.875 50.0998C5.075 49.9998 5.175 49.6998 5.075 49.4998C4.975 49.2998 4.675 49.1998 4.475 49.2998C4.275 49.3998 4.175 49.6998 4.275 49.8998ZM6.375 46.1998C6.475 46.3998 6.775 46.4998 6.975 46.3998C7.175 46.2998 7.275 45.9998 7.175 45.7998C7.075 45.5998 6.775 45.4998 6.575 45.5998C6.375 45.6998 6.275 45.9998 6.375 46.1998ZM8.575 42.4998C8.675 42.6998 8.875 42.7998 9.175 42.6998C9.375 42.5998 9.475 42.3998 9.375 42.0998C9.275 41.8998 9.075 41.7998 8.775 41.8998C8.575 41.9998 8.475 42.2998 8.575 42.4998ZM11.175 38.9998C11.375 38.8998 11.475 38.6998 11.475 38.4998C11.375 38.2998 11.175 38.1998 10.975 38.1998C10.775 38.2998 10.675 38.4998 10.675 38.6998C10.775 38.9998 10.975 39.0998 11.175 38.9998ZM13.275 35.3998C13.475 35.2998 13.575 35.0998 13.575 34.8998C13.475 34.6998 13.275 34.5998 13.075 34.5998C12.875 34.6998 12.775 34.8998 12.775 35.0998C12.875 35.2998 13.075 35.3998 13.275 35.3998ZM15.675 31.1998C15.575 30.9998 15.375 30.7998 15.175 30.8998C14.975 30.9998 14.775 31.1998 14.875 31.3998C14.975 31.5998 15.175 31.7998 15.375 31.6998C15.675 31.5998 15.775 31.3998 15.675 31.1998ZM17.875 27.4998C17.775 27.2998 17.575 27.0998 17.375 27.1998C17.175 27.2998 16.975 27.4998 17.075 27.6998C17.175 27.8998 17.375 28.0998 17.575 27.9998C17.775 27.8998 17.875 27.6998 17.875 27.4998ZM19.975 23.7998C19.975 23.9998 19.875 24.2998 19.675 24.2998C19.475 24.2998 19.175 24.1998 19.175 23.9998C19.175 23.7998 19.275 23.4998 19.475 23.4998C19.675 23.3998 19.975 23.5998 19.975 23.7998ZM22.075 20.0998C22.075 19.8998 21.775 19.6998 21.575 19.7998C21.375 19.7998 21.175 20.0998 21.275 20.2998C21.275 20.4998 21.575 20.6998 21.775 20.5998C21.975 20.5998 22.175 20.3998 22.075 20.0998ZM24.275 16.4998C24.275 16.2998 24.075 16.0998 23.775 16.0998C23.575 16.0998 23.375 16.2998 23.375 16.5998C23.375 16.7998 23.575 16.9998 23.875 16.9998C24.175 16.8998 24.275 16.6998 24.275 16.4998ZM26.375 12.7998C26.375 12.5998 26.175 12.3998 25.875 12.3998C25.675 12.3998 25.475 12.5998 25.475 12.8998C25.475 13.0998 25.675 13.2998 25.975 13.2998C26.275 13.1998 26.375 12.9998 26.375 12.7998ZM28.575 9.0998C28.575 8.89981 28.375 8.6998 28.075 8.6998C27.875 8.6998 27.675 8.8998 27.675 9.1998C27.675 9.3998 27.875 9.5998 28.175 9.5998C28.375 9.5998 28.575 9.39981 28.575 9.0998ZM30.675 5.39981C30.675 5.19981 30.475 4.9998 30.175 4.9998C29.975 4.9998 29.775 5.1998 29.775 5.4998C29.775 5.6998 29.975 5.89981 30.275 5.89981C30.475 5.89981 30.675 5.69981 30.675 5.39981ZM32.375 1.2998C32.175 1.2998 32.075 1.3998 31.975 1.4998C31.975 1.5998 31.875 1.5998 31.875 1.6998C31.875 1.8998 32.075 2.0998 32.275 2.0998C32.475 2.0998 32.575 1.9998 32.675 1.8998C32.575 1.9998 32.475 2.0998 32.275 2.0998V1.2998H32.375ZM11.275 49.5998C10.775 49.8998 10.575 50.4998 10.875 50.9998V51.0998L12.675 50.0998C12.875 50.3998 12.875 50.7998 12.675 51.0998C12.875 50.7998 12.875 50.3998 12.675 49.9998C12.475 49.6998 12.175 49.4998 11.875 49.4998C11.675 49.3998 11.475 49.4998 11.275 49.5998ZM12.975 47.3998C12.675 46.8998 12.875 46.2998 13.475 45.9998C13.975 45.6998 14.575 45.8998 14.875 46.4998C15.175 46.9998 14.975 47.5998 14.375 47.8998C13.875 48.0998 13.175 47.8998 12.975 47.3998ZM14.975 43.7998C14.775 43.2998 14.975 42.6998 15.475 42.3998C15.975 42.1998 16.575 42.3998 16.875 42.8998C17.075 43.3998 16.875 43.9998 16.375 44.2998C15.875 44.5998 15.175 44.2998 14.975 43.7998ZM17.575 38.8998C18.075 38.6998 18.675 38.9998 18.875 39.4998C19.075 39.9998 18.775 40.5998 18.275 40.7998C17.775 40.9998 17.175 40.6998 16.975 40.1998C16.775 39.6998 17.075 39.0998 17.575 38.8998ZM20.375 37.1998C19.875 37.3998 19.275 37.0998 19.075 36.4998C18.875 35.9998 19.175 35.3998 19.775 35.1998C20.275 34.9998 20.875 35.2998 21.075 35.8998C21.175 36.4998 20.875 37.0998 20.375 37.1998ZM23.075 32.4998C23.175 32.9998 22.875 33.5998 22.375 33.7998C21.875 33.8998 21.275 33.5998 21.075 33.0998C20.975 32.5998 21.275 31.9998 21.775 31.7998C22.375 31.5998 22.975 31.8998 23.075 32.4998ZM25.175 28.8998C25.275 29.4998 24.975 29.9998 24.375 30.0998C23.775 30.1998 23.275 29.8998 23.175 29.2998C23.075 28.6998 23.375 28.1998 23.975 28.0998C24.475 27.9998 25.075 28.3998 25.175 28.8998ZM25.175 25.7998C25.075 25.1998 25.475 24.6998 26.075 24.5998C26.675 24.4998 27.175 24.8998 27.275 25.4998C27.375 26.0998 26.975 26.5998 26.375 26.6998C25.775 26.6998 25.275 26.2998 25.175 25.7998ZM28.375 23.0998C28.975 22.9998 29.375 22.4998 29.275 21.9998C29.175 21.3998 28.675 20.9998 28.175 21.0998C27.575 21.1998 27.175 21.6998 27.275 22.1998C27.275 22.6998 27.775 23.0998 28.375 23.0998ZM30.375 19.4998C29.775 19.4998 29.275 19.0998 29.275 18.4998C29.275 17.8998 29.675 17.3998 30.275 17.3998C30.875 17.3998 31.375 17.7998 31.375 18.3998C31.375 18.9998 30.975 19.4998 30.375 19.4998ZM32.375 13.8998C32.375 13.8998 32.275 13.8998 32.375 13.8998C31.875 13.8998 31.475 14.1998 31.375 14.5998C31.375 14.6998 31.375 14.7998 31.375 14.8998C31.375 15.4998 31.875 15.9998 32.475 15.9998C32.775 15.9998 33.075 15.8998 33.275 15.5998L33.375 15.4998C33.175 15.7998 32.875 15.9998 32.475 15.9998L32.375 13.8998ZM23.275 34.2998C23.075 33.6998 23.475 33.0998 24.075 32.8998C24.675 32.6998 25.275 33.0998 25.475 33.6998C25.675 34.2998 25.275 34.8998 24.675 35.0998C24.075 35.2998 23.475 34.8998 23.275 34.2998ZM17.675 41.1998C18.275 40.9998 18.875 41.1998 19.075 41.7998C19.275 42.3998 19.075 42.9998 18.475 43.1998C17.875 43.3998 17.275 43.1998 17.075 42.5998C16.875 41.9998 17.175 41.3998 17.675 41.1998ZM21.175 38.2998C21.375 38.8998 21.075 39.4998 20.575 39.6998C19.975 39.8998 19.375 39.5998 19.175 39.0998C18.975 38.4998 19.275 37.8998 19.775 37.6998C20.375 37.3998 20.975 37.6998 21.175 38.2998ZM21.175 35.3998C20.975 34.7998 21.375 34.1998 21.875 34.0998C22.475 33.8998 23.075 34.2998 23.175 34.7998C23.375 35.3998 22.975 35.9998 22.475 36.0998C21.975 36.2998 21.375 35.9998 21.175 35.3998ZM25.275 31.3998C25.375 31.9998 25.075 32.5998 24.475 32.6998C23.875 32.7998 23.275 32.4998 23.175 31.8998C23.075 31.2998 23.375 30.6998 23.975 30.5998C24.575 30.3998 25.175 30.7998 25.275 31.3998ZM27.375 27.8998C27.475 28.4998 27.075 29.0998 26.475 29.1998C25.875 29.2998 25.275 28.8998 25.175 28.2998C25.075 27.6998 25.475 27.0998 26.075 26.9998C26.675 26.8998 27.275 27.2998 27.375 27.8998ZM27.175 24.6998C27.075 24.0998 27.575 23.5998 28.175 23.4998C28.775 23.3998 29.275 23.8998 29.375 24.4998C29.475 25.0998 28.975 25.5998 28.375 25.6998C27.775 25.7998 27.275 25.2998 27.175 24.6998ZM10.375 52.2998C10.575 51.9998 10.575 51.6998 10.475 51.3998V51.2998C10.175 50.7998 9.575 50.6998 9.075 50.8998C8.975 50.9998 8.875 51.0998 8.775 51.0998C8.475 51.3998 8.375 51.8998 8.675 52.2998L10.375 51.2998C10.575 51.6998 10.575 51.9998 10.375 52.2998ZM10.775 48.6998C11.075 49.1998 11.575 49.3998 12.075 49.0998C12.575 48.7998 12.775 48.2998 12.475 47.7998C12.175 47.2998 11.675 47.0998 11.175 47.3998C10.675 47.5998 10.475 48.1998 10.775 48.6998ZM12.775 44.9998C12.975 45.4998 13.575 45.6998 14.075 45.4998C14.575 45.2998 14.775 44.6998 14.575 44.1998C14.375 43.6998 13.775 43.4998 13.275 43.6998C12.775 43.9998 12.575 44.4998 12.775 44.9998ZM15.375 40.0998C14.875 40.2998 14.675 40.8998 14.875 41.3998C15.075 41.8998 15.675 42.0998 16.175 41.8998C16.675 41.6998 16.875 41.0998 16.675 40.5998C16.475 40.1998 15.875 39.8998 15.375 40.0998ZM18.175 38.3998C18.675 38.1998 18.975 37.6998 18.775 37.1998C18.575 36.6998 18.075 36.3998 17.575 36.5998C17.075 36.7998 16.775 37.2998 16.975 37.7998C17.075 38.2998 17.675 38.4998 18.175 38.3998ZM20.875 33.5998C21.075 34.0998 20.775 34.6998 20.175 34.7998C19.675 34.9998 19.075 34.6998 18.975 34.0998C18.775 33.5998 19.075 32.9998 19.675 32.8998C20.175 32.7998 20.675 33.0998 20.875 33.5998ZM22.875 29.9998C22.975 30.4998 22.675 30.9998 22.175 31.1998C21.675 31.2998 21.175 30.9998 20.975 30.4998C20.875 29.9998 21.175 29.4998 21.675 29.2998C22.275 29.1998 22.775 29.4998 22.875 29.9998ZM24.975 26.4998C25.075 26.9998 24.775 27.4998 24.175 27.5998C23.675 27.6998 23.175 27.3998 23.075 26.7998C22.975 26.2998 23.275 25.7998 23.875 25.6998C24.375 25.5998 24.875 25.9998 24.975 26.4998ZM27.075 22.8998C27.175 23.3998 26.775 23.8998 26.275 23.9998C25.775 24.0998 25.275 23.6998 25.175 23.1998C25.075 22.6998 25.475 22.1998 25.975 22.0998C26.575 21.9998 26.975 22.3998 27.075 22.8998ZM29.175 19.3998C29.075 18.8998 28.675 18.4998 28.075 18.4998C27.575 18.5998 27.175 18.9998 27.175 19.5998C27.275 20.0998 27.675 20.4998 28.275 20.4998C28.875 20.3998 29.275 19.8998 29.175 19.3998ZM30.275 16.8998C29.775 16.8998 29.275 16.4998 29.275 15.9998C29.275 15.4998 29.675 14.9998 30.175 14.9998C30.675 14.9998 31.175 15.3998 31.175 15.8998C31.275 16.3998 30.875 16.8998 30.275 16.8998ZM32.375 11.2998C31.775 11.2998 31.375 11.6998 31.375 12.2998C31.375 12.4998 31.375 12.5998 31.475 12.6998C31.675 12.9998 31.975 13.2998 32.375 13.2998C32.775 13.2998 33.075 13.0998 33.275 12.7998C33.075 13.0998 32.775 13.2998 32.475 13.2998L32.375 11.2998ZM31.275 17.5998C31.275 17.7998 31.275 17.8998 31.375 17.9998C31.575 18.3998 31.975 18.6998 32.375 18.6998C32.775 18.6998 33.175 18.4998 33.375 18.0998C33.175 18.3998 32.875 18.5998 32.475 18.5998V16.3998C31.775 16.4998 31.275 16.9998 31.275 17.5998Z" fill="#4E565A"/>
<path fill-rule="evenodd" clip-rule="evenodd" d="M51.5754 49.8004L32.2754 16.4004V38.7004L51.5754 49.8004Z" fill="#5BA43A"/>
<path fill-rule="evenodd" clip-rule="evenodd" d="M32.2742 16.4004L13.0742 49.8004L32.2742 38.7004V16.4004Z" fill="#4E565A"/>
<path fill-rule="evenodd" clip-rule="evenodd" d="M45.5742 49.7998C45.6742 49.8998 45.7742 50.0998 45.8742 50.1998C46.3742 50.4998 47.0742 50.3998 47.3742 49.8998H47.8742C47.7742 49.9998 47.7742 49.9998 47.7742 50.0998C47.4742 50.5998 47.5742 51.1998 48.0742 51.4998C48.5742 51.7998 49.1742 51.6998 49.4742 51.1998C49.7742 50.7998 49.6742 50.1998 49.3742 49.8998H49.4742C49.4742 49.9998 49.5742 49.9998 49.5742 50.0998C49.6742 50.1998 49.7742 50.1998 49.8742 50.2998C49.9742 50.2998 49.9742 50.3998 50.0742 50.3998C50.3742 50.4998 50.7742 50.3998 50.9742 50.2998C51.0742 50.1998 51.2742 50.0998 51.3742 49.8998L49.4742 48.7998L32.1742 38.7998L13.0742 49.7998H13.1742C13.4742 50.2998 14.1742 50.4998 14.6742 50.1998C14.7742 50.0998 14.8742 49.9998 14.9742 49.8998C14.9742 49.8998 14.9742 49.7998 15.0742 49.7998H15.1742C14.8742 50.0998 14.7742 50.6998 15.0742 51.0998C15.3742 51.5998 16.0742 51.6998 16.4742 51.3998C16.9742 51.0998 17.0742 50.3998 16.7742 49.9998C16.7742 49.8998 16.6742 49.8998 16.6742 49.7998H17.1742C17.4742 50.2998 18.1742 50.4998 18.6742 50.0998C18.7742 49.9998 18.9742 49.8998 18.9742 49.6998H19.1742C18.7742 50.0998 18.7742 50.5998 19.0742 51.0998C19.3742 51.5998 20.0742 51.6998 20.4742 51.2998C20.9742 50.9998 21.0742 50.2998 20.6742 49.8998C20.6742 49.7998 20.5742 49.7998 20.5742 49.7998H21.0742C21.0742 49.7998 21.0742 49.8998 21.1742 49.8998C21.5742 50.3998 22.1742 50.4998 22.6742 50.0998C22.7742 49.9998 22.8742 49.8998 22.9742 49.7998H23.2742C22.8742 50.1998 22.8742 50.7998 23.1742 51.1998C23.5742 51.5998 24.1742 51.6998 24.5742 51.3998C24.9742 50.9998 25.0742 50.3998 24.7742 49.9998L24.6742 49.8998H25.1742L25.2742 49.9998C25.6742 50.4998 26.3742 50.4998 26.7742 50.0998C26.8742 49.9998 26.9742 49.8998 26.9742 49.7998H27.3742C26.9742 50.1998 26.9742 50.7998 27.2742 51.1998C27.6742 51.5998 28.2742 51.6998 28.6742 51.2998C29.0742 50.8998 29.1742 50.2998 28.7742 49.8998C28.7742 49.8998 28.7742 49.8998 28.6742 49.7998H29.1742C29.1742 49.8998 29.2742 49.8998 29.2742 49.9998C29.6742 50.3998 30.3742 50.4998 30.7742 49.9998C30.8742 49.8998 30.8742 49.8998 30.9742 49.7998H31.3742C30.9742 50.1998 30.9742 50.7998 31.3742 51.1998C31.7742 51.5998 32.3742 51.5998 32.7742 51.1998C33.1742 50.7998 33.1742 50.1998 32.7742 49.7998H33.1742C33.1742 49.8998 33.2742 49.9998 33.3742 49.9998C33.7742 50.3998 34.4742 50.3998 34.8742 49.9998C34.9742 49.8998 34.9742 49.8998 34.9742 49.7998H35.4742L35.3742 49.8998C34.9742 50.2998 35.0742 50.9998 35.4742 51.2998C35.8742 51.6998 36.5742 51.5998 36.8742 51.1998C37.2742 50.7998 37.1742 50.0998 36.7742 49.7998H37.0742C37.1742 49.8998 37.1742 49.9998 37.2742 50.0998C37.7742 50.4998 38.3742 50.3998 38.7742 49.9998L38.8742 49.8998H39.3742L39.2742 49.9998C38.8742 50.3998 38.9742 51.0998 39.4742 51.3998C39.8742 51.7998 40.5742 51.6998 40.8742 51.1998C41.1742 50.7998 41.1742 50.1998 40.7742 49.7998H41.0742C41.1742 49.8998 41.2742 49.9998 41.3742 50.0998C41.8742 50.4998 42.5742 50.3998 42.8742 49.8998C42.8742 49.8998 42.8742 49.7998 42.9742 49.7998H43.9742L43.8742 49.8998C43.5742 50.3998 43.6742 50.9998 44.0742 51.2998C44.5742 51.5998 45.1742 51.4998 45.4742 51.0998C45.7742 50.6998 45.6742 50.0998 45.3742 49.6998H45.5742V49.7998ZM57.1742 54.0998C57.5742 54.1998 57.9742 53.9998 58.1742 53.6998L56.5742 52.7998C56.2742 53.2998 56.4742 53.7998 56.8742 54.0998C57.0742 53.9998 57.0742 54.0998 57.1742 54.0998ZM54.0742 53.6998C54.3742 53.2998 54.1742 52.6998 53.7742 52.3998C53.3742 52.0998 52.7742 52.2998 52.4742 52.6998C52.1742 53.0998 52.3742 53.6998 52.7742 53.9998C53.1742 54.1998 53.7742 54.0998 54.0742 53.6998ZM49.7742 53.6998C50.0742 53.2998 49.9742 52.6998 49.5742 52.3998C49.1742 52.0998 48.5742 52.1998 48.2742 52.5998C47.9742 52.9998 48.0742 53.5998 48.4742 53.8998C48.9742 54.1998 49.5742 54.0998 49.7742 53.6998ZM44.2742 53.8998C44.6742 54.1998 45.2742 54.0998 45.5742 53.6998C45.8742 53.2998 45.7742 52.6998 45.3742 52.3998C44.9742 52.0998 44.3742 52.1998 44.0742 52.5998C43.8742 52.9998 43.8742 53.5998 44.2742 53.8998ZM41.2742 52.4998C40.8742 52.1998 40.2742 52.1998 39.9742 52.5998C39.6742 52.9998 39.6742 53.5998 40.0742 53.8998C40.4742 54.1998 41.0742 54.1998 41.3742 53.7998C41.6742 53.3998 41.6742 52.7998 41.2742 52.4998ZM35.8742 52.4998C35.5742 52.8998 35.5742 53.3998 35.9742 53.7998C36.3742 54.0998 36.8742 54.0998 37.2742 53.6998C37.5742 53.2998 37.5742 52.7998 37.1742 52.3998C36.7742 52.0998 36.1742 52.1998 35.8742 52.4998ZM31.6742 52.4998C31.2742 52.8998 31.2742 53.3998 31.6742 53.7998C32.0742 54.1998 32.5742 54.1998 32.9742 53.7998C33.3742 53.3998 33.3742 52.8998 32.9742 52.4998C32.5742 52.1998 32.0742 52.1998 31.6742 52.4998ZM27.5742 52.4998C27.1742 52.7998 27.1742 53.3998 27.4742 53.7998C27.7742 54.1998 28.3742 54.1998 28.7742 53.8998C29.1742 53.5998 29.1742 52.9998 28.8742 52.5998C28.4742 52.1998 27.8742 52.0998 27.5742 52.4998ZM23.3742 52.4998C22.9742 52.7998 22.9742 53.3998 23.2742 53.7998C23.5742 54.1998 24.1742 54.1998 24.5742 53.8998C24.9742 53.5998 24.9742 52.9998 24.6742 52.5998C24.3742 52.1998 23.7742 52.0998 23.3742 52.4998ZM19.2742 52.3998C18.8742 52.6998 18.7742 53.2998 19.0742 53.6998C19.3742 54.0998 19.9742 54.1998 20.3742 53.8998C20.7742 53.5998 20.8742 52.9998 20.5742 52.5998C20.1742 52.1998 19.6742 52.0998 19.2742 52.3998ZM15.0742 52.3998C14.6742 52.6998 14.5742 53.2998 14.8742 53.6998C15.1742 54.0998 15.7742 54.1998 16.1742 53.8998C16.5742 53.5998 16.6742 52.9998 16.3742 52.5998C16.0742 52.1998 15.4742 52.0998 15.0742 52.3998ZM10.9742 52.3998C10.5742 52.6998 10.3742 53.2998 10.6742 53.6998C10.9742 54.0998 11.5742 54.2998 11.9742 53.9998C12.3742 53.6998 12.5742 53.0998 12.2742 52.6998C11.9742 52.1998 11.3742 52.0998 10.9742 52.3998ZM6.47422 53.5998C6.77422 53.9998 7.27422 54.1998 7.77422 53.8998C7.97422 53.7998 8.07422 53.5998 8.17422 53.3998C8.27422 53.1998 8.27422 52.8998 8.07422 52.5998L6.47422 53.5998ZM59.4742 55.2998C59.8742 55.3998 60.2742 55.1998 60.4742 54.8998L58.9742 53.9998C58.7742 54.3998 58.8742 54.9998 59.2742 55.1998C59.3742 55.2998 59.3742 55.2998 59.4742 55.2998ZM56.2742 54.8998C55.9742 55.2998 55.4742 55.3998 55.0742 55.1998C54.6742 54.8998 54.5742 54.3998 54.7742 53.9998C55.0742 53.5998 55.5742 53.4998 55.9742 53.6998C56.3742 53.9998 56.4742 54.4998 56.2742 54.8998ZM51.9742 54.9998C51.6742 55.3998 51.1742 55.4998 50.7742 55.1998C50.3742 54.8998 50.2742 54.3998 50.5742 53.9998C50.8742 53.5998 51.3742 53.4998 51.7742 53.7998C52.1742 53.9998 52.2742 54.5998 51.9742 54.9998ZM47.7742 54.9998C47.4742 55.3998 46.9742 55.4998 46.5742 55.1998C46.1742 54.8998 46.0742 54.3998 46.3742 53.9998C46.6742 53.5998 47.1742 53.4998 47.5742 53.7998C47.9742 54.0998 48.0742 54.5998 47.7742 54.9998ZM42.2742 55.0998C42.6742 55.3998 43.1742 55.2998 43.4742 54.9998C43.7742 54.5998 43.6742 54.0998 43.3742 53.7998C42.9742 53.4998 42.4742 53.5998 42.1742 53.8998C41.8742 54.2998 41.9742 54.7998 42.2742 55.0998ZM39.1742 53.7998C38.7742 53.4998 38.2742 53.4998 37.9742 53.8998C37.6742 54.2998 37.6742 54.7998 38.0742 55.0998C38.4742 55.3998 38.9742 55.3998 39.2742 54.9998C39.5742 54.6998 39.5742 54.0998 39.1742 53.7998ZM33.7742 53.8998C33.4742 54.1998 33.4742 54.7998 33.7742 55.0998C34.0742 55.3998 34.6742 55.3998 34.9742 55.0998C35.2742 54.7998 35.2742 54.1998 34.9742 53.8998C34.6742 53.4998 34.1742 53.4998 33.7742 53.8998ZM29.6742 53.8998C29.3742 54.1998 29.2742 54.7998 29.6742 55.0998C29.9742 55.3998 30.5742 55.4998 30.8742 55.0998C31.1742 54.7998 31.2742 54.1998 30.8742 53.8998C30.4742 53.4998 29.9742 53.4998 29.6742 53.8998ZM25.4742 53.7998C25.0742 54.0998 25.0742 54.6998 25.3742 54.9998C25.6742 55.3998 26.2742 55.3998 26.5742 55.0998C26.9742 54.7998 26.9742 54.1998 26.6742 53.8998C26.3742 53.4998 25.7742 53.4998 25.4742 53.7998ZM21.2742 53.7998C20.8742 54.0998 20.8742 54.5998 21.1742 54.9998C21.4742 55.3998 21.9742 55.3998 22.3742 55.0998C22.7742 54.7998 22.7742 54.2998 22.4742 53.8998C22.1742 53.5998 21.6742 53.4998 21.2742 53.7998ZM17.0742 53.7998C17.4742 53.4998 17.9742 53.5998 18.2742 53.9998C18.5742 54.3998 18.4742 54.8998 18.0742 55.1998C17.6742 55.4998 17.1742 55.3998 16.8742 54.9998C16.5742 54.5998 16.6742 54.0998 17.0742 53.7998ZM12.8742 53.7998C13.2742 53.4998 13.7742 53.5998 14.0742 53.9998C14.3742 54.3998 14.2742 54.8998 13.8742 55.1998C13.4742 55.4998 12.9742 55.3998 12.6742 54.9998C12.3742 54.5998 12.4742 53.9998 12.8742 53.7998ZM8.67422 53.6998C9.07422 53.3998 9.67422 53.5998 9.87422 53.9998C10.1742 54.3998 9.97422 54.9998 9.57422 55.1998C9.17422 55.4998 8.57422 55.2998 8.37422 54.8998C8.17422 54.4998 8.27422 53.9998 8.67422 53.6998ZM4.17422 54.8998C4.27422 55.0998 4.37422 55.1998 4.57422 55.1998C4.87422 55.2998 5.17422 55.2998 5.37422 55.1998C5.87422 54.9998 5.97422 54.4998 5.77422 53.9998L4.17422 54.8998ZM61.7742 56.3998C62.0742 56.4998 62.3742 56.2998 62.4742 56.0998L61.2742 55.3998C61.0742 55.6998 61.1742 56.0998 61.4742 56.2998C61.6742 56.3998 61.7742 56.3998 61.7742 56.3998ZM58.2742 56.0998C58.4742 55.7998 58.3742 55.3998 58.0742 55.1998C57.7742 54.9998 57.3742 55.0998 57.1742 55.3998C56.9742 55.6998 57.0742 56.0998 57.3742 56.2998C57.6742 56.4998 58.0742 56.3998 58.2742 56.0998ZM54.0742 56.1998C54.2742 55.8998 54.1742 55.4998 53.8742 55.2998C53.5742 55.0998 53.1742 55.1998 52.9742 55.4998C52.7742 55.7998 52.8742 56.1998 53.1742 56.3998C53.4742 56.4998 53.8742 56.3998 54.0742 56.1998ZM49.7742 56.1998C49.9742 55.8998 49.9742 55.4998 49.6742 55.2998C49.3742 55.0998 48.9742 55.0998 48.7742 55.3998C48.5742 55.6998 48.6742 56.0998 48.8742 56.2998C49.1742 56.4998 49.5742 56.4998 49.7742 56.1998ZM44.6742 56.2998C44.9742 56.4998 45.3742 56.4998 45.5742 56.1998C45.7742 55.8998 45.7742 55.4998 45.4742 55.2998C45.1742 55.0998 44.7742 55.0998 44.5742 55.3998C44.2742 55.6998 44.3742 56.0998 44.6742 56.2998ZM41.1742 55.2998C40.8742 55.0998 40.4742 55.0998 40.2742 55.3998C40.0742 55.6998 40.0742 56.0998 40.3742 56.2998C40.6742 56.4998 41.0742 56.4998 41.2742 56.1998C41.4742 55.8998 41.4742 55.4998 41.1742 55.2998ZM36.0742 55.3998C35.8742 55.6998 35.8742 56.0998 36.0742 56.2998C36.3742 56.4998 36.7742 56.4998 36.9742 56.2998C37.1742 55.9998 37.1742 55.5998 36.9742 55.3998C36.7742 55.0998 36.3742 55.0998 36.0742 55.3998ZM31.8742 55.2998C31.6742 55.4998 31.6742 55.9998 31.8742 56.1998C32.0742 56.3998 32.5742 56.3998 32.7742 56.1998C32.9742 55.9998 32.9742 55.4998 32.7742 55.2998C32.5742 55.0998 32.1742 55.0998 31.8742 55.2998ZM27.6742 55.2998C27.3742 55.4998 27.3742 55.8998 27.6742 56.1998C27.8742 56.4998 28.2742 56.4998 28.5742 56.1998C28.8742 55.9998 28.8742 55.5998 28.5742 55.2998C28.3742 55.0998 27.8742 55.0998 27.6742 55.2998ZM23.4742 55.2998C23.1742 55.4998 23.1742 55.8998 23.3742 56.1998C23.5742 56.4998 23.9742 56.4998 24.2742 56.2998C24.5742 56.0998 24.5742 55.6998 24.3742 55.3998C24.0742 55.0998 23.6742 55.0998 23.4742 55.2998ZM19.2742 55.2998C18.9742 55.4998 18.9742 55.8998 19.1742 56.1998C19.3742 56.4998 19.7742 56.4998 20.0742 56.2998C20.3742 56.0998 20.3742 55.6998 20.1742 55.3998C19.8742 55.0998 19.4742 55.0998 19.2742 55.2998ZM14.9742 55.2998C14.6742 55.4998 14.6742 55.8998 14.8742 56.1998C15.0742 56.4998 15.4742 56.5998 15.7742 56.2998C16.0742 56.0998 16.1742 55.6998 15.8742 55.3998C15.6742 55.0998 15.2742 55.0998 14.9742 55.2998ZM10.7742 55.1998C10.4742 55.3998 10.3742 55.7998 10.5742 56.0998C10.7742 56.3998 11.1742 56.4998 11.4742 56.2998C11.7742 56.0998 11.8742 55.6998 11.6742 55.3998C11.4742 55.0998 11.0742 54.9998 10.7742 55.1998ZM6.57422 55.1998C6.27422 55.3998 6.17422 55.7998 6.37422 56.0998C6.57422 56.3998 6.97422 56.4998 7.27422 56.2998C7.57422 56.0998 7.67422 55.6998 7.47422 55.3998C7.27422 55.0998 6.87422 54.9998 6.57422 55.1998ZM2.07422 56.0998C2.27422 56.3998 2.67422 56.4998 2.97422 56.2998C3.07422 56.1998 3.17422 56.0998 3.27422 55.9998C3.37422 55.7998 3.37422 55.5998 3.27422 55.3998L2.07422 56.0998ZM64.6742 57.2998L63.8742 56.7998C63.7742 56.9998 63.8742 57.2998 64.0742 57.3998C64.1742 57.3998 64.1742 57.4998 64.2742 57.4998C64.3742 57.5998 64.5742 57.4998 64.6742 57.2998ZM60.3742 57.2998C60.4742 57.0998 60.4742 56.7998 60.2742 56.6998C60.0742 56.5998 59.7742 56.5998 59.6742 56.7998C59.5742 56.9998 59.5742 57.2998 59.7742 57.3998C59.9742 57.5998 60.2742 57.4998 60.3742 57.2998ZM56.0742 57.2998C56.1742 57.0998 56.1742 56.7998 55.9742 56.6998C55.7742 56.5998 55.4742 56.5998 55.3742 56.7998C55.2742 56.9998 55.2742 57.2998 55.4742 57.3998C55.6742 57.5998 55.9742 57.4998 56.0742 57.2998ZM51.8742 57.3998C51.9742 57.1998 51.9742 56.8998 51.7742 56.7998C51.5742 56.6998 51.2742 56.6998 51.1742 56.8998C51.0742 57.0998 51.0742 57.3998 51.2742 57.4998C51.4742 57.5998 51.6742 57.4998 51.8742 57.3998ZM47.5742 57.3998C47.6742 57.1998 47.6742 56.8998 47.4742 56.7998C47.2742 56.6998 46.9742 56.6998 46.8742 56.8998C46.7742 57.0998 46.7742 57.3998 46.9742 57.4998C47.1742 57.5998 47.4742 57.4998 47.5742 57.3998ZM43.2742 56.7998C43.0742 56.6998 42.8742 56.6998 42.6742 56.8998C42.5742 57.0998 42.5742 57.2998 42.7742 57.4998C42.9742 57.5998 43.1742 57.5998 43.3742 57.3998C43.4742 57.1998 43.4742 56.8998 43.2742 56.7998ZM38.9742 56.7998C38.7742 56.5998 38.5742 56.6998 38.3742 56.7998C38.1742 56.9998 38.2742 57.1998 38.3742 57.3998C38.5742 57.5998 38.7742 57.4998 38.9742 57.3998C39.1742 57.1998 39.1742 56.8998 38.9742 56.7998ZM34.1742 56.7998C33.9742 56.9998 33.9742 57.1998 34.1742 57.3998C34.3742 57.5998 34.5742 57.5998 34.7742 57.3998C34.9742 57.1998 34.9742 56.9998 34.7742 56.7998C34.5742 56.5998 34.2742 56.5998 34.1742 56.7998ZM29.8742 56.7998C29.6742 56.9998 29.6742 57.1998 29.8742 57.3998C30.0742 57.5998 30.2742 57.5998 30.4742 57.3998C30.6742 57.1998 30.6742 56.9998 30.4742 56.7998C30.3742 56.5998 30.0742 56.5998 29.8742 56.7998ZM25.6742 56.7998C25.4742 56.9998 25.4742 57.1998 25.6742 57.3998C25.8742 57.5998 26.0742 57.5998 26.2742 57.3998C26.4742 57.1998 26.4742 56.9998 26.2742 56.7998C26.0742 56.5998 25.8742 56.5998 25.6742 56.7998ZM21.3742 56.7998C21.1742 56.8998 21.1742 57.1998 21.2742 57.3998C21.3742 57.5998 21.6742 57.5998 21.8742 57.4998C22.0742 57.3998 22.0742 57.0998 21.9742 56.8998C21.8742 56.6998 21.5742 56.5998 21.3742 56.7998ZM17.1742 56.7998C16.9742 56.8998 16.9742 57.1998 17.0742 57.3998C17.1742 57.5998 17.4742 57.5998 17.6742 57.4998C17.8742 57.3998 17.8742 57.0998 17.7742 56.8998C17.6742 56.6998 17.3742 56.5998 17.1742 56.7998ZM12.9742 56.7998C12.7742 56.8998 12.7742 57.1998 12.8742 57.3998C12.9742 57.5998 13.2742 57.5998 13.4742 57.4998C13.6742 57.3998 13.6742 57.0998 13.5742 56.8998C13.3742 56.6998 13.0742 56.5998 12.9742 56.7998ZM8.67422 56.6998C8.47422 56.7998 8.37422 57.0998 8.57422 57.2998C8.67422 57.4998 8.97422 57.5998 9.17422 57.3998C9.37422 57.2998 9.47422 56.9998 9.27422 56.7998C9.17422 56.6998 8.87422 56.5998 8.67422 56.6998ZM4.47422 56.6998C4.27422 56.7998 4.17422 57.0998 4.37422 57.2998C4.47422 57.4998 4.77422 57.5998 4.97422 57.3998C5.17422 57.2998 5.27422 56.9998 5.07422 56.7998C4.87422 56.6998 4.67422 56.5998 4.47422 56.6998ZM0.0742188 57.2998C0.174219 57.3998 0.274219 57.4998 0.374219 57.4998C0.474219 57.4998 0.474219 57.4998 0.574219 57.3998C0.774219 57.2998 0.874219 56.9998 0.774219 56.7998L0.0742188 57.2998ZM52.3742 51.3998C52.8742 51.6998 53.4742 51.4998 53.7742 51.0998C53.7742 51.0998 53.7742 50.9998 53.8742 50.9998L51.9742 49.9998C51.7742 50.2998 51.7742 50.6998 51.9742 50.9998C51.9742 51.1998 52.1742 51.2998 52.3742 51.3998ZM10.8742 51.0998C11.1742 51.4998 11.5742 51.6998 11.9742 51.5998C12.0742 51.5998 12.1742 51.4998 12.2742 51.4998C12.7742 51.1998 12.9742 50.5998 12.6742 50.0998L10.8742 51.0998ZM54.2742 51.2998L55.9742 52.2998C55.7742 52.6998 55.2742 52.8998 54.8742 52.7998C54.7742 52.7998 54.6742 52.6998 54.5742 52.6998C54.1742 52.3998 53.9742 51.7998 54.2742 51.2998ZM51.8742 52.3998C51.5742 52.8998 50.9742 52.9998 50.4742 52.6998C49.9742 52.3998 49.8742 51.7998 50.1742 51.2998C50.4742 50.7998 51.0742 50.6998 51.5742 50.9998C51.9742 51.2998 52.0742 51.8998 51.8742 52.3998ZM47.6742 52.3998C47.3742 52.7998 46.7742 52.8998 46.2742 52.5998C45.8742 52.2998 45.7742 51.6998 46.0742 51.1998C46.3742 50.7998 46.9742 50.6998 47.4742 50.9998C47.8742 51.2998 47.9742 51.9998 47.6742 52.3998ZM42.0742 52.5998C41.6742 52.2998 41.5742 51.6998 41.8742 51.1998C42.1742 50.7998 42.7742 50.6998 43.2742 50.9998C43.6742 51.2998 43.7742 51.8998 43.4742 52.3998C43.1742 52.8998 42.5742 52.8998 42.0742 52.5998ZM39.1742 51.0998C39.5742 51.4998 39.5742 52.0998 39.2742 52.4998C38.8742 52.8998 38.2742 52.9998 37.8742 52.5998C37.4742 52.1998 37.3742 51.5998 37.7742 51.1998C38.1742 50.7998 38.7742 50.7998 39.1742 51.0998ZM33.6742 51.1998C34.0742 50.7998 34.6742 50.7998 35.0742 51.1998C35.4742 51.5998 35.4742 52.1998 35.0742 52.5998C34.6742 52.9998 34.0742 52.9998 33.6742 52.5998C33.3742 52.1998 33.3742 51.5998 33.6742 51.1998ZM29.5742 51.0998C29.9742 50.6998 30.5742 50.6998 30.9742 51.0998C31.3742 51.4998 31.3742 52.0998 30.9742 52.4998C30.5742 52.8998 29.9742 52.8998 29.5742 52.4998C29.1742 52.0998 29.1742 51.4998 29.5742 51.0998ZM25.4742 51.0998C25.8742 50.6998 26.4742 50.7998 26.8742 51.1998C27.2742 51.5998 27.1742 52.1998 26.7742 52.5998C26.3742 52.9998 25.7742 52.8998 25.3742 52.4998C25.0742 52.0998 25.0742 51.4998 25.4742 51.0998ZM21.3742 51.0998C21.7742 50.7998 22.3742 50.7998 22.7742 51.2998C23.0742 51.6998 23.0742 52.2998 22.5742 52.6998C22.1742 52.9998 21.5742 52.9998 21.1742 52.4998C20.8742 51.9998 20.9742 51.3998 21.3742 51.0998ZM17.2742 50.9998C17.6742 50.6998 18.3742 50.7998 18.6742 51.1998C18.9742 51.5998 18.8742 52.2998 18.4742 52.5998C17.9742 52.9998 17.3742 52.7998 16.9742 52.3998C16.6742 51.9998 16.7742 51.2998 17.2742 50.9998ZM14.4742 51.2998C14.7742 51.7998 14.6742 52.3998 14.1742 52.6998C13.6742 52.9998 13.0742 52.8998 12.7742 52.3998C12.4742 51.8998 12.5742 51.2998 13.0742 50.9998C13.5742 50.6998 14.1742 50.7998 14.4742 51.2998ZM8.67422 52.3998L10.3742 51.3998C10.5742 51.6998 10.5742 52.1998 10.2742 52.4998C10.1742 52.5998 10.0742 52.6998 9.97422 52.7998C9.57422 52.9998 8.97422 52.7998 8.67422 52.3998Z" fill="#91999D"/>
</svg>
