<svg width="472" height="82" viewBox="0 0 472 82" fill="none" xmlns="http://www.w3.org/2000/svg">
<path fill-rule="evenodd" clip-rule="evenodd" d="M247.788 37.8356C240.25 37.8356 234.357 32.3322 234.357 24.0772C234.357 15.8221 240.25 10.3188 247.788 10.3188C255.325 10.3188 261.218 15.8221 261.218 24.0772C261.218 32.3322 255.188 37.8356 247.788 37.8356ZM247.788 48.1544C261.081 48.1544 271.771 37.698 271.771 24.0772C271.771 10.4564 261.081 0 247.788 0C234.494 0 223.804 10.4564 223.804 24.0772C223.804 37.698 234.494 48.1544 247.788 48.1544ZM198.587 10.8691H206.536C209.414 10.8691 211.743 13.4832 211.743 16.7852C211.743 20.0872 209.414 22.7013 206.536 22.7013H198.587V10.8691ZM212.292 47.1913H223.667L213.799 30.2685C218.87 27.6544 222.296 22.5638 222.296 16.7852C222.296 7.97987 215.307 0.963087 206.536 0.963087H188.171V47.1913H198.724V32.057H203.795L212.292 47.1913ZM161.309 37.8356C153.771 37.8356 147.878 32.3322 147.878 24.0772C147.878 15.8221 153.771 10.3188 161.309 10.3188C168.847 10.3188 174.74 15.8221 174.74 24.0772C174.74 32.3322 168.847 37.8356 161.309 37.8356ZM161.309 48.1544C174.603 48.1544 185.293 37.698 185.293 24.0772C185.293 10.4564 174.603 0 161.309 0C148.015 0 137.325 10.4564 137.325 24.0772C137.325 37.698 148.015 48.1544 161.309 48.1544ZM120.468 22.7013H113.616V10.8691H120.468C123.757 10.8691 126.087 13.4832 126.087 16.7852C125.95 20.0872 123.62 22.7013 120.468 22.7013ZM120.468 0.963087H102.926V47.1913H113.479V32.6074H120.331C129.376 32.6074 136.503 25.5906 136.503 16.7852C136.503 7.97987 129.513 0.963087 120.468 0.963087Z" fill="white"/>
<path fill-rule="evenodd" clip-rule="evenodd" d="M454.869 48.1544C464.873 48.1544 472 42.9262 472 33.9832C472 24.2148 464.188 21.7383 457.199 19.6745C450.072 17.4732 448.839 16.0973 448.839 13.896C448.839 12.1074 450.483 10.4564 453.772 10.4564C458.021 10.4564 460.214 12.5201 461.721 15.8221L470.63 10.594C467.34 3.57718 461.447 0 453.909 0C445.961 0 438.423 5.0906 438.423 14.0336C438.423 22.8389 445.138 26.1409 451.991 28.0671C458.843 29.9933 461.584 31.094 461.584 33.9832C461.584 35.7718 460.351 37.698 455.28 37.698C450.072 37.698 447.194 35.0839 445.549 31.2315L436.504 36.4597C439.108 43.4765 445.275 48.1544 454.869 48.1544ZM417.728 48.1544C427.733 48.1544 434.859 42.9262 434.859 33.9832C434.859 24.2148 427.048 21.7383 420.058 19.6745C412.932 17.4732 411.698 16.0973 411.698 13.896C411.698 12.1074 413.343 10.4564 416.632 10.4564C420.88 10.4564 423.073 12.5201 424.581 15.8221L433.489 10.594C430.2 3.57718 424.17 0 416.632 0C408.683 0 401.145 5.0906 401.145 14.0336C401.145 22.8389 407.861 26.1409 414.713 28.0671C421.566 29.9933 424.307 31.094 424.307 33.9832C424.307 35.7718 423.073 37.698 418.002 37.698C412.794 37.698 409.916 35.0839 408.272 31.2315L399.226 36.4597C401.83 43.4765 407.998 48.1544 417.728 48.1544ZM373.05 29.9933L378.395 13.0705L383.74 29.9933H373.05ZM389.222 47.1913L386.892 39.8993H369.761L367.431 47.1913H355.919L371.542 0.963087H384.973L400.597 47.1913H389.222ZM337.554 37.0101V0.963087H327.001V47.1913H354V37.0101H337.554ZM323.301 21.4631H300.139V30.6812H312.474C310.829 35.0839 306.855 37.8356 300.688 37.8356C291.779 37.8356 286.16 32.057 286.16 24.2148C286.16 16.0973 291.916 10.3188 299.728 10.3188C304.936 10.3188 309.048 12.6577 310.966 15.6846L319.875 10.594C316.037 4.40268 308.499 0 299.728 0C286.16 0 275.607 10.7315 275.607 24.0772C275.607 37.4228 286.023 48.0168 300.551 48.0168C313.433 48.0168 323.301 39.4866 323.301 25.3154V21.4631Z" fill="white"/>
<path fill-rule="evenodd" clip-rule="evenodd" d="M44.8167 53.6582L62.085 63.7018C62.3591 63.1515 62.4962 62.4636 62.085 61.9132C61.948 61.7756 61.8109 61.6381 61.6739 61.5005C61.948 61.3629 62.2221 61.0877 62.4962 60.675C62.9073 59.8495 62.4962 58.8864 61.6739 58.4736C62.085 58.336 62.4962 58.0609 62.7703 57.5105C63.0444 56.685 62.7703 55.722 61.948 55.4468C61.1257 55.1716 60.1663 55.4468 59.8922 56.2723C59.6181 57.0978 59.8922 57.9233 60.7145 58.336C60.1663 58.4736 59.7552 58.7488 59.6181 59.2991C59.344 59.987 59.4811 60.8126 60.0293 61.2253C60.0293 61.2253 59.8922 61.2253 59.8922 61.3629C59.7552 61.5005 59.6181 61.5005 59.4811 61.6381C59.7552 60.9501 59.6181 60.2622 59.207 59.7119C59.4811 59.5743 59.6181 59.2991 59.7552 59.024C60.1663 58.1985 59.8922 57.2354 59.207 56.8226C59.6181 56.685 60.0293 56.2723 60.1663 55.8595C60.4404 55.034 60.0293 54.0709 59.207 53.6582H59.0699C59.6181 53.5206 60.1663 53.2454 60.3034 52.5575C60.5775 51.732 60.1663 50.7689 59.344 50.4938C58.5217 50.2186 57.5624 50.6314 57.2883 51.4569C57.0142 52.2824 57.4253 53.2454 58.2476 53.5206C57.6994 53.5206 57.2883 53.7958 57.0142 54.3461C57.0142 54.3461 57.0142 54.3461 57.0142 54.2085C57.2883 53.383 56.8771 52.4199 56.1919 52.0072C56.7401 51.8696 57.1512 51.4569 57.2883 50.9065C57.5624 50.081 57.0142 49.1179 56.1919 48.8428C55.5066 48.7052 54.8214 48.8428 54.4102 49.3931C54.5473 48.5676 54.1361 47.7421 53.3138 47.4669C53.862 47.3293 54.4102 46.9166 54.5473 46.2287C54.6843 45.4032 54.1361 44.4401 53.3138 44.3025C52.7656 44.1649 52.2174 44.3025 51.8063 44.7152C51.8063 43.8897 51.2581 43.0642 50.4358 42.9267C50.4358 42.9267 50.4358 42.9267 50.2987 42.9267C50.8469 42.9267 51.2581 42.6515 51.5322 42.2387C51.3951 43.0642 51.9433 43.8897 52.7656 44.0273C53.5879 44.1649 54.4102 43.6146 54.5473 42.7891C54.6843 41.9636 54.1361 41.1381 53.3138 41.0005C52.7656 40.8629 52.0804 41.1381 51.8063 41.5508V41.4132C51.9433 40.4501 51.2581 39.6246 50.4358 39.4871C50.0246 39.3495 49.4764 39.4871 49.2023 39.7622C49.2023 38.9367 48.5171 38.2488 47.5577 38.1112C47.1466 38.1112 46.7354 38.1112 46.4613 38.3864C46.3243 37.6985 45.7761 37.2857 45.0908 37.1481C45.2279 37.1481 45.502 37.0105 45.639 36.873L45.7761 36.7354C45.9131 37.4233 46.5984 37.9736 47.2836 37.9736C47.8318 37.9736 48.243 37.836 48.6541 37.4233C48.6541 38.2488 49.2023 38.9367 50.0246 39.0743C50.8469 39.2119 51.6692 38.524 51.8063 37.6985C51.9433 36.873 51.2581 36.0475 50.4358 35.9099C49.8876 35.9099 49.4764 36.0475 49.0653 36.3226C49.0653 35.3595 48.38 34.534 47.5577 34.534C47.1466 34.534 46.8725 34.6716 46.4613 34.8092C46.4613 34.6716 46.3243 34.3964 46.1872 34.2589C45.9131 33.7085 45.2279 33.2958 44.6797 33.2958L44.8167 53.6582ZM44.8167 53.6582L66.6077 64.6649L44.8167 53.6582ZM66.6077 64.6649C66.6077 64.6649 66.4706 64.6649 66.6077 64.6649C65.7854 64.2522 65.3742 63.2891 65.7854 62.6011C66.1965 61.9132 67.0188 61.5005 67.8411 61.9132C68.5264 62.326 68.9375 63.1515 68.5264 63.977C68.2523 64.3897 67.8411 64.6649 67.43 64.8025L66.6077 64.6649ZM64.5519 63.0139C64.826 63.1515 64.9631 63.2891 65.1001 63.5642C65.3742 64.1146 65.3742 64.8025 65.1001 65.3528L62.085 63.7018C62.2221 63.4267 62.4962 63.1515 62.7703 63.0139C62.9073 63.0139 63.0444 62.8763 63.1814 62.8763C62.4962 62.4636 62.2221 61.5005 62.6332 60.8126C63.0444 59.9871 64.0037 59.7119 64.826 60.1246C65.6483 60.5374 65.9224 61.5005 65.5113 62.326C65.2372 62.6011 64.9631 62.8763 64.5519 63.0139ZM65.3742 65.4904C65.5113 65.2152 65.7854 65.0777 65.9224 64.8025C66.7447 64.3897 67.7041 64.6649 68.1152 65.3528C68.3893 65.9032 68.3893 66.5911 68.1152 67.0038L65.3742 65.4904ZM46.0502 29.0307C46.0502 29.9938 46.5984 30.6817 47.4207 30.8193C48.243 30.8193 48.9282 30.2689 49.0653 29.4434C49.0653 28.6179 48.5171 27.93 47.6948 27.7924C47.1466 27.7924 46.7354 27.93 46.4613 28.3428C46.3243 28.4803 46.1872 28.7555 46.0502 29.0307ZM44.8167 29.581V26.279C45.3649 26.279 45.9131 26.5542 46.1872 27.1045C46.5984 27.93 46.3243 28.8931 45.639 29.3058C45.3649 29.581 45.0908 29.581 44.8167 29.581ZM45.9131 32.883C45.7761 33.0206 45.7761 33.0206 45.639 33.1582C45.3649 33.2958 45.0908 33.4334 44.8167 33.4334V29.9938C45.3649 29.9938 45.9131 30.2689 46.3243 30.8193C46.4613 31.0944 46.5984 31.3696 46.5984 31.6448C46.8725 31.3696 47.2836 31.232 47.6948 31.232C48.5171 31.232 49.2023 32.0575 49.2023 32.883C49.2023 33.7085 48.38 34.3964 47.5577 34.3964C46.5984 34.3964 45.9131 33.7085 45.9131 32.883ZM45.9131 30.2689C45.639 29.9938 45.2279 29.8562 44.8167 29.8562C45.2279 29.9938 45.502 30.1313 45.9131 30.2689ZM70.308 66.5911C70.4451 66.5911 70.5821 66.7287 70.7192 66.7287C70.8562 66.7287 70.8562 66.8662 70.9933 66.8662C71.2674 67.1414 71.5415 67.6917 71.5415 68.1045C71.5415 68.3797 71.4044 68.6548 71.4044 68.7924L68.5264 67.4166C68.5264 67.4166 68.5264 67.279 68.6634 67.279C69.0746 66.7287 69.7598 66.4535 70.308 66.5911ZM80.3127 72.7824C80.7238 73.1951 80.7238 73.883 80.4497 74.2958L78.2569 72.9199C78.6681 72.232 79.3533 72.0944 80.0386 72.5072C80.1756 72.5072 80.3127 72.6448 80.3127 72.7824ZM77.7087 69.2052C77.4346 69.8931 76.6123 70.0307 75.9271 69.7555C75.2418 69.4803 75.1048 68.6548 75.3789 67.9669C75.653 67.279 76.4753 67.1414 77.1605 67.4166C77.7087 67.8293 77.9828 68.5173 77.7087 69.2052ZM74.8307 64.1146C74.5566 64.8025 73.7343 65.0777 73.1861 64.6649C72.5008 64.3897 72.2267 63.5642 72.6379 63.0139C72.912 62.326 73.7343 62.0508 74.2825 62.4636C74.8307 62.7387 75.1048 63.5642 74.8307 64.1146ZM71.2674 57.373C71.9526 57.6481 72.2267 58.336 71.9526 59.024C71.6785 59.7119 70.9933 59.9871 70.308 59.7119C69.6228 59.4367 69.3487 58.7488 69.6228 58.0609C69.8969 57.373 70.5821 57.0978 71.2674 57.373ZM67.43 54.7589C66.7447 54.4837 66.4706 53.7958 66.7447 53.1079C67.0188 52.4199 67.7041 52.1448 68.3893 52.4199C69.0746 52.6951 69.3487 53.383 69.0746 54.0709C68.8005 54.6213 68.1152 55.034 67.43 54.7589ZM63.7296 48.1548C64.0037 47.4669 64.689 47.0542 65.3742 47.3293C66.0595 47.6045 66.4706 48.2924 66.1965 48.9803C65.9224 49.6683 65.2372 50.081 64.5519 49.8058C63.8667 49.5307 63.5926 48.8428 63.7296 48.1548ZM60.8516 43.2018C60.9886 42.5139 61.6739 42.1011 62.3591 42.3763C63.0444 42.5139 63.4555 43.2018 63.1814 43.8897C63.0444 44.5777 62.3591 44.9904 61.6739 44.7152C61.1257 44.5777 60.7145 43.8897 60.8516 43.2018ZM57.9735 38.2488C58.1106 37.5609 58.7958 37.1481 59.4811 37.2857C60.1663 37.4233 60.5775 38.1112 60.4404 38.7991C60.3034 39.4871 59.6181 39.8998 58.9329 39.7622C58.2476 39.6246 57.8365 38.9367 57.9735 38.2488ZM55.0955 33.2958C55.2325 32.6079 55.9178 32.1951 56.603 32.3327C57.2883 32.4703 57.6994 33.1582 57.5624 33.8461C57.4253 34.534 56.7401 34.9468 56.0548 34.9468C55.3696 34.534 54.9584 33.9837 55.0955 33.2958ZM52.2174 28.3428C52.3545 27.6548 52.9027 27.1045 53.5879 27.2421C54.2732 27.3797 54.8214 27.93 54.6843 28.6179C54.5473 29.3058 53.9991 29.8562 53.3138 29.7186C52.4915 29.581 52.0804 29.0307 52.2174 28.3428ZM49.2023 23.2521C49.2023 22.5642 49.8876 22.0139 50.5728 22.0139C51.2581 22.0139 51.8063 22.7018 51.8063 23.3897C51.8063 24.0777 51.121 24.628 50.4358 24.628C49.7505 24.628 49.2023 24.0777 49.2023 23.2521ZM46.3243 18.2991C46.3243 17.6112 47.0095 17.0609 47.6948 17.0609C48.38 17.0609 48.9282 17.7488 48.9282 18.4367C48.9282 19.1246 48.243 19.675 47.5577 19.675C46.8725 19.675 46.3243 19.1246 46.3243 18.2991ZM44.8167 12.1079C45.502 12.1079 46.0502 12.6582 46.0502 13.4837C46.0502 13.7589 45.9131 14.034 45.7761 14.3092C45.502 14.5844 45.2279 14.7219 44.8167 14.7219V12.1079ZM83.4648 74.5709C83.876 74.9837 83.876 75.534 83.6019 76.0844L81.5461 74.8461C81.8202 74.2958 82.6425 74.0206 83.1907 74.4334C83.3278 74.4334 83.3278 74.5709 83.4648 74.5709ZM80.7238 70.9938C80.4497 71.5441 79.6274 71.8193 79.0792 71.5441C78.531 71.2689 78.2569 70.4434 78.531 69.8931C78.8051 69.3428 79.6274 69.0676 80.1756 69.3428C80.8609 69.6179 80.9979 70.4434 80.7238 70.9938ZM77.8458 65.9032C77.5717 66.4535 76.8864 66.7287 76.2012 66.4535C75.653 66.1783 75.3789 65.4904 75.653 64.8025C75.9271 64.2522 76.6123 63.977 77.2976 64.2522C77.8458 64.5273 78.1199 65.2152 77.8458 65.9032ZM74.9677 60.8126C74.6936 61.3629 74.0084 61.6381 73.4602 61.5005C72.912 61.2253 72.6379 60.5374 72.7749 59.987C73.049 59.4367 73.7343 59.1615 74.2825 59.2991C74.9677 59.4367 75.2418 60.1246 74.9677 60.8126ZM71.4044 54.0709C71.9526 54.3461 72.3638 55.034 72.0897 55.5844C71.8156 56.1347 71.1303 56.5475 70.5821 56.2723C70.0339 55.9971 69.6228 55.3092 69.8969 54.7589C70.0339 54.2085 70.7192 53.9334 71.4044 54.0709ZM67.567 51.3193C66.8818 51.0441 66.6077 50.4938 66.8818 49.8058C67.1559 49.1179 67.7041 48.8428 68.3893 49.1179C69.0746 49.3931 69.3487 49.9434 69.0746 50.6313C68.9375 51.1817 68.2523 51.4569 67.567 51.3193ZM64.0037 44.8528C64.1408 44.1649 64.826 43.8897 65.5113 44.0273C66.1965 44.1649 66.4706 44.8528 66.3336 45.5407C66.1965 46.2287 65.5113 46.5038 64.826 46.3662C64.1408 46.0911 63.7296 45.4032 64.0037 44.8528ZM60.9886 39.7622C61.1257 39.0743 61.8109 38.7991 62.3591 38.9367C63.0444 39.0743 63.3185 39.7622 63.1814 40.3126C63.0444 41.0005 62.3591 41.2756 61.8109 41.1381C61.2627 41.0005 60.8516 40.4501 60.9886 39.7622ZM58.1106 34.8092C58.2476 34.1213 58.9329 33.7085 59.4811 33.8461C60.1663 33.9837 60.5775 34.6716 60.4404 35.222C60.3034 35.9099 59.6181 36.3226 59.0699 36.185C58.3847 36.0475 57.9735 35.3595 58.1106 34.8092ZM55.2325 29.7186C55.3696 29.0307 55.9178 28.6179 56.603 28.7555C57.2883 28.8931 57.6994 29.4434 57.5624 30.1313C57.4253 30.8193 56.8771 31.232 56.1919 31.0944C55.5066 30.9569 55.0955 30.4065 55.2325 29.7186ZM52.2174 24.7656C52.3545 24.0777 52.9027 23.6649 53.5879 23.6649C54.2732 23.8025 54.6843 24.3528 54.6843 25.0407C54.5473 25.7287 53.9991 26.1414 53.3138 26.1414C52.6286 26.0038 52.2174 25.4535 52.2174 24.7656ZM49.3394 19.8126C49.3394 19.1246 50.0246 18.7119 50.5728 18.7119C51.2581 18.7119 51.6692 19.3998 51.6692 19.9501C51.6692 20.6381 50.984 21.0508 50.4358 21.0508C49.7505 21.0508 49.3394 20.3629 49.3394 19.8126ZM46.4613 14.7219C46.4613 14.034 47.0095 13.4837 47.6948 13.6213C48.38 13.6213 48.9282 14.1716 48.7912 14.8595C48.7912 15.5475 48.243 16.0978 47.5577 15.9602C46.8725 15.9602 46.4613 15.4099 46.4613 14.7219ZM44.8167 8.53067C45.0908 8.53067 45.2279 8.66826 45.502 8.80584C45.7761 9.08101 46.0502 9.35618 46.0502 9.76893C46.0502 10.4568 45.502 11.0072 44.8167 11.0072V8.53067ZM86.3429 76.6347C86.617 76.9099 86.754 77.3226 86.4799 77.7354L84.8353 76.7723C85.1094 76.3595 85.6576 76.222 86.0688 76.4971C86.2058 76.4971 86.3429 76.6347 86.3429 76.6347ZM83.6019 72.6448C83.3278 73.0575 82.7796 73.1951 82.3684 73.0575C81.9573 72.7824 81.8202 72.232 81.9573 71.8193C82.2314 71.4065 82.7796 71.2689 83.1907 71.4065C83.6019 71.6817 83.876 72.232 83.6019 72.6448ZM80.7238 67.5542C80.4497 67.9669 79.9015 68.2421 79.4904 67.9669C79.0792 67.6918 78.8051 67.1414 79.0792 66.7287C79.3533 66.3159 79.9015 66.0407 80.3127 66.3159C80.7238 66.4535 80.8609 67.0038 80.7238 67.5542ZM77.7087 62.326C77.5717 62.7387 77.0235 63.0139 76.4753 62.7387C76.0641 62.6011 75.79 62.0508 76.0641 61.5005C76.2012 61.0877 76.7494 60.8126 77.2976 61.0877C77.7087 61.3629 77.9828 61.9132 77.7087 62.326ZM74.2825 56.1347C74.6936 56.2723 74.9677 56.8226 74.8307 57.2354C74.6936 57.6481 74.1454 57.9233 73.7343 57.7857C73.3231 57.6481 73.049 57.0978 73.1861 56.685C73.3231 56.1347 73.8713 55.9971 74.2825 56.1347ZM70.7192 52.6951C70.308 52.5575 70.0339 52.0072 70.171 51.5944C70.308 51.1817 70.8562 50.9065 71.2674 51.0441C71.6785 51.1817 71.9526 51.732 71.8156 52.1448C71.6785 52.5575 71.2674 52.8327 70.7192 52.6951ZM67.2929 46.5038C67.43 46.0911 67.9782 45.8159 68.3893 45.9535C68.8005 46.0911 69.0746 46.6414 68.9375 47.0542C68.8005 47.4669 68.2523 47.7421 67.8411 47.6045C67.43 47.4669 67.1559 46.9166 67.2929 46.5038ZM64.4149 41.4132C64.5519 41.0005 64.9631 40.7253 65.5113 40.7253C65.9224 40.8629 66.1965 41.2756 66.1965 41.826C66.0595 42.2387 65.6483 42.5139 65.1001 42.5139C64.5519 42.3763 64.2778 41.9636 64.4149 41.4132ZM61.3998 36.4602C61.5368 36.0475 61.948 35.6347 62.4962 35.7723C62.9073 35.9099 63.3185 36.3226 63.1814 36.873C63.0444 37.2857 62.6332 37.6985 62.085 37.5609C61.6739 37.2857 61.2627 36.873 61.3998 36.4602ZM58.5217 31.3696C58.6588 30.9569 59.0699 30.5441 59.6181 30.6817C60.0293 30.8193 60.4404 31.232 60.3034 31.7824C60.1663 32.1951 59.7552 32.6079 59.207 32.4703C58.7958 32.3327 58.3847 31.7824 58.5217 31.3696ZM55.5066 26.279C55.6437 25.7287 56.0548 25.4535 56.466 25.5911C57.0142 25.7287 57.2883 26.1414 57.1512 26.5542C57.0142 27.1045 56.603 27.3797 56.1919 27.2421C55.7807 27.2421 55.5066 26.8293 55.5066 26.279ZM52.6286 21.1884C52.6286 20.6381 53.1768 20.3629 53.5879 20.3629C54.1361 20.3629 54.4102 20.9132 54.4102 21.326C54.4102 21.8763 53.862 22.1515 53.4509 22.1515C52.9027 22.1515 52.6286 21.7387 52.6286 21.1884ZM49.7505 16.2354C49.7505 15.685 50.1617 15.4099 50.7099 15.4099C51.2581 15.4099 51.5322 15.8226 51.5322 16.373C51.5322 16.9233 51.121 17.1985 50.5728 17.1985C50.0246 17.0609 49.6135 16.6481 49.7505 16.2354ZM46.7354 11.1448C46.7354 10.5944 47.1466 10.1817 47.6948 10.3193C48.243 10.3193 48.6541 10.732 48.5171 11.2824C48.5171 11.8327 48.1059 12.2454 47.5577 12.1079C47.1466 12.1079 46.7354 11.6951 46.7354 11.1448ZM44.8167 5.09108C45.3649 5.09108 45.7761 5.50383 45.7761 6.05416C45.7761 6.19175 45.7761 6.46692 45.639 6.6045C45.502 6.87967 45.2279 7.01725 44.9538 7.01725V5.09108H44.8167ZM89.358 79.3864L88.2616 78.836C88.3986 78.5609 88.8098 78.4233 89.0839 78.5609C89.2209 78.5609 89.2209 78.6985 89.358 78.6985C89.495 78.9736 89.495 79.2488 89.358 79.3864ZM86.4799 74.2958C86.3429 74.5709 85.9317 74.7085 85.6576 74.5709C85.3835 74.4334 85.2465 74.0206 85.3835 73.7454C85.5206 73.4703 85.9317 73.3327 86.2058 73.4703C86.4799 73.6079 86.617 74.0206 86.4799 74.2958ZM83.4648 69.2052C83.3278 69.4803 82.9166 69.6179 82.6425 69.4803C82.3684 69.3428 82.2314 68.93 82.3684 68.6548C82.5055 68.3797 82.9166 68.2421 83.1907 68.3797C83.4648 68.5173 83.6019 68.7924 83.4648 69.2052ZM80.5868 63.977C80.4497 64.2522 80.0386 64.3897 79.7645 64.2522C79.4904 64.1146 79.3533 63.7018 79.4904 63.4266C79.6274 63.1515 80.0386 63.0139 80.3127 63.1515C80.5868 63.4267 80.7238 63.7018 80.5868 63.977ZM77.5717 58.8864C77.4346 59.1615 77.1605 59.2991 76.7494 59.1615C76.4753 59.024 76.3382 58.7488 76.4753 58.336C76.6123 58.0609 76.8864 57.9233 77.2976 58.0609C77.5717 58.1985 77.7087 58.6112 77.5717 58.8864ZM74.0084 54.0709C73.7343 53.9334 73.5972 53.6582 73.5972 53.383C73.7343 53.1079 74.0084 52.9703 74.2825 52.9703C74.5566 53.1079 74.6936 53.383 74.6936 53.6582C74.5566 54.0709 74.2825 54.2085 74.0084 54.0709ZM70.9933 48.9803C70.7192 48.8428 70.5821 48.5676 70.5821 48.2924C70.7192 48.0173 70.9933 47.8797 71.2674 47.8797C71.5415 48.0173 71.6785 48.2924 71.6785 48.5676C71.6785 48.9803 71.2674 49.1179 70.9933 48.9803ZM67.7041 43.2018C67.8411 42.9266 68.1152 42.6515 68.3893 42.7891C68.6634 42.9267 68.9375 43.2018 68.8005 43.477C68.6634 43.7522 68.3893 44.0273 68.1152 43.8897C67.8411 43.7522 67.567 43.477 67.7041 43.2018ZM64.826 38.1112C64.9631 37.836 65.2372 37.5609 65.5113 37.6985C65.7854 37.836 66.0595 38.1112 65.9224 38.3864C65.7854 38.6615 65.5113 38.9367 65.2372 38.7991C64.826 38.6615 64.689 38.3864 64.826 38.1112ZM61.8109 33.0206C61.8109 32.7454 62.2221 32.4703 62.4962 32.6079C62.7703 32.6079 63.0444 33.0206 62.9073 33.2958C62.9073 33.5709 62.4962 33.8461 62.2221 33.7085C61.948 33.5709 61.8109 33.2958 61.8109 33.0206ZM58.9329 27.93C58.9329 27.6548 59.344 27.3797 59.6181 27.5173C59.8922 27.5173 60.1663 27.93 60.0293 28.2052C60.0293 28.4803 59.6181 28.7555 59.344 28.6179C59.0699 28.4803 58.7958 28.2052 58.9329 27.93ZM55.9178 22.8394C55.9178 22.5642 56.1919 22.2891 56.603 22.2891C56.8771 22.2891 57.1512 22.5642 57.1512 22.977C57.1512 23.2522 56.8771 23.5273 56.466 23.5273C56.0548 23.3897 55.9178 23.1146 55.9178 22.8394ZM53.0397 17.7488C53.0397 17.4736 53.3138 17.1985 53.725 17.1985C53.9991 17.1985 54.2732 17.4736 54.2732 17.8864C54.2732 18.1615 53.9991 18.4367 53.5879 18.4367C53.1768 18.2991 52.9027 18.024 53.0397 17.7488ZM50.0246 12.6582C50.0246 12.383 50.2987 12.1079 50.7099 12.1079C50.984 12.1079 51.2581 12.383 51.2581 12.7958C51.2581 13.0709 50.984 13.3461 50.5728 13.3461C50.2987 13.2085 50.0246 12.9334 50.0246 12.6582ZM47.1466 7.56759C47.1466 7.29242 47.4207 7.01725 47.8318 7.01725C48.1059 7.01725 48.38 7.29242 48.38 7.70517C48.38 7.98034 48.1059 8.25551 47.6948 8.25551C47.2836 8.11792 47.0095 7.84275 47.1466 7.56759ZM44.8167 1.78906C44.9538 1.78906 45.2279 1.92665 45.3649 2.06423C45.3649 2.20181 45.502 2.20181 45.502 2.3394C45.502 2.61457 45.2279 2.88973 44.9538 2.88973V1.78906H44.8167ZM73.8713 68.6548C74.5566 69.0676 74.8307 69.8931 74.4195 70.581V70.7186L71.8156 69.2052C72.0897 68.7924 72.5008 68.5173 72.912 68.5173C73.3231 68.5173 73.5972 68.5173 73.8713 68.6548ZM71.5415 65.7656C71.9526 65.0777 71.6785 64.1146 70.8562 63.8394C70.171 63.4267 69.2116 63.7018 68.9375 64.5273C68.5264 65.2152 68.8005 66.1783 69.6228 66.4535C70.308 66.7287 71.1303 66.4535 71.5415 65.7656ZM68.8005 60.675C68.5264 61.3629 67.567 61.7756 66.8818 61.3629C66.1965 61.0877 65.7854 60.1246 66.1965 59.4367C66.4706 58.7488 67.43 58.336 68.1152 58.7488C68.8005 59.1616 69.0746 59.987 68.8005 60.675ZM65.1001 53.7958C65.7854 54.0709 66.1965 54.8965 65.9224 55.5844C65.6483 56.2723 64.826 56.685 64.1408 56.4099C63.4555 56.1347 63.0444 55.3092 63.3185 54.6213C63.5926 53.9334 64.4149 53.5206 65.1001 53.7958ZM61.2627 51.5944C60.5775 51.3193 60.1663 50.4938 60.3034 49.8058C60.5775 49.1179 61.3998 48.7052 62.085 48.8428C62.7703 49.1179 63.1814 49.9434 63.0444 50.6313C62.9073 51.4569 62.085 51.8696 61.2627 51.5944ZM57.5624 44.9904C57.6994 44.1649 58.5217 43.7522 59.344 44.0273C60.1663 44.1649 60.5775 44.9904 60.3034 45.8159C60.1663 46.6414 59.344 47.0542 58.5217 46.779C57.8365 46.5038 57.2883 45.6783 57.5624 44.9904ZM54.6843 40.175C54.8214 39.3495 55.6437 38.9367 56.3289 39.0743C57.1512 39.2119 57.5624 40.0374 57.4253 40.7253C57.2883 41.5508 56.466 41.9636 55.7807 41.826C55.0955 41.6884 54.5473 40.8629 54.6843 40.175ZM54.6843 35.6347C54.5473 36.4602 53.862 37.0105 53.0397 36.873C52.2174 36.7354 51.6692 36.0475 51.8063 35.222C51.9433 34.3965 52.6286 33.8461 53.4509 33.9837C54.2732 34.1213 54.8214 34.9468 54.6843 35.6347ZM50.2987 31.9199C49.4764 31.7824 48.9282 31.0944 49.0653 30.4065C49.2023 29.581 49.8876 29.0307 50.5728 29.1683C51.3951 29.3058 51.9433 29.9938 51.8063 30.6817C51.8063 31.5072 51.121 32.0575 50.2987 31.9199ZM47.5577 27.1045C48.38 27.1045 49.0653 26.5542 49.0653 25.7287C49.0653 24.9032 48.5171 24.2152 47.6948 24.2152C46.8725 24.2152 46.1872 24.7656 46.1872 25.5911C46.0502 26.279 46.7354 26.9669 47.5577 27.1045ZM44.8167 19.2622C45.502 19.2622 46.0502 19.675 46.1872 20.3629C46.1872 20.5005 46.1872 20.6381 46.1872 20.7756C46.1872 21.6011 45.502 22.2891 44.6797 22.2891L44.8167 19.2622ZM57.2883 47.6045C57.0142 48.43 56.1919 48.9803 55.3696 48.7052C54.5473 48.43 53.9991 47.6045 54.2732 46.779C54.5473 45.9535 55.3696 45.4032 56.1919 45.6783C57.0142 45.8159 57.5624 46.779 57.2883 47.6045ZM64.9631 57.0978C65.7854 57.373 66.0595 58.336 65.7854 59.024C65.5113 59.8495 64.5519 60.1246 63.8667 59.8495C63.0444 59.5743 62.7703 58.6112 63.0444 57.9233C63.3185 57.0978 64.1408 56.685 64.9631 57.0978ZM60.1663 52.9703C60.4404 52.1448 61.2627 51.732 62.085 52.0072C62.9073 52.2824 63.3185 53.1079 63.0444 53.9334C62.7703 54.7589 61.948 55.1716 61.1257 54.8965C60.3034 54.6213 59.8922 53.7958 60.1663 52.9703ZM60.1663 49.1179C59.8922 49.9434 59.0699 50.3562 58.2476 50.081C57.4253 49.8058 57.0142 48.9803 57.2883 48.1548C57.5624 47.3293 58.3847 46.9166 59.207 47.1917C60.0293 47.4669 60.4404 48.2924 60.1663 49.1179ZM54.5473 43.477C54.6843 42.6515 55.5066 42.2387 56.3289 42.3763C57.1512 42.5139 57.5624 43.3394 57.4253 44.1649C57.2883 44.9904 56.466 45.4032 55.6437 45.2656C54.8214 45.128 54.2732 44.3025 54.5473 43.477ZM51.6692 38.6615C51.8063 37.836 52.6286 37.2857 53.4509 37.4233C54.2732 37.5609 54.8214 38.3864 54.6843 39.2119C54.5473 40.0374 53.725 40.5877 52.9027 40.4501C52.0804 40.3126 51.5322 39.4871 51.6692 38.6615ZM51.8063 34.2589C51.6692 35.0844 50.984 35.6347 50.1617 35.6347C49.3394 35.4971 48.7912 34.8092 48.7912 33.9837C48.9282 33.1582 49.6135 32.6079 50.4358 32.6079C51.3951 32.6079 51.9433 33.4334 51.8063 34.2589ZM74.9677 71.1313C75.3789 70.4434 76.2012 70.1683 76.8864 70.581C77.0235 70.7186 77.1605 70.7186 77.1605 70.8562C77.5717 71.2689 77.7087 71.9569 77.2976 72.5072L74.9677 71.1313ZM74.5566 67.4166C74.1454 68.1045 73.3231 68.3797 72.7749 67.9669C72.0897 67.5542 71.8156 66.7287 72.2267 66.1783C72.6379 65.4904 73.4602 65.2152 74.0084 65.628C74.6936 65.9032 74.9677 66.7287 74.5566 67.4166ZM71.8156 62.4636C71.5415 63.1515 70.7192 63.4267 70.0339 63.1515C69.3487 62.8763 69.0746 62.0508 69.3487 61.3629C69.6228 60.675 70.4451 60.3998 71.1303 60.675C71.8156 60.9501 72.0897 61.7756 71.8156 62.4636ZM68.1152 55.5844C68.8005 55.8595 69.0746 56.685 68.8005 57.373C68.5264 58.0609 67.7041 58.336 67.0188 58.0609C66.3336 57.7857 66.0595 56.9602 66.3336 56.2723C66.7447 55.722 67.43 55.3092 68.1152 55.5844ZM64.4149 53.1079C65.1001 53.383 65.9224 52.9703 66.0595 52.2824C66.3336 51.5944 65.9224 50.7689 65.2372 50.6313C64.5519 50.3562 63.7296 50.7689 63.5926 51.4569C63.3185 52.1448 63.5926 52.9703 64.4149 53.1079ZM60.5775 46.5038C60.8516 45.8159 61.5368 45.4032 62.2221 45.5407C62.9073 45.8159 63.3185 46.5038 63.1814 47.1917C62.9073 47.8797 62.2221 48.2924 61.5368 48.1548C60.8516 48.0173 60.4404 47.1917 60.5775 46.5038ZM57.6994 41.5508C57.8365 40.8629 58.6588 40.4501 59.344 40.5877C60.0293 40.7253 60.4404 41.5508 60.3034 42.2387C60.1663 42.9267 59.344 43.3394 58.6588 43.2018C57.9735 43.0642 57.5624 42.3763 57.6994 41.5508ZM54.8214 36.7354C54.9584 36.0475 55.6437 35.4971 56.3289 35.6347C57.0142 35.7723 57.5624 36.4602 57.4253 37.1481C57.2883 37.836 56.603 38.3864 55.9178 38.2488C55.2325 38.1112 54.6843 37.4233 54.8214 36.7354ZM51.9433 31.7824C51.8063 32.4703 52.3545 33.1582 53.0397 33.2958C53.725 33.4334 54.4102 32.883 54.5473 32.1951C54.6843 31.5072 54.1361 30.8193 53.4509 30.6817C52.7656 30.5441 52.0804 31.0944 51.9433 31.7824ZM49.0653 26.8293C49.2023 26.1414 49.7505 25.5911 50.5728 25.5911C51.2581 25.7287 51.8063 26.279 51.8063 27.1045C51.6692 27.7924 51.121 28.3428 50.2987 28.3428C49.6135 28.3428 49.0653 27.6548 49.0653 26.8293ZM47.5577 23.3897C48.38 23.3897 48.9282 22.8394 48.9282 22.0139C48.9282 21.1884 48.38 20.6381 47.5577 20.6381C46.7354 20.6381 46.1872 21.1884 46.1872 22.0139C46.1872 22.7018 46.7354 23.3897 47.5577 23.3897ZM44.8167 15.685C45.502 15.685 46.1872 16.373 46.1872 17.0609C46.1872 17.336 46.1872 17.4736 46.0502 17.6112C45.7761 18.024 45.3649 18.4367 44.8167 18.4367V15.685ZM46.3243 24.3528C46.3243 24.628 46.3243 24.7656 46.1872 24.9032C45.9131 25.4535 45.3649 25.8662 44.8167 25.8662V22.7018C45.639 22.8394 46.3243 23.5273 46.3243 24.3528ZM44.8167 53.6582L65.3742 67.1414L44.8167 53.6582ZM62.7703 66.0407C62.9073 66.4535 62.7703 66.8662 62.4962 67.279C61.948 67.9669 60.9886 68.2421 60.3034 67.6917C59.6181 67.1414 59.344 66.1783 59.8922 65.4904C60.3034 64.8025 61.2627 64.5273 61.948 64.9401C61.948 64.8025 61.948 64.6649 61.948 64.5273C61.948 64.2522 62.085 63.8394 62.2221 63.5642L65.2372 65.2152C64.9631 65.7656 64.4149 66.1783 63.7296 66.1783C63.3185 66.3159 63.0444 66.1783 62.7703 66.0407ZM65.3742 65.4904C65.2372 65.7656 65.1001 66.0407 65.1001 66.3159C65.1001 67.279 65.7854 67.9669 66.7447 67.9669C67.2929 67.9669 67.8411 67.6917 68.1152 67.1414L65.3742 65.4904Z" fill="white"/>
<path fill-rule="evenodd" clip-rule="evenodd" d="M44.8158 53.6582L62.0841 63.7018C61.81 64.2522 61.1247 64.6649 60.4395 64.6649C60.1654 64.6649 60.0283 64.6649 59.8913 64.5273C59.8913 64.9401 59.8913 65.2153 59.6172 65.628C59.069 66.4535 58.1096 66.5911 57.2873 66.0408C57.4244 66.4535 57.2873 67.0038 57.0132 67.4166C56.465 68.1045 55.5057 68.2421 54.8204 67.6918C54.1352 67.1414 53.9981 66.1783 54.5463 65.4904C55.0945 64.8025 56.0539 64.6649 56.7391 65.0777C56.6021 64.6649 56.6021 64.1146 57.0132 63.5642C57.4244 62.8763 58.2467 62.7387 58.9319 62.8763C58.9319 62.8763 58.9319 62.7387 58.9319 62.6012C58.9319 62.4636 58.9319 62.1884 59.069 62.0508C58.6578 62.6012 57.9726 62.8763 57.2873 62.7387C57.2873 63.0139 57.1503 63.2891 57.0132 63.5642C56.465 64.2522 55.6427 64.5273 54.8204 64.1146C54.8204 64.5273 54.8204 65.0777 54.5463 65.3528C53.9981 66.0408 52.9017 66.1783 52.2165 65.628C52.2165 65.628 52.0794 65.628 52.0794 65.4904C52.3535 66.0408 52.2165 66.7287 51.8053 67.1414C51.2571 67.8293 50.2978 67.8294 49.6125 67.279C48.9273 66.7287 48.9273 65.7656 49.4755 65.0777C50.0237 64.3898 50.983 64.3898 51.6683 64.9401C51.5312 64.5273 51.5312 63.977 51.6683 63.4267C51.6683 63.4267 51.6683 63.4267 51.6683 63.5642C51.1201 64.2522 50.1607 64.3898 49.3384 63.977C49.4755 64.5273 49.3384 65.0777 48.9273 65.4904C48.242 66.1783 47.2827 66.1783 46.5974 65.628C46.0492 65.2153 45.9122 64.5273 46.1863 63.8394C45.501 64.3898 44.5417 64.3898 43.8564 63.8394C43.9935 64.3898 43.8565 65.0777 43.4453 65.628C42.76 66.3159 41.6636 66.1783 41.1154 65.4904C40.7043 65.0777 40.5673 64.5273 40.7043 63.977C40.0191 64.3898 39.0597 64.2522 38.3745 63.5642C38.3745 63.5642 38.3745 63.5642 38.3745 63.4267C38.6486 63.8394 38.6486 64.3898 38.3745 64.9401C39.0597 64.3898 40.0191 64.3898 40.5673 65.0777C41.1154 65.7656 41.1154 66.7287 40.4302 67.279C39.7449 67.8294 38.7856 67.8293 38.2374 67.1414C37.8263 66.7287 37.6892 66.0408 37.9633 65.4904C37.9633 65.4904 37.8263 65.4904 37.8263 65.628C37.141 66.1783 36.0446 66.0408 35.4964 65.3528C35.2223 64.9401 35.0853 64.5273 35.2223 64.1146C34.4 64.5273 33.5777 64.2522 33.0295 63.5642C32.7554 63.2891 32.7554 62.8763 32.7554 62.4636C32.0702 62.6012 31.3849 62.4636 30.9738 61.9132C31.1108 62.0508 31.1108 62.326 31.1108 62.4636C31.1108 62.6012 31.1108 62.6012 31.1108 62.6012C31.7961 62.4636 32.6184 62.6012 33.0295 63.2891C33.3036 63.7018 33.4407 64.2522 33.3036 64.8025C33.9889 64.3897 34.9482 64.5273 35.4964 65.2153C36.0446 65.9032 35.9076 66.8663 35.2223 67.4166C34.5371 67.9669 33.5777 67.8293 33.0295 67.1414C32.7554 66.7287 32.6184 66.1783 32.7554 65.7656C31.9331 66.3159 30.9738 66.0408 30.4256 65.3528C30.1515 65.0777 30.1515 64.6649 30.1515 64.2522C30.0144 64.2522 29.7403 64.3898 29.6033 64.3898C28.918 64.3898 28.3698 63.977 28.0957 63.5642L44.8158 53.6582Z" fill="white"/>
<path fill-rule="evenodd" clip-rule="evenodd" d="M65.2354 67.004C64.4131 66.4537 63.4538 66.7289 63.0426 67.4168C62.6315 68.1047 62.7685 69.0678 63.4538 69.4805C64.139 69.8933 65.0984 69.7557 65.5095 69.0678C65.7836 68.655 65.7836 68.1047 65.6466 67.6919L65.2354 67.004ZM24.1205 67.004C24.1205 67.004 24.2575 67.004 24.1205 67.004C24.9428 66.4537 25.9021 66.5913 26.3133 67.4168C26.7244 68.1047 26.5874 69.0678 25.9021 69.4805C25.2169 69.8933 24.2575 69.7557 23.8464 69.0678C23.5723 68.655 23.5723 68.1047 23.7093 67.6919C23.8464 67.5544 23.9834 67.2792 24.1205 67.004ZM68.7987 69.343C68.9358 69.4805 69.0728 69.6181 69.2099 69.6181C69.3469 69.6181 69.3469 69.7557 69.484 69.7557C69.8951 69.8933 70.4433 69.8933 70.7174 69.6181C70.8545 69.4805 71.1286 69.343 71.2656 69.0678L68.5246 67.4168C68.5246 67.4168 68.5247 67.5544 68.3876 67.5544C68.2505 68.1047 68.3876 68.7926 68.7987 69.343ZM79.0775 74.9839C79.6257 75.1215 80.1739 74.8463 80.448 74.296L78.2552 72.9201C77.844 73.608 78.1181 74.296 78.6663 74.7087C78.8034 74.8463 78.9404 74.9839 79.0775 74.9839ZM74.6919 74.4335C75.103 73.8832 74.8289 73.0577 74.2807 72.645C73.7325 72.2322 72.9102 72.5074 72.4991 73.0577C72.0879 73.608 72.362 74.4336 72.9102 74.8463C73.4584 75.1215 74.2807 74.9839 74.6919 74.4335ZM68.7987 74.4335C69.2099 73.8832 69.0728 73.0577 68.5246 72.645C67.9764 72.2322 67.1541 72.3698 66.743 72.9201C66.3318 73.4705 66.4689 74.296 67.0171 74.7087C67.7023 75.1215 68.3876 74.9839 68.7987 74.4335ZM61.261 74.7087C61.8092 75.1215 62.6315 74.9839 63.0426 74.4335C63.4538 73.8832 63.3167 73.0577 62.7685 72.645C62.2203 72.2322 61.398 72.3698 60.9869 72.9201C60.5757 73.4705 60.7128 74.296 61.261 74.7087ZM57.0124 72.7825C56.4642 72.3698 55.6419 72.3698 55.2308 72.9201C54.8196 73.4705 54.8197 74.296 55.3679 74.7087C55.9161 75.1215 56.7383 75.1215 57.1495 74.5711C57.6977 74.0208 57.5606 73.1953 57.0124 72.7825ZM49.6118 72.9201C49.2006 73.4705 49.2006 74.296 49.7488 74.7087C50.297 75.1215 51.1193 75.1215 51.5304 74.5711C51.9416 74.0208 51.9416 73.1953 51.3934 72.7825C50.8452 72.3698 50.0229 72.3698 49.6118 72.9201ZM43.8557 72.7825C43.3075 73.3329 43.3075 74.0208 43.8557 74.5711C44.4039 75.1215 45.0891 75.1215 45.6373 74.5711C46.1855 74.0208 46.1855 73.3329 45.6373 72.7825C45.0891 72.3698 44.2668 72.3698 43.8557 72.7825ZM38.0996 72.7825C37.5514 73.1953 37.5514 74.0208 37.9625 74.5711C38.3737 75.1215 39.196 75.1215 39.7442 74.7087C40.2924 74.296 40.2924 73.4705 39.8812 72.9201C39.333 72.3698 38.6478 72.3698 38.0996 72.7825ZM32.3435 72.7825C31.7953 73.1953 31.7953 74.0208 32.2064 74.5711C32.6176 75.1215 33.4399 75.1215 33.9881 74.7087C34.5363 74.296 34.5363 73.4705 34.1251 72.9201C33.714 72.3698 32.8917 72.2322 32.3435 72.7825ZM26.5874 72.645C26.0392 73.0577 25.9021 73.8832 26.3133 74.4335C26.7244 74.9839 27.5467 75.1215 28.0949 74.7087C28.6431 74.296 28.7802 73.4705 28.369 72.9201C27.9579 72.3698 27.1356 72.2322 26.5874 72.645ZM20.8313 72.645C20.2831 73.0577 20.146 73.8832 20.5572 74.4335C20.9683 74.9839 21.7906 75.1215 22.3388 74.7087C22.887 74.296 23.0241 73.4705 22.6129 72.9201C22.2018 72.3698 21.3795 72.2322 20.8313 72.645ZM15.0752 72.645C14.527 73.0577 14.2529 73.8832 14.664 74.4335C15.0752 74.9839 15.8975 75.2591 16.4457 74.8463C16.9939 74.4336 17.268 73.608 16.8568 73.0577C16.5827 72.3698 15.7604 72.2322 15.0752 72.645ZM8.90792 74.4335C9.31907 74.9839 10.0043 75.2591 10.6896 74.8463C10.9637 74.7087 11.1007 74.4336 11.2378 74.1584C11.3748 73.7456 11.3748 73.4705 11.1007 73.0577L8.90792 74.4335ZM82.2296 76.7725C82.7778 76.9101 83.326 76.6349 83.6001 76.2221L81.5444 74.9839C81.2703 75.5342 81.4073 76.3597 81.9555 76.6349C81.9555 76.6349 82.0926 76.7725 82.2296 76.7725ZM77.707 76.2221C77.2958 76.7725 76.6106 76.9101 76.0624 76.6349C75.5142 76.2221 75.3771 75.5342 75.6512 74.9839C76.0624 74.4336 76.7476 74.296 77.2958 74.5711C77.844 74.8463 78.1181 75.6718 77.707 76.2221ZM71.8138 76.2221C71.4027 76.7725 70.7174 76.9101 70.1692 76.4973C69.621 76.0846 69.484 75.3966 69.8951 74.8463C70.3063 74.296 70.9915 74.1584 71.5397 74.5711C72.0879 74.9839 72.225 75.6718 71.8138 76.2221ZM66.0577 76.2221C65.6466 76.7725 64.9613 76.9101 64.4131 76.4973C63.8649 76.0846 63.7279 75.3966 64.139 74.8463C64.5502 74.296 65.2354 74.1584 65.7836 74.5711C66.3318 74.9839 66.4689 75.6718 66.0577 76.2221ZM58.52 76.4973C59.0682 76.9101 59.7535 76.7725 60.1646 76.3597C60.5758 75.8094 60.4387 75.1215 60.0275 74.7087C59.4793 74.296 58.7941 74.4336 58.3829 74.8463C57.9718 75.2591 57.9718 76.0846 58.52 76.4973ZM54.2715 74.7087C53.7232 74.296 53.038 74.296 52.6269 74.8463C52.2157 75.3966 52.2157 76.0846 52.7639 76.4973C53.3121 76.9101 53.9974 76.9101 54.4085 76.3597C54.6826 75.8094 54.6826 75.1215 54.2715 74.7087ZM46.7337 74.7087C46.3226 75.1215 46.3226 75.947 46.7337 76.3597C47.1449 76.7725 47.9672 76.7725 48.3783 76.3597C48.7895 75.947 48.7895 75.1215 48.3783 74.7087C47.9672 74.1584 47.1449 74.296 46.7337 74.7087ZM40.9776 74.7087C40.5665 75.1215 40.4294 75.947 40.9776 76.3597C41.3888 76.7725 42.2111 76.9101 42.6222 76.3597C43.0334 75.947 43.1704 75.1215 42.6222 74.7087C42.2111 74.296 41.3888 74.1584 40.9776 74.7087ZM35.2215 74.7087C34.6733 75.1215 34.6733 75.947 35.0845 76.3597C35.4956 76.9101 36.3179 76.9101 36.7291 76.4973C37.2773 76.0846 37.2773 75.2591 36.8661 74.8463C36.455 74.296 35.6327 74.1584 35.2215 74.7087ZM29.4654 74.5711C28.9172 74.9839 28.9172 75.6718 29.3284 76.2221C29.7395 76.7725 30.4248 76.7725 30.973 76.3597C31.5212 75.947 31.5212 75.2591 31.11 74.7087C30.6989 74.296 29.8766 74.1584 29.4654 74.5711ZM23.5723 74.5711C24.1205 74.1584 24.8057 74.296 25.2169 74.8463C25.628 75.3966 25.491 76.0846 24.9428 76.4973C24.3946 76.9101 23.7093 76.7725 23.2982 76.2221C23.0241 75.6718 23.1611 74.9839 23.5723 74.5711ZM17.8162 74.5711C18.3644 74.1584 19.0496 74.296 19.4608 74.8463C19.8719 75.3966 19.7349 76.0846 19.1867 76.4973C18.6385 76.9101 17.9532 76.7725 17.5421 76.2221C17.1309 75.6718 17.268 74.9839 17.8162 74.5711ZM12.0601 74.5711C12.6083 74.1584 13.4306 74.4336 13.7047 74.9839C14.1158 75.5342 13.8417 76.3597 13.2935 76.6349C12.7453 77.0476 11.923 76.7725 11.6489 76.2221C11.3748 75.6718 11.5119 74.8463 12.0601 74.5711ZM5.89282 76.2221C6.02987 76.4973 6.16692 76.6349 6.44102 76.6349C6.85217 76.7725 7.26332 76.7725 7.53742 76.6349C8.08562 76.3597 8.35972 75.5342 7.94857 74.9839L5.89282 76.2221ZM85.3818 78.2859C85.7929 78.4235 86.2041 78.1483 86.3411 77.8731L84.6965 76.9101C84.4224 77.3228 84.5595 77.8731 84.9706 78.1483C85.2447 78.1483 85.3818 78.2859 85.3818 78.2859ZM80.585 77.8731C80.8591 77.4604 80.7221 76.9101 80.3109 76.6349C79.8998 76.3597 79.3516 76.4973 79.0775 76.9101C78.8034 77.3228 78.9404 77.8731 79.3516 78.1483C79.7627 78.4235 80.3109 78.2859 80.585 77.8731ZM74.6919 77.8731C74.966 77.4604 74.8289 76.9101 74.4178 76.6349C74.0066 76.3597 73.4584 76.4973 73.1843 76.9101C72.9102 77.3228 73.0473 77.8731 73.4584 78.1483C73.8696 78.4235 74.4178 78.2859 74.6919 77.8731ZM68.7987 77.8731C69.0728 77.4604 69.0728 76.9101 68.6617 76.6349C68.2505 76.3597 67.7023 76.3597 67.4282 76.7725C67.1541 77.1852 67.1541 77.7356 67.5653 78.0107C67.9764 78.4235 68.5246 78.2859 68.7987 77.8731ZM61.6721 78.0107C62.0833 78.2859 62.6315 78.2859 62.9056 77.8731C63.1797 77.4604 63.1797 76.9101 62.7685 76.6349C62.3574 76.3597 61.8092 76.3597 61.5351 76.7725C61.261 77.1852 61.261 77.7356 61.6721 78.0107ZM57.0124 76.6349C56.6013 76.3597 56.0531 76.3597 55.779 76.7725C55.5049 77.1852 55.5049 77.7356 55.916 78.0107C56.3272 78.2859 56.8754 78.2859 57.1495 77.8731C57.4236 77.598 57.2865 77.0476 57.0124 76.6349ZM49.8859 76.7725C49.6118 77.1852 49.6118 77.7356 49.8859 78.0107C50.297 78.2859 50.8452 78.2859 51.1193 78.0107C51.3934 77.598 51.3934 77.0476 51.1193 76.7725C50.8452 76.3597 50.297 76.3597 49.8859 76.7725ZM44.1298 76.7725C43.7186 77.1852 43.7186 77.7356 44.1298 78.0107C44.5409 78.4235 45.0891 78.4235 45.3632 78.0107C45.7744 77.598 45.7744 77.0476 45.3632 76.7725C44.9521 76.3597 44.4039 76.3597 44.1298 76.7725ZM38.2366 76.7725C37.8255 77.0476 37.8255 77.598 38.2366 78.0107C38.5107 78.4235 39.0589 78.4235 39.4701 78.0107C39.8812 77.7356 39.8812 77.1852 39.4701 76.7725C39.196 76.3597 38.6478 76.3597 38.2366 76.7725ZM32.4805 76.6349C32.0694 76.9101 32.0694 77.4604 32.3435 77.8731C32.6176 78.2859 33.1658 78.2859 33.5769 78.0107C33.9881 77.7356 33.9881 77.1852 33.714 76.7725C33.3028 76.3597 32.7546 76.3597 32.4805 76.6349ZM26.5874 76.6349C26.1762 76.9101 26.1762 77.4604 26.4503 77.8731C26.7244 78.2859 27.2726 78.2859 27.6838 78.0107C28.0949 77.7356 28.0949 77.1852 27.8208 76.7725C27.5467 76.3597 26.9985 76.3597 26.5874 76.6349ZM20.8313 76.6349C20.4201 76.9101 20.2831 77.4604 20.6942 77.8731C20.9683 78.2859 21.5165 78.4235 21.9277 78.0107C22.3388 77.7356 22.4759 77.1852 22.0647 76.7725C21.7906 76.4973 21.1054 76.3597 20.8313 76.6349ZM14.9381 76.6349C14.527 76.9101 14.3899 77.4604 14.664 77.8731C14.9381 78.2859 15.4863 78.4235 15.8975 78.1483C16.3086 77.8731 16.4457 77.3228 16.1716 76.9101C15.8975 76.4973 15.3493 76.3597 14.9381 76.6349ZM9.18202 76.6349C8.77087 76.9101 8.63382 77.4604 8.90792 77.8731C9.04497 78.2859 9.59317 78.4235 10.1414 78.1483C10.5525 77.8731 10.6896 77.3228 10.4155 76.9101C10.1414 76.4973 9.59317 76.3597 9.18202 76.6349ZM3.01477 77.8731C3.28887 78.2859 3.83707 78.4235 4.24822 78.1483C4.38527 78.0107 4.52232 77.8731 4.65937 77.7356C4.79642 77.4604 4.79642 77.1852 4.65937 76.9101L3.01477 77.8731ZM89.3562 79.5241L88.2598 78.8362C88.1228 79.1114 88.2598 79.5242 88.5339 79.6617C88.671 79.6617 88.671 79.7993 88.808 79.7993C88.9451 79.7993 89.2192 79.6617 89.3562 79.5241ZM83.4631 79.5241C83.6001 79.249 83.6001 78.8362 83.326 78.6986C83.0519 78.5611 82.6408 78.5611 82.5037 78.8362C82.3667 79.1114 82.3667 79.5242 82.6408 79.6617C82.9149 79.9369 83.326 79.7993 83.4631 79.5241ZM77.5699 79.5241C77.707 79.249 77.707 78.8362 77.4329 78.6986C77.1588 78.5611 76.7476 78.5611 76.6106 78.8362C76.4735 79.1114 76.4735 79.5242 76.7476 79.6617C77.0217 79.9369 77.2958 79.7993 77.5699 79.5241ZM71.6768 79.5241C71.8138 79.249 71.8138 78.8362 71.5397 78.6986C71.2656 78.5611 70.8545 78.5611 70.7174 78.8362C70.5804 79.1114 70.5804 79.5242 70.8545 79.6617C71.1286 79.7993 71.4027 79.7993 71.6768 79.5241ZM65.7836 79.5241C65.9207 79.249 65.9207 78.8362 65.6466 78.6986C65.3725 78.5611 64.9613 78.5611 64.8243 78.8362C64.6872 79.1114 64.6872 79.5242 64.9613 79.6617C65.2355 79.7993 65.5095 79.7993 65.7836 79.5241ZM59.7534 78.6986C59.4793 78.4235 59.0682 78.5611 58.9311 78.8362C58.657 79.1114 58.7941 79.5242 59.0682 79.6617C59.3423 79.9369 59.6164 79.7993 59.8905 79.5241C60.0275 79.249 60.0275 78.9738 59.7534 78.6986ZM53.8603 78.6986C53.5862 78.4235 53.3121 78.5611 53.038 78.6986C52.7639 78.9738 52.901 79.249 53.038 79.5241C53.3121 79.7993 53.5862 79.6617 53.8603 79.5241C54.1344 79.3866 54.1344 78.9738 53.8603 78.6986ZM47.2819 78.8362C47.0078 79.1114 47.0078 79.3866 47.2819 79.6617C47.556 79.9369 47.8301 79.9369 48.1042 79.6617C48.3783 79.3866 48.3783 79.1114 48.1042 78.8362C47.8301 78.5611 47.419 78.5611 47.2819 78.8362ZM41.3888 78.8362C41.1147 79.1114 41.1147 79.3866 41.3888 79.6617C41.6629 79.9369 41.937 79.9369 42.2111 79.6617C42.4852 79.3866 42.4852 79.1114 42.2111 78.8362C41.937 78.5611 41.5258 78.5611 41.3888 78.8362ZM35.4956 78.6986C35.2215 78.9738 35.2215 79.249 35.4956 79.5241C35.7697 79.7993 36.0438 79.7993 36.3179 79.5241C36.592 79.249 36.592 78.9738 36.3179 78.6986C36.0438 78.5611 35.7697 78.5611 35.4956 78.6986ZM29.6025 78.6986C29.3284 78.9738 29.3284 79.249 29.4654 79.5241C29.6025 79.7993 30.0136 79.7993 30.2877 79.6617C30.5618 79.3866 30.5618 79.1114 30.4248 78.8362C30.2877 78.5611 29.8766 78.5611 29.6025 78.6986ZM23.7093 78.6986C23.4352 78.8362 23.4352 79.249 23.5723 79.5241C23.7093 79.7993 24.1205 79.7993 24.3946 79.6617C24.6687 79.5242 24.6687 79.1114 24.5316 78.8362C24.3946 78.5611 23.9834 78.5611 23.7093 78.6986ZM17.9532 78.6986C17.6791 78.8362 17.6791 79.249 17.8162 79.5241C17.9532 79.7993 18.3644 79.7993 18.6385 79.6617C18.9126 79.5242 18.9126 79.1114 18.7755 78.8362C18.5014 78.5611 18.0903 78.5611 17.9532 78.6986ZM12.0601 78.6986C11.786 78.8362 11.6489 79.249 11.923 79.5241C12.0601 79.7993 12.4712 79.9369 12.7453 79.6617C13.0194 79.5242 13.1565 79.1114 12.8824 78.8362C12.6083 78.5611 12.3342 78.5611 12.0601 78.6986ZM6.16692 78.6986C5.89282 78.8362 5.75577 79.249 6.02987 79.5241C6.16692 79.7993 6.57807 79.9369 6.85217 79.6617C7.12627 79.5242 7.26332 79.1114 6.98922 78.8362C6.85217 78.5611 6.44102 78.5611 6.16692 78.6986ZM0.136719 79.5241C0.136719 79.6617 0.410819 79.7993 0.547869 79.7993C0.684919 79.7993 0.684919 79.7993 0.821968 79.6617C1.09607 79.5242 1.23312 79.1114 1.09607 78.8362L0.136719 79.5241ZM72.362 71.2691C73.0473 71.6819 73.8696 71.4067 74.2807 70.8564C74.2807 70.8564 74.2807 70.7188 74.4178 70.7188L71.8138 69.2054C71.5397 69.6181 71.5397 70.1685 71.8138 70.5812C71.8138 70.994 72.0879 71.1315 72.362 71.2691ZM68.6617 70.8564C68.2505 71.5443 67.2912 71.6819 66.6059 71.2691C65.9207 70.8564 65.7836 69.8933 66.1948 69.2054C66.6059 68.5174 67.5653 68.3799 68.2505 68.7926C68.7987 69.2054 69.0728 70.1685 68.6617 70.8564ZM62.9056 70.8564C62.4944 71.5443 61.5351 71.6819 60.8498 71.1315C60.1646 70.7188 60.0275 69.7557 60.5757 69.0678C60.9869 68.3799 61.9462 68.2423 62.6315 68.7926C63.1797 69.343 63.3167 70.306 62.9056 70.8564ZM55.0938 71.1315C55.642 71.6819 56.6013 71.5443 57.1495 70.8564C57.6977 70.306 57.5606 69.343 56.8754 68.7926C56.3272 68.2423 55.3679 68.3799 54.8196 69.0678C54.4085 69.7557 54.5456 70.7188 55.0938 71.1315ZM51.2564 69.0678C50.7082 68.5175 49.7488 68.655 49.2006 69.2054C48.6524 69.7557 48.7895 70.7188 49.3377 71.2691C49.8859 71.8195 50.8452 71.6819 51.3934 71.1315C51.9416 70.4436 51.9416 69.4805 51.2564 69.0678ZM43.7186 69.0678C43.1704 69.6181 43.1704 70.5812 43.7186 71.1315C44.2668 71.6819 45.2262 71.6819 45.7744 71.1315C46.3226 70.5812 46.3226 69.6181 45.7744 69.0678C45.0891 68.5175 44.2668 68.5175 43.7186 69.0678ZM38.0996 69.0678C37.5514 69.6181 37.4143 70.4436 37.9625 71.1315C38.5107 71.6819 39.333 71.8195 40.0183 71.2691C40.5665 70.7188 40.7035 69.8933 40.1553 69.2054C39.6071 68.5174 38.6478 68.5175 38.0996 69.0678ZM34.2622 71.1315C34.8104 70.5812 34.9474 69.7557 34.5363 69.0678C33.9881 68.5175 33.1658 68.3799 32.4805 68.7926C31.9323 69.343 31.7953 70.1685 32.2064 70.8564C32.7546 71.5443 33.5769 71.6819 34.2622 71.1315ZM28.9172 69.2054C28.5061 68.5174 27.5467 68.3799 26.8615 68.9302C26.1762 69.3429 26.0392 70.306 26.5874 70.994C26.9985 71.6819 27.9579 71.8195 28.6431 71.2691C29.1913 70.7188 29.3284 69.8933 28.9172 69.2054ZM23.2982 69.2054C22.887 68.5174 21.9277 68.3799 21.2424 68.7926C20.5572 69.2054 20.4201 70.1685 20.8313 70.8564C21.2424 71.5443 22.2018 71.6819 22.887 71.2691C23.4352 70.8564 23.7093 69.8933 23.2982 69.2054ZM15.0752 70.8564C15.4863 71.4067 16.0345 71.6819 16.7198 71.5443C16.8568 71.5443 16.9939 71.4067 17.1309 71.4067C17.8162 70.994 18.0903 70.1685 17.6791 69.4805L15.0752 70.8564ZM57.8348 69.4805C58.52 70.0309 59.4794 69.8933 59.8905 69.2054C60.4387 68.5174 60.3016 67.5544 59.6164 67.1416C58.9311 66.5913 57.9718 66.7289 57.5606 67.4168C57.0125 67.9671 57.1495 68.9302 57.8348 69.4805ZM51.9416 67.2792C52.4898 66.5913 53.4492 66.5913 53.9974 67.1416C54.6826 67.6919 54.6826 68.655 54.1344 69.2054C53.5862 69.8933 52.6269 69.8933 52.0787 69.343C51.5305 68.7926 51.3934 67.9671 51.9416 67.2792ZM48.6524 69.2054C48.1042 69.7557 47.1449 69.8933 46.5967 69.2054C46.0485 68.655 45.9114 67.6919 46.5967 67.1416C47.1449 66.5913 48.1042 66.4537 48.6524 67.1416C49.0636 67.6919 49.2006 68.655 48.6524 69.2054ZM40.8406 67.1416C41.3888 66.5913 42.3481 66.5913 42.8963 67.1416C43.4445 67.6919 43.4445 68.655 42.8963 69.2054C42.3481 69.7557 41.3888 69.7557 40.8406 69.2054C40.2924 68.655 40.2924 67.6919 40.8406 67.1416ZM35.3586 67.1416C36.0438 66.5913 37.0032 66.7289 37.4143 67.2792C37.9625 67.9671 37.8255 68.9302 37.2773 69.343C36.592 69.8933 35.6327 69.7557 35.2215 69.2054C34.6733 68.5174 34.6733 67.5544 35.3586 67.1416ZM31.6582 69.4805C30.973 70.0309 30.0136 69.8933 29.6025 69.2054C29.0543 68.5174 29.1913 67.5544 29.8766 67.1416C30.5618 66.5913 31.5212 66.7289 31.9323 67.4168C32.3435 67.9671 32.2064 68.9302 31.6582 69.4805ZM74.966 71.1315L77.2958 72.5074C77.0217 73.0577 76.3365 73.3329 75.7883 73.1953C75.6512 73.1953 75.5142 73.0577 75.3771 73.0577C74.8289 72.645 74.6919 71.8195 74.966 71.1315ZM71.6768 72.645C71.2656 73.3329 70.4433 73.4705 69.7581 73.0577C69.0728 72.645 68.9358 71.8195 69.3469 71.1315C69.7581 70.4436 70.5804 70.306 71.2656 70.7188C71.8138 71.1315 72.0879 71.957 71.6768 72.645ZM65.9207 72.645C65.5095 73.1953 64.6872 73.4705 64.002 72.9201C63.4538 72.5074 63.1797 71.6819 63.7279 70.994C64.139 70.4436 64.9613 70.1685 65.6466 70.7188C66.1948 71.2691 66.3318 72.0946 65.9207 72.645ZM58.2459 72.9201C57.6977 72.5074 57.5606 71.5443 57.9718 70.994C58.3829 70.4436 59.3423 70.306 59.8905 70.7188C60.4387 71.1315 60.5758 72.0946 60.1646 72.645C59.6164 73.3329 58.7941 73.4705 58.2459 72.9201ZM54.1344 70.8564C54.6826 71.4067 54.8196 72.2322 54.2715 72.7825C53.7232 73.3329 52.901 73.4705 52.3528 72.9201C51.8046 72.3698 51.6675 71.5443 52.2157 70.994C52.7639 70.4436 53.5862 70.4436 54.1344 70.8564ZM46.5967 70.994C47.1449 70.4436 47.9672 70.4436 48.5154 70.994C49.0636 71.5443 49.0636 72.3698 48.5154 72.9201C47.9672 73.4705 47.1449 73.4705 46.5967 72.9201C46.0485 72.3698 46.0485 71.5443 46.5967 70.994ZM40.9776 70.8564C41.5258 70.306 42.3481 70.306 42.8963 70.8564C43.4445 71.4067 43.4445 72.2322 42.8963 72.7825C42.3481 73.3329 41.5258 73.3329 40.9776 72.7825C40.2924 72.2322 40.4294 71.4067 40.9776 70.8564ZM35.2215 70.8564C35.7697 70.306 36.592 70.4436 37.1402 70.994C37.6884 71.5443 37.5514 72.3698 37.0032 72.9201C36.455 73.4705 35.6327 73.3329 35.0845 72.7825C34.6733 72.2322 34.6733 71.4067 35.2215 70.8564ZM29.6025 70.8564C30.1507 70.4436 30.973 70.4436 31.5212 71.1315C31.9323 71.6819 31.9323 72.5074 31.2471 73.0577C30.6989 73.4705 29.8766 73.4705 29.3284 72.7825C28.9172 72.0946 28.9172 71.2691 29.6025 70.8564ZM23.8464 70.7188C24.3946 70.306 25.3539 70.4436 25.7651 70.994C26.1762 71.5443 26.0392 72.5074 25.491 72.9201C24.9428 73.3329 23.9834 73.1953 23.5723 72.645C23.1611 72.0946 23.2982 71.2691 23.8464 70.7188ZM20.146 71.1315C20.5572 71.8195 20.4201 72.645 19.7349 73.0577C19.0496 73.4705 18.2273 73.3329 17.8162 72.645C17.405 71.957 17.5421 71.1315 18.2273 70.7188C18.7755 70.306 19.7349 70.4436 20.146 71.1315ZM12.0601 72.645L14.3899 71.2691C14.664 71.6819 14.664 72.3698 14.2529 72.7825C14.1158 72.9201 13.9788 73.0577 13.8417 73.1953C13.2935 73.4705 12.3342 73.1953 12.0601 72.645ZM20.2831 69.6181C19.5978 70.0309 18.6385 69.7557 18.2273 69.0678L20.9683 67.5544C21.2424 68.1047 21.2424 68.7926 20.8313 69.2054C20.5572 69.343 20.4201 69.4805 20.2831 69.6181Z" fill="white"/>
<path fill-rule="evenodd" clip-rule="evenodd" d="M24.1222 65.627C24.2592 65.9021 24.2592 66.1773 24.2592 66.4525C24.2592 67.4155 23.574 68.1035 22.6146 68.1035C22.0664 68.1035 21.5182 67.8283 21.2441 67.278L24.1222 65.627Z" fill="white"/>
<path fill-rule="evenodd" clip-rule="evenodd" d="M27.5486 64.9394C28.2339 64.6643 29.0562 64.8018 29.6044 65.4898C30.1526 66.1777 29.8785 67.2784 29.1932 67.6911C28.508 68.2414 27.4116 67.9663 27.0004 67.2784C26.7263 66.8656 26.7263 66.4529 26.7263 66.0401C26.4522 66.1777 26.1781 66.1777 25.904 66.1777C25.2188 66.1777 24.6706 65.9025 24.3965 65.3522L27.4116 63.7012C27.5486 63.9763 27.6857 64.2515 27.6857 64.5267C27.5486 64.6643 27.5486 64.8018 27.5486 64.9394Z" fill="white"/>
<path fill-rule="evenodd" clip-rule="evenodd" d="M25.2188 66.1782C24.8076 66.0406 24.5335 65.7654 24.3965 65.4902C24.5335 65.7654 24.8076 66.0406 25.2188 66.1782Z" fill="white"/>
<path fill-rule="evenodd" clip-rule="evenodd" d="M45.7758 67.5535C46.324 67.0032 46.324 65.9025 45.7758 65.3522C45.2276 64.8019 44.1312 64.8019 43.583 65.3522C43.0348 65.9025 43.0348 67.0032 43.583 67.5535C44.2683 68.1039 45.2276 68.1039 45.7758 67.5535Z" fill="white"/>
<path fill-rule="evenodd" clip-rule="evenodd" d="M30.7001 62.1884C30.8371 62.4636 30.8371 62.7387 30.7001 63.0139V62.8763C30.7001 62.6012 30.7001 62.326 30.7001 62.1884ZM44.8162 53.6582V33.5709C44.131 33.5709 43.5828 33.8461 43.1716 34.534C43.0346 34.6716 43.0346 34.9468 42.8975 35.0844C42.6234 34.9468 42.2123 34.8092 41.8011 34.8092C40.8418 34.8092 40.1565 35.6347 40.2936 36.5978C40.0195 36.185 39.4713 36.0475 38.9231 36.185C38.1008 36.3226 37.4155 37.1481 37.5526 37.9736C37.6896 38.7991 38.5119 39.4871 39.3342 39.3495C40.1565 39.2119 40.7047 38.524 40.7047 37.6985C40.9788 38.1112 41.527 38.2488 42.0752 38.2488C42.7605 38.2488 43.4457 37.6985 43.5828 37.0105L43.7198 37.1481C43.8569 37.2857 44.131 37.2857 44.268 37.4233C43.5828 37.5609 43.0346 38.1112 42.8975 38.6616C42.6234 38.524 42.2123 38.3864 41.8011 38.3864C40.9788 38.524 40.2936 39.2119 40.1565 40.0374C39.7454 39.7622 39.3342 39.6246 38.9231 39.7622C37.9637 39.8998 37.4155 40.7253 37.5526 41.6884V41.826C37.1414 41.4132 36.5932 41.1381 36.045 41.2756C35.2227 41.4132 34.6745 42.2387 34.8116 43.0642C34.9486 43.8897 35.7709 44.4401 36.5932 44.3025C37.4155 44.1649 37.9637 43.3394 37.8267 42.5139C38.1008 42.9267 38.649 43.2018 39.0601 43.2018C39.0601 43.2018 39.0601 43.2018 38.9231 43.2018C38.1008 43.3394 37.4155 44.1649 37.5526 44.9904C37.1414 44.5777 36.5932 44.4401 36.045 44.5777C35.2227 44.7152 34.5375 45.6783 34.8116 46.5038C34.9486 47.1918 35.4968 47.6045 36.045 47.7421C35.2227 48.0173 34.8116 48.8428 34.9486 49.6683C34.5375 49.2555 33.8522 48.9803 33.167 49.1179C32.3447 49.3931 31.7965 50.3562 32.0706 51.1817C32.2076 51.732 32.6188 52.1448 33.167 52.2824C32.3447 52.6951 32.0706 53.6582 32.3447 54.4837C32.3447 54.4837 32.3447 54.4837 32.3447 54.6213C32.0706 54.2085 31.6594 53.9334 31.1112 53.7958C31.9335 53.5206 32.3447 52.5575 32.0706 51.732C31.7965 50.9065 30.8371 50.4938 30.0148 50.7689C29.1925 51.0441 28.7814 52.0072 29.0555 52.8327C29.1925 53.383 29.7407 53.7958 30.2889 53.9334H30.1519C29.3296 54.2085 28.9184 55.1716 29.1925 56.1347C29.3296 56.5475 29.7407 56.9602 30.1519 57.0978C29.4666 57.5105 29.1925 58.4736 29.6037 59.2991C29.7407 59.5743 30.0148 59.8495 30.1519 59.9871C29.7407 60.5374 29.6037 61.2253 29.8778 61.9132C29.7407 61.7757 29.6037 61.6381 29.4666 61.6381C29.4666 61.6381 29.3296 61.6381 29.3296 61.5005C29.8778 60.9501 30.0148 60.2622 29.7407 59.5743C29.4666 59.1616 29.0555 58.7488 28.6443 58.6112C29.3296 58.1985 29.7407 57.373 29.4666 56.5475C29.1925 55.722 28.2332 55.3092 27.4109 55.722C26.5886 55.9971 26.1774 56.9602 26.5886 57.7857C26.7256 58.3361 27.1368 58.6112 27.685 58.7488C26.8627 59.1616 26.4515 60.1246 26.8627 60.9501C26.9997 61.3629 27.2738 61.5005 27.685 61.7757C27.5479 61.9132 27.4109 62.0508 27.2738 62.1884C26.9997 62.7387 26.9997 63.4267 27.2738 63.977L44.8162 53.6582ZM45.0903 37.0105C45.6385 37.1481 46.0497 37.4233 46.3238 37.6985V37.9736C46.0497 37.5609 45.6385 37.1481 45.0903 37.0105C45.2274 37.0105 45.3644 36.873 45.6385 36.7354L45.7756 36.5978C45.6385 36.873 45.3644 37.0105 45.0903 37.0105ZM22.8882 64.8025C22.8882 64.6649 23.0253 64.6649 22.8882 64.8025C23.7105 64.3897 24.1217 63.4267 23.7105 62.7387C23.2994 61.9132 22.34 61.6381 21.6548 61.9132C20.9695 62.326 20.5584 63.1515 20.9695 63.977C21.2436 64.3897 21.6548 64.6649 22.0659 64.8025H22.8882ZM24.944 63.1515C24.5328 63.0139 24.2587 62.7387 23.9846 62.326C23.5735 61.5005 23.9846 60.5374 24.6699 60.1246C25.4922 59.7119 26.4515 59.9871 26.8627 60.8126C27.2738 61.5005 26.9997 62.4636 26.3145 62.8763C26.4515 62.8763 26.5886 63.0139 26.7256 63.0139C27.4109 63.4267 27.685 64.2522 27.5479 64.9401C27.5479 64.8025 27.5479 64.6649 27.5479 64.5273C27.5479 64.2522 27.4109 63.977 27.2738 63.7018L24.3958 65.3528C24.1217 64.8025 23.9846 64.1146 24.3958 63.5642C24.5328 63.4267 24.6699 63.2891 24.944 63.1515ZM24.1217 67.0038C23.9846 67.279 23.8476 67.4166 23.7105 67.5542C23.9846 67.279 24.1217 66.8662 24.1217 66.4535C24.1217 66.1783 23.9846 65.9032 23.9846 65.628L21.2436 67.279C20.9695 66.7287 20.9695 66.1783 21.2436 65.628C21.6548 64.8025 22.7512 64.5273 23.4364 65.0777C24.2587 65.3528 24.5328 66.3159 24.1217 67.0038ZM43.4457 29.0307C43.4457 29.0307 43.4457 29.1683 43.4457 29.0307C43.4457 29.9938 42.8975 30.6817 42.0752 30.8193C41.2529 30.8193 40.5677 30.2689 40.4306 29.4434C40.4306 28.6179 40.9788 27.93 41.8011 27.7924C42.3493 27.7924 42.7605 27.93 43.0346 28.3428C43.1716 28.6179 43.3087 28.7555 43.4457 29.0307ZM46.0497 29.0307C46.1867 28.8931 46.1867 28.7555 46.3238 28.6179C46.1867 29.0307 45.9126 29.3058 45.6385 29.4434C45.3644 29.581 45.0903 29.7186 44.8162 29.7186V26.4166C44.268 26.4166 43.7198 26.6917 43.3087 27.2421C42.8975 28.0676 43.1716 29.0307 43.8569 29.4434C44.6792 29.8562 45.5015 29.7186 46.0497 29.0307ZM43.5828 30.4065C43.8569 30.1313 44.268 29.9938 44.6792 29.9938V33.4334C44.9533 33.4334 45.2274 33.2958 45.5015 33.1582C45.6385 33.1582 45.7756 33.0206 45.7756 32.883C45.2274 33.4334 44.4051 33.5709 43.7198 33.1582C43.5828 33.1582 43.4457 33.0206 43.4457 32.883C43.4457 33.7085 42.7605 34.2589 41.9382 34.3965C41.1159 34.3965 40.2936 33.8461 40.2936 32.883C40.2936 32.0575 40.8418 31.232 41.8011 31.232C42.2123 31.232 42.6234 31.3696 42.8975 31.6448C42.8975 31.3696 43.0346 31.0944 43.1716 30.8193C43.4457 30.2689 44.131 29.9938 44.6792 29.9938C44.268 29.9938 43.8569 30.1313 43.5828 30.4065ZM19.1879 66.7287C19.0508 66.7287 18.9138 66.8662 18.7767 66.8662C18.6397 66.8662 18.6397 67.0038 18.5026 67.0038C18.2285 67.279 17.9544 67.8293 17.9544 68.2421C17.9544 68.5173 18.0915 68.7924 18.0915 68.93L20.6954 67.4166C20.9695 67.8293 20.9695 68.3797 20.6954 68.93C20.9695 68.5173 20.9695 67.8293 20.6954 67.4166C20.6954 67.4166 20.6954 67.279 20.5584 67.279C20.4213 66.7287 19.7361 66.5911 19.1879 66.7287ZM9.04619 72.7824C8.63504 73.1951 8.63504 73.883 8.90914 74.2958L11.1019 73.0575C11.239 73.4703 11.376 73.7455 11.239 74.1582C11.239 74.1582 11.239 74.2958 11.1019 74.2958C11.239 74.1582 11.239 74.0206 11.239 73.883C11.239 73.6079 11.239 73.3327 11.1019 73.0575C10.6908 72.3696 10.0055 72.232 9.32029 72.6448C9.32029 72.6448 9.18324 72.6448 9.04619 72.7824ZM11.7872 69.2052C12.0613 69.8931 12.8836 70.0307 13.5688 69.7555C14.2541 69.4803 14.3911 68.6548 14.117 67.9669C13.7059 67.4166 13.0206 67.1414 12.3354 67.5542C11.7872 67.8293 11.5131 68.6548 11.7872 69.2052ZM14.6652 64.1146C14.9393 64.8025 15.7616 65.0777 16.3098 64.6649C16.9951 64.3897 17.2692 63.5642 16.858 63.0139C16.5839 62.326 15.7616 62.0508 15.2134 62.4636C14.6652 62.7387 14.3911 63.5642 14.6652 64.1146ZM18.2285 57.373C17.5433 57.6481 17.2692 58.3361 17.5433 59.024C17.8174 59.7119 18.5026 59.9871 19.1879 59.7119C19.8731 59.4367 20.1472 58.7488 19.8731 58.0609C19.599 57.5105 18.9138 57.0978 18.2285 57.373ZM22.0659 54.7589C22.7512 54.4837 23.0253 53.7958 22.7512 53.1079C22.4771 52.4199 21.7918 52.1448 21.1066 52.4199C20.4213 52.6951 20.1472 53.383 20.4213 54.0709C20.6954 54.6213 21.3807 55.034 22.0659 54.7589ZM25.7663 48.1548C25.4922 47.4669 24.8069 47.0542 24.1217 47.3293C23.4364 47.6045 23.0253 48.2924 23.2994 48.9803C23.5735 49.6683 24.2587 50.081 24.944 49.8059C25.4922 49.5307 25.9033 48.8428 25.7663 48.1548ZM28.6443 43.2018C28.7814 43.8897 28.3702 44.5777 27.685 44.7152C26.9997 44.8528 26.3145 44.4401 26.1774 43.8897C26.0404 43.2018 26.4515 42.5139 26.9997 42.3763C27.685 42.1011 28.3702 42.5139 28.6443 43.2018ZM31.5224 38.2488C31.6594 38.9367 31.2483 39.6246 30.563 39.7622C29.8778 39.8998 29.1925 39.4871 29.0555 38.7991C28.9184 38.1112 29.3296 37.4233 30.0148 37.2857C30.7001 37.1481 31.3853 37.5609 31.5224 38.2488ZM34.4004 33.2958C34.5375 33.9837 34.1263 34.6716 33.304 34.8092C32.6188 34.9468 31.9335 34.534 31.7965 33.7085C31.6594 33.0206 32.0706 32.3327 32.7558 32.1951C33.5781 32.1951 34.2634 32.6079 34.4004 33.2958ZM37.2785 28.3428C37.1414 27.6548 36.5932 27.1045 35.908 27.2421C35.2227 27.3797 34.6745 27.93 34.8116 28.6179C34.9486 29.3058 35.4968 29.8562 36.1821 29.7186C36.8673 29.7186 37.4155 29.0307 37.2785 28.3428ZM40.1565 23.3897C40.1565 22.7018 39.4713 22.1515 38.786 22.1515C38.1008 22.1515 37.5526 22.8394 37.5526 23.5273C37.5526 24.2152 38.2378 24.7656 38.9231 24.7656C39.7454 24.628 40.2936 24.0777 40.1565 23.3897ZM43.1716 18.4367C43.1716 17.7488 42.4864 17.1985 41.8011 17.1985C41.1159 17.1985 40.5677 17.8864 40.5677 18.5743C40.5677 19.2622 41.2529 19.8126 41.9382 19.8126C42.6234 19.675 43.1716 19.1246 43.1716 18.4367ZM44.6792 14.7219C45.2274 14.7219 45.6385 14.4468 45.7756 14.034C45.7756 14.034 45.7756 14.1716 45.6385 14.1716C45.5015 14.4468 45.2274 14.7219 44.6792 14.7219V12.1079C43.9939 12.1079 43.3087 12.6582 43.3087 13.4837C43.3087 13.7589 43.4457 14.034 43.5828 14.3092C43.9939 14.5844 44.268 14.7219 44.6792 14.7219ZM6.03109 74.7085C5.61994 75.1213 5.61994 75.6716 5.89404 76.222L7.94979 74.9837C8.22389 75.3965 8.08684 75.8092 7.94979 76.222C8.22389 75.8092 8.22389 75.3965 7.94979 74.9837C7.67569 74.2958 6.85339 74.1582 6.30519 74.4334C6.16814 74.4334 6.16814 74.571 6.03109 74.7085ZM8.77209 70.9938C9.04619 71.5441 9.73144 71.8193 10.4167 71.5441C10.9649 71.2689 11.239 70.4434 10.9649 69.8931C10.6908 69.3428 9.86849 69.0676 9.32029 69.3428C8.63504 69.6179 8.49799 70.4434 8.77209 70.9938ZM11.6501 65.9032C11.9242 66.4535 12.6095 66.7287 13.2947 66.4535C13.8429 66.1783 14.117 65.4904 13.8429 64.8025C13.5688 64.2522 12.8836 63.977 12.1983 64.2522C11.6501 64.5273 11.376 65.3528 11.6501 65.9032ZM14.5282 60.8126C14.8023 61.3629 15.4875 61.6381 16.0357 61.5005C16.5839 61.2253 16.858 60.5374 16.721 59.9871C16.4469 59.4367 15.7616 59.1616 15.2134 59.2991C14.5282 59.4367 14.2541 60.1246 14.5282 60.8126ZM18.0915 54.2085C17.5433 54.4837 17.1321 55.1716 17.4062 55.722C17.6803 56.2723 18.3656 56.685 18.9138 56.4099C19.462 56.1347 19.8731 55.4468 19.599 54.8965C19.462 54.2085 18.7767 53.9334 18.0915 54.2085ZM21.7918 51.3193C22.4771 51.0441 22.7512 50.4938 22.4771 49.8059C22.203 49.1179 21.6548 48.8428 20.9695 49.1179C20.2843 49.3931 20.0102 49.9434 20.2843 50.6314C20.5584 51.1817 21.2436 51.5944 21.7918 51.3193ZM25.4922 44.8528C25.3551 44.1649 24.6699 43.8897 23.9846 44.0273C23.2994 44.1649 23.0253 44.8528 23.1623 45.5407C23.2994 46.2287 23.9846 46.5038 24.6699 46.3663C25.3551 46.0911 25.6292 45.4032 25.4922 44.8528ZM28.3702 39.7622C28.5073 40.4501 28.0961 41.0005 27.5479 41.1381C26.8627 41.2756 26.3145 40.8629 26.1774 40.3126C26.0404 39.6246 26.4515 39.0743 26.9997 38.9367C27.685 38.7991 28.2332 39.2119 28.3702 39.7622ZM31.3853 34.8092C31.5224 35.4971 31.1112 36.0475 30.426 36.185C29.7407 36.3226 29.1925 35.9099 29.0555 35.222C28.9184 34.534 29.3296 33.9837 30.0148 33.8461C30.563 33.7085 31.2483 34.1213 31.3853 34.8092ZM34.2634 29.8562C34.1263 29.1683 33.5781 28.7555 32.8929 28.8931C32.2076 29.0307 31.7965 29.581 31.9335 30.2689C32.0706 30.9569 32.6188 31.3696 33.304 31.232C33.9893 31.0944 34.4004 30.4065 34.2634 29.8562ZM37.1414 24.7656C37.0044 24.0777 36.4562 23.6649 35.7709 23.6649C35.0857 23.8025 34.6745 24.3528 34.6745 25.0407C34.8116 25.7287 35.3598 26.1414 36.045 26.1414C36.7303 26.0038 37.2785 25.4535 37.1414 24.7656ZM40.1565 19.8126C40.1565 19.1246 39.4713 18.7119 38.9231 18.7119C38.2378 18.7119 37.8267 19.3998 37.8267 19.9501C37.8267 20.6381 38.5119 21.0508 39.0601 21.0508C39.6083 21.0508 40.1565 20.5005 40.1565 19.8126ZM43.0346 14.7219C43.0346 14.034 42.4864 13.4837 41.8011 13.6213C41.1159 13.6213 40.5677 14.1716 40.7047 14.8595C40.7047 15.5475 41.2529 16.0978 41.9382 15.9602C42.4864 15.9602 43.0346 15.4099 43.0346 14.7219ZM44.8162 8.53067C44.5421 8.53067 44.268 8.66826 44.131 8.80584C43.8569 9.08101 43.5828 9.35618 43.5828 9.76893C43.5828 10.4568 44.131 11.0072 44.8162 11.0072C45.2274 11.0072 45.6385 10.732 45.9126 10.4568C45.5015 10.732 45.2274 11.0072 44.8162 11.0072V8.53067ZM3.15304 76.6347C2.87894 76.9099 2.74189 77.3226 3.01599 77.7354L4.52354 76.7723C4.66059 77.0475 4.66059 77.3226 4.52354 77.5978C4.52354 77.4602 4.66059 77.4602 4.66059 77.3226C4.66059 77.0475 4.66059 76.7723 4.52354 76.6347C4.24944 76.222 3.70124 76.0844 3.29009 76.3595C3.29009 76.6347 3.15304 76.6347 3.15304 76.6347ZM5.89404 72.6448C6.16814 73.0575 6.71634 73.1951 7.12749 73.0575C7.53864 72.7824 7.67569 72.232 7.53864 71.8193C7.26454 71.4065 6.71634 71.2689 6.30519 71.4065C5.75699 71.6817 5.61994 72.232 5.89404 72.6448ZM8.77209 67.5542C9.04619 67.9669 9.59439 68.2421 10.0055 67.9669C10.4167 67.6918 10.6908 67.1414 10.4167 66.7287C10.1426 66.3159 9.59439 66.0407 9.18324 66.3159C8.77209 66.5911 8.63504 67.1414 8.77209 67.5542ZM11.7872 62.4636C11.9242 62.8763 12.4724 63.1515 13.0206 62.8763C13.4318 62.7387 13.7059 62.1884 13.4318 61.6381C13.2947 61.2253 12.7465 60.9501 12.1983 61.2253C11.7872 61.5005 11.5131 61.9132 11.7872 62.4636ZM15.0764 56.1347C14.6652 56.2723 14.3911 56.8226 14.5282 57.2354C14.6652 57.6481 15.2134 57.9233 15.6246 57.7857C16.0357 57.6481 16.3098 57.0978 16.1728 56.685C16.1728 56.1347 15.6246 55.9971 15.0764 56.1347ZM18.6397 52.6951C19.0508 52.5575 19.3249 52.0072 19.1879 51.5944C19.0508 51.1817 18.5026 50.9065 18.0915 51.0441C17.6803 51.1817 17.4062 51.732 17.5433 52.1448C17.6803 52.6951 18.2285 52.8327 18.6397 52.6951ZM22.203 46.5038C22.0659 46.0911 21.5177 45.8159 21.1066 45.9535C20.6954 46.0911 20.4213 46.6414 20.5584 47.0542C20.6954 47.4669 21.2436 47.7421 21.6548 47.6045C22.0659 47.4669 22.34 47.0542 22.203 46.5038ZM25.081 41.5508C24.944 41.1381 24.5328 40.8629 23.9846 40.8629C23.5735 41.0005 23.2994 41.4132 23.2994 41.9636C23.4364 42.3763 23.8476 42.6515 24.3958 42.6515C24.944 42.5139 25.2181 41.9636 25.081 41.5508ZM28.0961 36.4602C28.2332 36.873 27.9591 37.4233 27.4109 37.5609C26.9997 37.6985 26.4515 37.4233 26.3145 36.873C26.1774 36.4602 26.4515 35.9099 26.9997 35.7723C27.4109 35.6347 27.9591 35.9099 28.0961 36.4602ZM30.9742 31.3696C30.8371 30.9569 30.426 30.5441 29.8778 30.6817C29.4666 30.8193 29.0555 31.232 29.1925 31.7824C29.3296 32.1951 29.7407 32.6079 30.2889 32.4703C30.7001 32.3327 31.1112 31.9199 30.9742 31.3696ZM33.8522 26.279C33.7152 25.7287 33.304 25.4535 32.8929 25.5911C32.3447 25.7287 32.0706 26.1414 32.2076 26.5542C32.3447 27.1045 32.7558 27.3797 33.167 27.2421C33.5781 27.2421 33.9893 26.8293 33.8522 26.279ZM36.8673 21.326C36.8673 20.7756 36.3191 20.5005 35.908 20.5005C35.3598 20.5005 35.0857 21.0508 35.0857 21.4636C35.0857 22.0139 35.6339 22.2891 36.045 22.2891C36.5932 22.1515 36.8673 21.7387 36.8673 21.326ZM39.7454 16.2354C39.7454 15.685 39.3342 15.4099 38.786 15.4099C38.2378 15.4099 37.9637 15.8226 37.9637 16.373C37.9637 16.9233 38.3749 17.1985 38.9231 17.1985C39.4713 17.1985 39.7454 16.6481 39.7454 16.2354ZM42.7605 11.1448C42.7605 10.5944 42.3493 10.1817 41.8011 10.3193C41.2529 10.3193 40.8418 10.732 40.9788 11.2824C40.9788 11.8327 41.39 12.2454 41.9382 12.1079C42.3493 12.1079 42.7605 11.6951 42.7605 11.1448ZM44.6792 7.01725C45.0903 7.01725 45.3644 6.87967 45.5015 6.6045C45.3644 6.87967 45.0903 7.01725 44.6792 7.01725V5.22866C44.131 5.22866 43.7198 5.64141 43.7198 6.19175C43.7198 6.32933 43.7198 6.6045 43.8569 6.74208C44.131 6.87967 44.4051 7.01725 44.6792 7.01725ZM0.137944 79.524L1.23434 78.9736C1.37139 79.1112 1.37139 79.3864 1.23434 79.524C1.37139 79.3864 1.37139 79.1112 1.23434 78.8361C1.09729 78.5609 0.686143 78.4233 0.412044 78.5609C0.274994 78.5609 0.274994 78.6985 0.137944 78.6985C0.000893768 78.9736 0.000893768 79.2488 0.137944 79.524ZM3.01599 74.2958C3.15304 74.571 3.56419 74.7085 3.83829 74.571C4.11239 74.4334 4.24944 74.0206 4.11239 73.7454C3.97534 73.4703 3.56419 73.3327 3.29009 73.4703C3.01599 73.6079 2.87894 74.0206 3.01599 74.2958ZM5.89404 69.2052C6.03109 69.4803 6.44224 69.6179 6.71634 69.4803C6.99044 69.3428 7.12749 68.93 6.99044 68.6548C6.85339 68.3797 6.44224 68.2421 6.16814 68.3797C5.89404 68.5173 5.75699 68.93 5.89404 69.2052ZM8.90914 64.1146C9.04619 64.3897 9.45734 64.5273 9.73144 64.3897C10.0055 64.2522 10.1426 63.8394 10.0055 63.5642C9.86849 63.2891 9.45734 63.1515 9.18324 63.2891C8.90914 63.4267 8.77209 63.7018 8.90914 64.1146ZM11.7872 58.8864C11.9242 59.1616 12.3354 59.4367 12.6095 59.2991C12.8836 59.1616 13.0206 58.8864 12.8836 58.4736C12.7465 58.1985 12.4724 58.0609 12.0613 58.1985C11.9242 58.3361 11.6501 58.6112 11.7872 58.8864ZM15.4875 54.0709C15.7616 53.9334 15.8987 53.6582 15.8987 53.383C15.7616 53.1079 15.4875 52.9703 15.2134 52.9703C14.9393 53.1079 14.8023 53.383 14.8023 53.6582C14.9393 54.0709 15.2134 54.2085 15.4875 54.0709ZM18.5026 48.9803C18.7767 48.8428 18.9138 48.5676 18.9138 48.2924C18.7767 48.0173 18.5026 47.8797 18.2285 47.8797C17.9544 48.0173 17.8174 48.2924 17.8174 48.5676C17.8174 48.9803 18.0915 49.1179 18.5026 48.9803ZM21.7918 43.2018C21.6548 42.9267 21.3807 42.6515 21.1066 42.7891C20.8325 42.9267 20.5584 43.2018 20.6954 43.477C20.8325 43.7522 21.1066 44.0273 21.3807 43.8897C21.6548 43.8897 21.7918 43.477 21.7918 43.2018ZM24.6699 38.1112C24.5328 37.836 24.2587 37.5609 23.9846 37.6985C23.7105 37.836 23.4364 38.1112 23.5735 38.3864C23.7105 38.6616 23.9846 38.9367 24.2587 38.7991C24.5328 38.7991 24.8069 38.3864 24.6699 38.1112ZM27.685 33.0206C27.685 33.2958 27.5479 33.7085 27.2738 33.7085C26.9997 33.7085 26.5886 33.5709 26.5886 33.2958C26.5886 33.0206 26.7256 32.6079 26.9997 32.6079C27.2738 32.4703 27.5479 32.7454 27.685 33.0206ZM30.563 27.93C30.563 27.6548 30.1519 27.3797 29.8778 27.5173C29.6037 27.5173 29.3296 27.93 29.4666 28.2052C29.4666 28.4803 29.8778 28.7555 30.1519 28.6179C30.426 28.4803 30.7001 28.2052 30.563 27.93ZM33.5781 22.8394C33.5781 22.5642 33.304 22.2891 32.8929 22.2891C32.6188 22.2891 32.3447 22.5642 32.3447 22.977C32.3447 23.2522 32.6188 23.5273 33.0299 23.5273C33.304 23.3897 33.5781 23.1146 33.5781 22.8394ZM36.4562 17.7488C36.4562 17.4736 36.1821 17.1985 35.7709 17.1985C35.4968 17.1985 35.2227 17.4736 35.2227 17.8864C35.2227 18.1615 35.4968 18.4367 35.908 18.4367C36.3191 18.2991 36.5932 18.024 36.4562 17.7488ZM39.4713 12.6582C39.4713 12.383 39.1972 12.1079 38.786 12.1079C38.5119 12.1079 38.2378 12.383 38.2378 12.7958C38.2378 13.0709 38.5119 13.3461 38.9231 13.3461C39.1972 13.2085 39.4713 12.9334 39.4713 12.6582ZM42.3493 7.56759C42.3493 7.29242 42.0752 7.01725 41.6641 7.01725C41.39 7.01725 41.1159 7.29242 41.1159 7.70517C41.1159 7.98034 41.39 8.25551 41.8011 8.25551C42.0752 8.11792 42.3493 7.84275 42.3493 7.56759ZM44.8162 1.78906C44.5421 1.78906 44.4051 1.92665 44.268 2.06423C44.268 2.20181 44.131 2.20181 44.131 2.3394C44.131 2.61457 44.4051 3.02732 44.6792 3.02732C44.9533 3.02732 45.0903 2.88973 45.2274 2.75215C45.0903 2.88973 44.9533 3.02732 44.6792 3.02732V1.78906H44.8162ZM15.6246 68.7924C14.9393 69.2052 14.6652 70.0307 15.0764 70.7186C15.0764 70.7186 15.0764 70.8562 15.2134 70.8562L17.6803 69.3428C17.9544 69.7555 17.9544 70.3059 17.6803 70.7186C17.9544 70.3059 17.9544 69.7555 17.6803 69.2052C17.4062 68.7924 16.9951 68.5173 16.5839 68.5173C16.1728 68.5173 15.8987 68.6548 15.6246 68.7924ZM17.9544 65.7656C17.5433 65.0777 17.8174 64.1146 18.6397 63.8394C19.3249 63.4267 20.2843 63.7018 20.5584 64.5273C20.9695 65.2152 20.6954 66.1783 19.8731 66.4535C19.1879 66.7287 18.2285 66.4535 17.9544 65.7656ZM20.6954 60.8126C20.4213 60.1246 20.6954 59.2991 21.3807 58.8864C22.0659 58.6112 22.8882 58.8864 23.2994 59.5743C23.5735 60.2622 23.2994 61.0877 22.6141 61.5005C21.9289 61.7757 21.1066 61.5005 20.6954 60.8126ZM24.3958 53.9334C25.081 53.6582 25.9033 54.0709 26.1774 54.7589C26.4515 55.4468 26.0404 56.2723 25.3551 56.5475C24.6699 56.8226 23.8476 56.4099 23.5735 55.722C23.2994 55.034 23.5735 54.2085 24.3958 53.9334ZM28.0961 51.5944C27.4109 51.8696 26.5886 51.4569 26.3145 50.6314C26.0404 49.9434 26.4515 49.1179 27.2738 48.8428C27.9591 48.5676 28.7814 48.9803 29.0555 49.8059C29.3296 50.6314 28.9184 51.4569 28.0961 51.5944ZM31.9335 44.9904C32.0706 45.8159 31.6594 46.5038 30.9742 46.779C30.1519 46.9166 29.4666 46.5038 29.1925 45.8159C29.0555 44.9904 29.4666 44.3025 30.1519 44.0273C30.9742 43.7522 31.6594 44.3025 31.9335 44.9904ZM34.8116 40.175C34.9486 41.0005 34.5375 41.6884 33.7152 41.826C32.8929 41.9636 32.2076 41.5508 32.0706 40.7253C31.9335 39.8998 32.3447 39.2119 33.167 39.0743C33.8522 38.9367 34.5375 39.3495 34.8116 40.175ZM34.8116 35.7723C34.6745 34.9468 35.2227 34.2589 36.045 34.1213C36.8673 33.9837 37.5526 34.534 37.6896 35.3595C37.8267 36.185 37.2785 36.873 36.4562 37.0105C35.6339 37.0105 34.9486 36.4602 34.8116 35.7723ZM39.1972 32.0575C40.0195 31.9199 40.5677 31.232 40.4306 30.5441C40.2936 29.7186 39.6083 29.1683 38.9231 29.3058C38.1008 29.4434 37.5526 30.1313 37.6896 30.8193C37.6896 31.5072 38.3749 32.0575 39.1972 32.0575ZM41.9382 27.1045C41.1159 27.1045 40.4306 26.5542 40.4306 25.7287C40.4306 24.9032 40.9788 24.2152 41.8011 24.2152C42.6234 24.2152 43.3087 24.7656 43.3087 25.5911C43.3087 26.4166 42.7605 27.1045 41.9382 27.1045ZM44.6792 19.2622C43.9939 19.2622 43.4457 19.675 43.3087 20.3629C43.3087 20.5005 43.3087 20.6381 43.3087 20.7756C43.3087 21.6011 43.9939 22.2891 44.8162 22.2891C45.2274 22.2891 45.6385 22.0139 45.9126 21.7387L46.0497 21.6011C45.7756 22.0139 45.3644 22.2891 44.8162 22.2891L44.6792 19.2622ZM32.2076 47.6045C31.9335 46.779 32.4817 45.9535 33.304 45.6783C34.1263 45.4032 34.9486 45.9535 35.2227 46.779C35.4968 47.6045 34.9486 48.43 34.1263 48.7052C33.304 48.9803 32.3447 48.43 32.2076 47.6045ZM24.5328 57.0978C25.3551 56.8226 26.1774 57.0978 26.4515 57.9233C26.7256 58.7488 26.4515 59.5743 25.6292 59.8495C24.8069 60.1246 23.9846 59.8495 23.7105 59.024C23.4364 58.3361 23.7105 57.373 24.5328 57.0978ZM29.3296 53.1079C29.6037 53.9334 29.1925 54.7589 28.3702 55.034C27.5479 55.3092 26.7256 54.8965 26.4515 54.0709C26.1774 53.2454 26.5886 52.4199 27.4109 52.1448C28.2332 51.8696 29.0555 52.2824 29.3296 53.1079ZM29.3296 49.1179C29.0555 48.2924 29.6037 47.4669 30.2889 47.1918C31.1112 46.9166 31.9335 47.4669 32.2076 48.1548C32.4817 48.9803 31.9335 49.8059 31.2483 50.081C30.426 50.3562 29.4666 49.9434 29.3296 49.1179ZM34.9486 43.477C35.0857 44.3025 34.6745 45.128 33.8522 45.2656C33.0299 45.4032 32.2076 44.9904 32.0706 44.1649C31.9335 43.3394 32.3447 42.5139 33.167 42.3763C33.9893 42.2387 34.8116 42.6515 34.9486 43.477ZM37.8267 38.6616C37.9637 39.4871 37.4155 40.3126 36.5932 40.4501C35.7709 40.5877 34.9486 40.0374 34.8116 39.2119C34.6745 38.3864 35.2227 37.5609 36.045 37.4233C36.8673 37.2857 37.6896 37.836 37.8267 38.6616ZM37.6896 34.2589C37.5526 33.4334 38.2378 32.6079 39.0601 32.6079C39.8824 32.4703 40.7047 33.1582 40.7047 33.9837C40.8418 34.8092 40.1565 35.6347 39.3342 35.6347C38.5119 35.7723 37.6896 35.0844 37.6896 34.2589ZM14.3911 72.6448C14.6652 72.232 14.6652 71.8193 14.5282 71.4065V71.2689C14.117 70.581 13.2947 70.4434 12.6095 70.7186C12.3354 70.7186 12.3354 70.8562 12.1983 70.8562C11.7872 71.2689 11.6501 71.9569 12.0613 72.5072L14.3911 71.1314C14.6652 71.6817 14.6652 72.232 14.3911 72.6448ZM14.8023 67.5542C15.2134 68.2421 16.0357 68.5173 16.5839 68.1045C17.2692 67.6918 17.5433 66.8663 17.1321 66.3159C16.721 65.628 15.8987 65.3528 15.3505 65.7656C14.8023 66.0407 14.5282 66.8662 14.8023 67.5542ZM17.6803 62.4636C17.9544 63.1515 18.7767 63.4267 19.462 63.1515C20.1472 62.8763 20.4213 62.0508 20.1472 61.3629C19.8731 60.675 19.0508 60.3998 18.3656 60.675C17.6803 60.9501 17.4062 61.7757 17.6803 62.4636ZM21.2436 55.5844C20.5584 55.8595 20.2843 56.685 20.5584 57.373C20.8325 58.0609 21.6548 58.3361 22.34 58.0609C23.0253 57.7857 23.2994 56.9602 23.0253 56.2723C22.7512 55.722 22.0659 55.3092 21.2436 55.5844ZM25.081 53.2454C25.7663 52.9703 26.1774 52.2824 25.9033 51.5944C25.6292 50.9065 24.944 50.4938 24.2587 50.7689C23.5735 51.0441 23.1623 51.732 23.4364 52.4199C23.7105 53.1079 24.3958 53.383 25.081 53.2454ZM28.7814 46.5038C29.0555 47.1918 28.6443 48.0173 27.822 48.1548C27.1368 48.43 26.3145 48.0173 26.1774 47.1918C25.9033 46.5038 26.3145 45.6783 27.1368 45.5407C27.822 45.4032 28.6443 45.8159 28.7814 46.5038ZM31.6594 41.6884C31.7965 42.3763 31.3853 43.2018 30.7001 43.3394C30.0148 43.477 29.1925 43.0642 29.0555 42.3763C28.9184 41.6884 29.3296 40.8629 30.0148 40.7253C30.8371 40.4501 31.5224 40.8629 31.6594 41.6884ZM34.5375 36.7354C34.6745 37.4233 34.2634 38.1112 33.4411 38.2488C32.7558 38.3864 32.0706 37.9736 31.9335 37.1481C31.7965 36.4602 32.2076 35.7723 33.0299 35.6347C33.7152 35.4971 34.4004 36.0475 34.5375 36.7354ZM37.4155 31.7824C37.5526 32.4703 37.0044 33.1582 36.3191 33.2958C35.6339 33.4334 34.9486 32.883 34.8116 32.1951C34.6745 31.5072 35.2227 30.8193 35.908 30.6817C36.7303 30.5441 37.4155 31.0944 37.4155 31.7824ZM40.2936 26.9669C40.1565 26.279 39.6083 25.7287 38.786 25.7287C38.1008 25.8662 37.5526 26.4166 37.5526 27.2421C37.6896 27.93 38.2378 28.4803 39.0601 28.4803C39.8824 28.3428 40.4306 27.6548 40.2936 26.9669ZM41.9382 23.3897C41.1159 23.3897 40.5677 22.8394 40.5677 22.0139C40.5677 21.1884 41.1159 20.6381 41.9382 20.6381C42.7605 20.6381 43.3087 21.1884 43.3087 22.0139C43.3087 22.7018 42.6234 23.3897 41.9382 23.3897ZM44.8162 15.685C43.9939 15.685 43.4457 16.373 43.4457 17.0609C43.4457 17.336 43.4457 17.4736 43.5828 17.6112C43.8569 18.024 44.268 18.4367 44.8162 18.4367C45.3644 18.4367 45.7756 18.1615 46.0497 17.7488C45.7756 18.1615 45.3644 18.4367 44.8162 18.4367V15.685ZM43.1716 24.3528C43.1716 24.628 43.1716 24.7656 43.3087 24.9032C43.5828 25.4535 44.131 25.8662 44.6792 25.8662C45.2274 25.8662 45.7756 25.5911 46.0497 25.0407C45.7756 25.4535 45.3644 25.7287 44.8162 25.7287V22.7018C43.8569 22.8394 43.1716 23.5273 43.1716 24.3528Z" fill="white"/>
<path fill-rule="evenodd" clip-rule="evenodd" d="M71.2674 69.068L44.6797 22.8398V53.6586L71.2674 69.068Z" fill="white"/>
<path fill-rule="evenodd" clip-rule="evenodd" d="M44.6795 22.8398L18.0918 69.068L44.6795 53.6586V22.8398Z" fill="white"/>
<path fill-rule="evenodd" clip-rule="evenodd" d="M71.2672 69.0676H18.0918L44.6795 53.6582L71.2672 69.0676Z" fill="white"/>
<path d="M44.6797 22.8398V53.6586L71.2674 69.068" stroke="#FEFEFE" stroke-width="0.216" stroke-miterlimit="22.9256"/>
<path d="M18.0918 69.068L44.6795 53.6586V22.8398" stroke="#FEFEFE" stroke-width="0.216" stroke-miterlimit="22.9256"/>
<path d="M18.0918 69.0676L44.6795 53.6582L71.2672 69.0676" stroke="#FEFEFE" stroke-width="0.216" stroke-miterlimit="22.9256"/>
<path fill-rule="evenodd" clip-rule="evenodd" d="M107.037 67.967H103.062V79.7992H104.022V75.2589H107.174C109.367 75.2589 110.874 73.7455 110.874 71.5442C110.6 69.4804 109.093 67.967 107.037 67.967ZM107.037 74.4334H103.885V68.7925H107.037C108.682 68.7925 109.778 70.0307 109.778 71.6817C109.778 73.1952 108.545 74.4334 107.037 74.4334ZM118.275 79.9368C121.701 79.9368 124.305 77.1851 124.305 73.8831C124.305 70.4435 121.564 67.8294 118.275 67.8294C114.849 67.8294 112.245 70.5811 112.245 73.8831C112.108 77.1851 114.849 79.9368 118.275 79.9368ZM118.275 79.1113C115.397 79.1113 113.067 76.7723 113.067 73.8831C113.067 70.9938 115.397 68.6549 118.275 68.6549C121.153 68.6549 123.483 70.9938 123.483 73.8831C123.483 76.7723 121.153 79.1113 118.275 79.1113ZM131.98 79.9368C134.173 79.9368 136.092 78.8361 137.051 77.0475L136.229 76.6348C135.406 78.1482 133.762 79.1113 131.98 79.1113C128.828 79.1113 126.772 76.7723 126.772 73.8831C126.772 70.9938 128.965 68.6549 131.98 68.6549C133.899 68.6549 135.543 69.618 136.229 71.1314L137.051 70.7186C136.092 68.9301 134.173 67.8294 131.98 67.8294C128.417 67.8294 125.813 70.5811 125.813 73.8831C125.95 77.1851 128.417 79.9368 131.98 79.9368ZM144.726 79.9368C146.918 79.9368 148.837 78.8361 149.797 77.0475L148.974 76.6348C148.152 78.1482 146.507 79.1113 144.726 79.1113C141.574 79.1113 139.518 76.7723 139.518 73.8831C139.518 70.9938 141.711 68.6549 144.726 68.6549C146.644 68.6549 148.289 69.618 148.974 71.1314L149.797 70.7186C148.837 68.9301 146.918 67.8294 144.726 67.8294C141.162 67.8294 138.558 70.5811 138.558 73.8831C138.558 77.1851 141.162 79.9368 144.726 79.9368ZM159.664 79.7992H160.623V67.967H159.801L152.812 78.1482V67.967H151.852V79.7992H152.675L159.664 69.618V79.7992ZM165.694 66.4535H169.943V65.7656H165.694V66.4535ZM171.313 79.7992H172.273V67.967H171.45L164.461 78.1482V67.967H163.502V79.7992H164.324L171.313 69.618V79.7992ZM180.633 79.9368C182.826 79.9368 184.744 78.8361 185.704 77.0475L184.881 76.6348C184.059 78.1482 182.414 79.1113 180.633 79.1113C177.481 79.1113 175.425 76.7723 175.425 73.8831C175.425 70.9938 177.618 68.6549 180.633 68.6549C182.551 68.6549 184.196 69.618 184.881 71.1314L185.704 70.7186C184.744 68.9301 182.826 67.8294 180.633 67.8294C177.069 67.8294 174.466 70.5811 174.466 73.8831C174.466 77.1851 177.069 79.9368 180.633 79.9368ZM195.845 79.7992L189.678 73.7455L195.708 67.967H194.475L188.719 73.4703V67.967H187.759V79.7992H188.719V73.8831L194.612 79.7992H195.845ZM201.876 79.9368C198.449 79.9368 195.845 77.1851 195.845 73.8831C195.845 70.4435 198.586 67.8294 201.876 67.8294C205.302 67.8294 207.906 70.5811 207.906 73.8831C208.043 77.1851 205.302 79.9368 201.876 79.9368ZM201.876 79.1113C204.754 79.1113 207.083 76.7723 207.083 73.8831C207.083 70.9938 204.754 68.6549 201.876 68.6549C198.997 68.6549 196.668 70.9938 196.668 73.8831C196.668 76.7723 198.997 79.1113 201.876 79.1113ZM211.195 78.9737V74.2958H216.54V73.4703H211.195V68.7925H217.088V67.967H210.373V79.7992H217.225V78.9737H211.195ZM232.164 67.967H223.666V79.7992H224.626V68.7925H231.204V79.7992H232.164V67.967ZM239.153 67.967H235.179V79.7992H236.138V75.2589H239.29C241.483 75.2589 242.991 73.7455 242.991 71.5442C242.853 69.4804 241.346 67.967 239.153 67.967ZM239.153 74.4334H236.001V68.7925H239.153C240.798 68.7925 241.894 70.0307 241.894 71.6817C241.894 73.1952 240.798 74.4334 239.153 74.4334ZM250.391 79.9368C253.817 79.9368 256.421 77.1851 256.421 73.8831C256.421 70.4435 253.68 67.8294 250.391 67.8294C246.965 67.8294 244.361 70.5811 244.361 73.8831C244.361 77.1851 246.965 79.9368 250.391 79.9368ZM250.391 79.1113C247.513 79.1113 245.183 76.7723 245.183 73.8831C245.183 70.9938 247.513 68.6549 250.391 68.6549C253.269 68.6549 255.599 70.9938 255.599 73.8831C255.599 76.7723 253.269 79.1113 250.391 79.1113ZM266.563 79.7992H267.522V67.967H266.7L259.711 78.1482V67.967H258.751V79.7992H259.574L266.563 69.618V79.7992ZM275.471 73.6079C276.568 73.0576 277.253 72.0945 277.253 70.8562C277.253 69.0676 275.745 67.6918 273.69 67.6918C271.634 67.6918 270.4 68.7925 269.852 70.0307L270.538 70.4435C270.949 69.3428 271.908 68.5173 273.553 68.5173C275.197 68.5173 276.294 69.4804 276.294 70.8562C276.294 72.2321 275.197 73.1952 273.553 73.1952H272.593V74.0207H273.964C275.745 74.0207 276.705 75.1213 276.705 76.4972C276.705 77.873 275.608 78.9737 273.69 78.9737C271.634 78.9737 270.675 78.0106 270.401 76.7723L269.578 77.1851C270.126 78.5609 271.36 79.7992 273.69 79.7992C276.157 79.7992 277.664 78.4233 277.664 76.4972C277.664 75.2589 276.842 74.1582 275.471 73.6079ZM286.024 73.6079C286.984 73.0576 287.532 72.2321 287.532 70.9938C287.532 69.3428 286.161 67.8294 284.38 67.8294H279.72V79.7992H284.791C286.572 79.7992 288.08 78.4233 288.08 76.4972C288.08 75.2589 287.258 74.1582 286.024 73.6079ZM284.517 68.7925C285.75 68.7925 286.709 69.7556 286.709 71.1314C286.709 72.3697 285.75 73.4703 284.517 73.4703H280.679V68.7925H284.517ZM284.928 78.9737H280.679V74.1582H284.928C286.161 74.1582 287.258 75.2589 287.258 76.4972C287.258 77.873 286.161 78.9737 284.928 78.9737ZM295.755 79.9368C299.181 79.9368 301.785 77.1851 301.785 73.8831C301.785 70.4435 299.044 67.8294 295.755 67.8294C292.329 67.8294 289.725 70.5811 289.725 73.8831C289.587 77.1851 292.329 79.9368 295.755 79.9368ZM295.755 79.1113C292.877 79.1113 290.547 76.7723 290.547 73.8831C290.547 70.9938 292.877 68.6549 295.755 68.6549C298.633 68.6549 300.963 70.9938 300.963 73.8831C300.963 76.7723 298.633 79.1113 295.755 79.1113ZM311.79 78.9737V67.967H304.526V74.7086C304.526 77.0475 303.978 78.2858 303.292 78.9737H302.333V82.1381H303.292V79.7992H312.201V82.1381H313.16V78.9737H311.79ZM305.485 74.7086V68.7925H310.967V78.9737H304.389C304.937 78.1482 305.485 76.9099 305.485 74.7086ZM320.561 79.9368C322.754 79.9368 324.672 78.8361 325.632 77.0475L324.809 76.6348C323.987 78.1482 322.342 79.1113 320.561 79.1113C317.409 79.1113 315.353 76.7723 315.353 73.8831C315.353 70.9938 317.546 68.6549 320.561 68.6549C322.479 68.6549 324.124 69.618 324.809 71.1314L325.632 70.7186C324.672 68.9301 322.754 67.8294 320.561 67.8294C316.997 67.8294 314.394 70.5811 314.394 73.8831C314.394 77.1851 316.86 79.9368 320.561 79.9368ZM334.814 67.967H326.454V68.7925H330.154V79.7992H331.114V68.7925H334.814V67.967ZM343.037 73.6079C343.996 73.0576 344.545 72.2321 344.545 70.9938C344.545 69.3428 343.174 67.8294 341.392 67.8294H336.733V79.7992H341.804C343.585 79.7992 345.093 78.4233 345.093 76.4972C344.956 75.2589 344.133 74.1582 343.037 73.6079ZM341.392 68.7925C342.626 68.7925 343.585 69.7556 343.585 71.1314C343.585 72.3697 342.626 73.4703 341.392 73.4703H337.555V68.7925H341.392ZM341.804 78.9737H337.555V74.1582H341.804C343.037 74.1582 344.133 75.2589 344.133 76.4972C344.133 77.873 343.037 78.9737 341.804 78.9737ZM373.736 67.967H365.239V79.7992H366.198V68.7925H372.777V79.7992H373.736V67.967ZM377.574 78.9737V74.2958H382.919V73.4703H377.574V68.7925H383.467V67.967H376.751V79.7992H383.604V78.9737H377.574ZM393.471 67.967V73.3327H386.619V67.967H385.66V79.7992H386.619V74.1582H393.471V79.7992H394.431V67.967H393.471ZM402.654 79.9368C406.08 79.9368 408.684 77.1851 408.684 73.8831C408.684 70.4435 405.943 67.8294 402.654 67.8294C399.227 67.8294 396.624 70.5811 396.624 73.8831C396.624 77.1851 399.227 79.9368 402.654 79.9368ZM402.654 79.1113C399.776 79.1113 397.446 76.7723 397.446 73.8831C397.446 70.9938 399.776 68.6549 402.654 68.6549C405.532 68.6549 407.862 70.9938 407.862 73.8831C407.862 76.7723 405.669 79.1113 402.654 79.1113ZM416.496 79.9368C418.689 79.9368 420.607 78.8361 421.567 77.0475L420.744 76.6348C419.922 78.1482 418.277 79.1113 416.496 79.1113C413.344 79.1113 411.288 76.7723 411.288 73.8831C411.288 70.9938 413.481 68.6549 416.496 68.6549C418.414 68.6549 420.059 69.618 420.744 71.1314L421.567 70.7186C420.607 68.9301 418.689 67.8294 416.496 67.8294C412.932 67.8294 410.329 70.5811 410.329 73.8831C410.329 77.1851 412.932 79.9368 416.496 79.9368ZM430.886 67.967H422.526V68.7925H426.226V79.7992H427.186V68.7925H430.886V67.967ZM433.627 78.9737V74.2958H438.972V73.4703H433.627V68.7925H439.52V67.967H432.805V79.7992H439.657V78.9737H433.627ZM449.662 79.7992L443.495 73.7455L449.525 67.967H448.291L442.535 73.4703V67.967H441.576V79.7992H442.535V73.8831L448.428 79.7992H449.662ZM450.21 79.7992C452.403 79.9368 453.636 78.6985 453.636 74.8462V68.7925H459.255V79.7992H460.215V67.967H452.677V74.8462C452.677 78.2858 451.718 79.2489 450.073 79.1113V79.7992H450.21ZM471.042 79.7992H472.001L467.478 67.967H466.519L461.859 79.7992H462.819L463.915 76.7723H469.808L471.042 79.7992ZM464.326 75.9468L466.93 69.0676L469.534 75.9468H464.326ZM353.042 80.0744C356.468 80.0744 359.209 77.3227 359.209 73.8831C359.209 70.4435 356.468 67.6918 353.042 67.6918C349.615 67.6918 346.874 70.4435 346.874 73.8831C346.874 77.3227 349.615 80.0744 353.042 80.0744ZM353.042 79.1113C350.164 79.1113 347.834 76.7723 347.834 73.7455C347.834 70.8562 350.164 68.3797 353.042 68.3797C355.92 68.3797 358.25 70.7186 358.25 73.7455C358.25 76.7723 356.057 79.1113 353.042 79.1113Z" fill="white"/>
</svg>
